<svg version="1.1" id="People" xmlns="http://www.w3.org/2000/svg" xmlns:xlink="http://www.w3.org/1999/xlink" x="0px" y="0px"
	 viewBox="0 0 450 450" style="enable-background:new 0 0 450 450;" xml:space="preserve">
<g id="_x31_6">
	<g>
		<g>
			<path style="fill:#0606C6;" d="M106.032,353.504H89.026c-0.267,0-0.481-0.215-0.481-0.481c0-0.267,0.215-0.481,0.481-0.481
				h17.005c0.267,0,0.481,0.214,0.481,0.481C106.513,353.289,106.299,353.504,106.032,353.504z"/>
		</g>
		<g>
			<path style="fill:#0606C6;" d="M113.074,353.504h-3.876c-0.267,0-0.481-0.215-0.481-0.481c0-0.267,0.214-0.481,0.481-0.481h3.876
				c0.267,0,0.481,0.214,0.481,0.481C113.555,353.289,113.341,353.504,113.074,353.504z"/>
		</g>
		<g>
			<path style="fill:#0606C6;" d="M346.01,353.504H116.818c-0.267,0-0.481-0.215-0.481-0.481c0-0.267,0.215-0.481,0.481-0.481
				H346.01c0.267,0,0.481,0.214,0.481,0.481C346.491,353.289,346.277,353.504,346.01,353.504z"/>
		</g>
		<g>
			<path style="fill:#0606C6;" d="M349.826,353.504h-0.733c-0.267,0-0.481-0.215-0.481-0.481c0-0.267,0.214-0.481,0.481-0.481h0.733
				c0.267,0,0.481,0.214,0.481,0.481C350.307,353.289,350.093,353.504,349.826,353.504z"/>
		</g>
		<g>
			<path style="fill:#0606C6;" d="M353.639,353.504h-3.813c-0.267,0-0.481-0.215-0.481-0.481c0-0.267,0.214-0.481,0.481-0.481h3.813
				c0.267,0,0.481,0.214,0.481,0.481C354.12,353.289,353.905,353.504,353.639,353.504z"/>
		</g>
		<g>
			<path style="fill:#0606C6;" d="M360.974,353.504h-5.135c-0.267,0-0.481-0.215-0.481-0.481c0-0.267,0.214-0.481,0.481-0.481h5.135
				c0.267,0,0.481,0.214,0.481,0.481C361.455,353.289,361.241,353.504,360.974,353.504z"/>
		</g>
	</g>
	<g>
		<g>
			<path style="fill:#FFA6AD;" d="M232.308,202.195c-0.993,3.713-4.412,6.324-8.346,6.25c-5.919-1.434-10.625-3.014-13.824-4.302
				c0,0-1.801-0.662-6.214-2.684c-0.184-0.074-0.404-0.184-0.625-0.258c-0.772-0.368-1.618-0.772-2.574-1.213
				c-0.588-0.294-1.14-0.551-1.728-0.846c-0.074-0.037-0.184-0.073-0.258-0.11c-0.809-0.404-1.654-0.809-2.537-1.25
				c-0.699-0.368-1.434-0.698-2.206-1.103c-0.809-0.367-1.654-0.845-2.61-1.36c-0.368-0.184-0.625-0.258-0.809-0.404
				c-0.846-0.405-1.581-0.735-2.28-1.14c-0.147-0.037-0.294-0.184-0.441-0.221c-1.471-0.735-2.867-1.471-4.265-2.243
				c-2.022-1.103-4.044-2.206-5.993-3.309c2.059-5.147,4.044-10.184,6.066-15.258c0.331,0.11,0.662,0.258,0.956,0.331
				c1.691,0.735,3.309,1.47,5,2.169c0.956,0.405,1.912,0.846,2.905,1.25c2.353,1.066,4.633,2.022,7.059,2.978
				c1.03,0.368,1.949,0.809,2.831,1.14c0.698,0.221,1.25,0.441,1.728,0.625c0.662,0.221,1.25,0.441,1.802,0.625
				c1.838,0.625,3.162,1.066,3.824,1.287c4.191,1.397,10.331,4.044,18.604,9.486C231.683,194.584,233.337,198.481,232.308,202.195z"
				/>
			<path style="fill:#FFA6AD;" d="M207.196,187.635v13.162c-1.287,0.147-2.61,0.257-3.897,0.404
				c-0.772-0.368-1.618-0.772-2.574-1.213c-0.588-0.294-1.14-0.551-1.728-0.846c-0.074-0.037-0.184-0.073-0.258-0.11
				c2.427-5.735,4.816-11.471,7.206-17.17C206.351,183.812,206.792,185.724,207.196,187.635z"/>
			<path style="fill:#FFA6AD;" d="M166.469,120.314c-1.672,8.468-3.11,20.892-1.211,35.654c1.506,11.71,4.65,21.312,7.559,28.322
				c2.636,6.354,7.63,5.312,8.426,5.274c3.974-0.187,7.71-4.178,9.571-10.035c-2.64-20.277-5.281-40.554-7.921-60.831
				L166.469,120.314z"/>
			<g>
				<g>
					<path style="fill:#FFA6AD;" d="M181.891,121.367l-1.42-0.735c-0.635-0.329-0.883-1.11-0.554-1.744l3.514-6.787
						c0.329-0.635,1.11-0.883,1.745-0.554l1.419,0.735c0.635,0.329,0.883,1.109,0.554,1.744l-3.514,6.787
						C183.307,121.447,182.526,121.696,181.891,121.367z"/>
					<path style="fill:#FFA6AD;" d="M180.855,126.483c-5.081,0.133-10.162,0.265-15.243,0.398c-0.932-2.401-2.443-7.383-0.757-12.55
						c0.46-1.409,0.828-3.741,2.814-4.41c1.675-0.564,3.822-1.028,6.324-0.981c2.483,0.047,4.583,0.584,6.187,1.184
						c1.557,0.582,2.575,2.074,2.653,3.734C182.172,118.067,181.513,122.275,180.855,126.483z"/>
				</g>
				<path style="fill:#0606C6;" d="M208.55,121.523h-68.035c-0.599,0-1.089-0.49-1.089-1.089v-3.796c0-0.599,0.49-1.089,1.089-1.089
					h68.035c0.599,0,1.089,0.49,1.089,1.089v3.796C209.639,121.033,209.149,121.523,208.55,121.523z"/>
				<g>
					<path style="fill:#FFC022;" d="M155.528,100.901v4.022h-3.613c-1.723,0-3.119,1.396-3.119,3.119v0.945
						c0,1.723-1.397,3.119-3.12,3.119c-1.723,0-3.12,1.397-3.12,3.12v6.941c0,1.723,1.397,3.12,3.12,3.12
						c1.723,0,3.12,1.397,3.12,3.12v0.945c0,1.723,1.396,3.12,3.119,3.12h3.613v4.022h3.997c1.723,0,3.12-1.397,3.12-3.12v-29.354
						c0-1.723-1.397-3.12-3.12-3.12H155.528z"/>
					<g>
						<path style="fill:#FFFFFF;" d="M148.795,125.771c-0.267,0-0.481-0.215-0.481-0.481v-13.182c0-0.267,0.214-0.481,0.481-0.481
							s0.481,0.214,0.481,0.481v13.182C149.277,125.556,149.062,125.771,148.795,125.771z"/>
					</g>
					<g>
						<path style="fill:#FFFFFF;" d="M155.529,133.302c-0.267,0-0.481-0.214-0.481-0.481v-27.898c0-0.267,0.214-0.481,0.481-0.481
							c0.267,0,0.481,0.214,0.481,0.481v27.898C156.01,133.087,155.796,133.302,155.529,133.302z"/>
					</g>
				</g>
				<g>
					<path style="fill:#FFC022;" d="M195.21,100.901v4.022h3.613c1.723,0,3.119,1.396,3.119,3.119v0.945
						c0,1.723,1.397,3.119,3.12,3.119s3.12,1.397,3.12,3.12v6.941c0,1.723-1.397,3.12-3.12,3.12s-3.12,1.397-3.12,3.12v0.945
						c0,1.723-1.396,3.12-3.119,3.12h-3.613v4.022h-3.997c-1.723,0-3.119-1.397-3.119-3.12v-29.354c0-1.723,1.396-3.12,3.119-3.12
						H195.21z"/>
					<g>
						<path style="fill:#FFFFFF;" d="M201.943,125.771c-0.267,0-0.481-0.215-0.481-0.481v-13.182c0-0.267,0.214-0.481,0.481-0.481
							s0.481,0.214,0.481,0.481v13.182C202.425,125.556,202.21,125.771,201.943,125.771z"/>
					</g>
					<g>
						<path style="fill:#FFFFFF;" d="M195.21,133.302c-0.267,0-0.481-0.214-0.481-0.481v-27.898c0-0.267,0.214-0.481,0.481-0.481
							c0.267,0,0.481,0.214,0.481,0.481v27.898C195.691,133.087,195.477,133.302,195.21,133.302z"/>
					</g>
				</g>
				<g>
					<path style="fill:#FFA6AD;" d="M170.475,115.81c-0.065,0.092-0.75,1.026-2.064,1.101c-0.96,0.055-1.888-0.37-2.41-1.101
						c0-1.568,0-3.135,0-4.703c1.491-0.141,2.982-0.283,4.473-0.424V115.81z"/>
					<path style="fill:#FFA6AD;" d="M175.244,115.81c-0.066,0.092-0.75,1.026-2.064,1.101c-0.961,0.055-1.888-0.37-2.41-1.101
						c0-1.568,0-3.135,0-4.703c1.492-0.141,2.983-0.283,4.474-0.424V115.81z"/>
					<path style="fill:#FFA6AD;" d="M179.717,115.81c-0.066,0.092-0.75,1.026-2.064,1.101c-0.961,0.055-1.888-0.37-2.41-1.101
						c0-1.568,0-3.135,0-4.703c1.491-0.141,2.982-0.283,4.473-0.424V115.81z"/>
					<path style="fill:#FFA6AD;" d="M182.296,116.323c-0.172,0.172-0.546,0.491-1.112,0.589c-0.874,0.151-1.842-0.283-2.41-1.101
						c0-1.568,0-3.135,0-4.703c0.933-0.027,1.867-0.054,2.801-0.082c0.326,0.35,1.567,1.766,1.321,3.653
						C182.805,115.375,182.538,115.934,182.296,116.323z"/>
					<g>
						<path style="fill:#0606C6;" d="M170.662,115.145c-0.267,0-0.481-0.218-0.481-0.485l0.019-3.196
							c0-0.263,0.218-0.477,0.481-0.477c0.267,0,0.481,0.218,0.481,0.485l-0.019,3.196
							C171.143,114.931,170.925,115.145,170.662,115.145z"/>
					</g>
					<g>
						<path style="fill:#0606C6;" d="M175.245,115.582c-0.278-0.007-0.489-0.229-0.481-0.496l0.109-3.786
							c0.008-0.259,0.222-0.466,0.481-0.466c0.278,0.008,0.489,0.229,0.481,0.496l-0.109,3.786
							C175.719,115.375,175.505,115.582,175.245,115.582z"/>
					</g>
					<g>
						<path style="fill:#0606C6;" d="M179.246,115.77c-0.259,0-0.474-0.207-0.481-0.47l-0.105-3.974
							c-0.007-0.263,0.203-0.485,0.47-0.492c0.271,0,0.485,0.207,0.493,0.47l0.105,3.974c0.007,0.263-0.203,0.485-0.47,0.492
							C179.257,115.77,179.249,115.77,179.246,115.77z"/>
					</g>
					<g>
						<path style="fill:#0606C6;" d="M166.004,115.292c-0.267,0-0.481-0.214-0.481-0.481v-2.827c0-0.267,0.215-0.481,0.481-0.481
							c0.267,0,0.481,0.214,0.481,0.481v2.827C166.485,115.078,166.271,115.292,166.004,115.292z"/>
					</g>
					<g>
						<path style="fill:#0606C6;" d="M182.987,115.228c-0.406-0.113-0.542-0.387-0.455-0.639c0.034-0.098,0.057-0.199,0.068-0.305
							c0.022-0.274-0.049-0.56-0.211-0.835c-0.135-0.229-0.06-0.526,0.169-0.658c0.233-0.135,0.527-0.056,0.658,0.169
							c0.263,0.447,0.38,0.932,0.342,1.406c-0.019,0.188-0.056,0.365-0.117,0.537C183.374,115.104,183.186,115.228,182.987,115.228z
							"/>
					</g>
				</g>
			</g>
			<g>
				<path style="fill:#0606C6;" d="M188.878,178.663c-0.075,0-0.154-0.019-0.225-0.057c-0.237-0.124-0.323-0.417-0.199-0.65
					l1.414-2.647c0.124-0.23,0.417-0.316,0.65-0.199c0.237,0.124,0.323,0.417,0.199,0.651l-1.414,2.647
					C189.216,178.569,189.051,178.663,188.878,178.663z"/>
			</g>
			<path style="fill:#FFA6AD;" d="M227.189,197.79c0.993,3.713,4.412,6.324,8.346,6.25c5.919-1.434,10.625-3.015,13.824-4.302
				c0,0,1.801-0.662,6.213-2.684c0.184-0.074,0.405-0.184,0.625-0.258c0.772-0.368,1.618-0.772,2.574-1.213
				c0.588-0.294,1.14-0.551,1.728-0.846c0.073-0.037,0.184-0.073,0.258-0.11c0.809-0.404,1.654-0.809,2.537-1.25
				c0.699-0.368,1.434-0.698,2.206-1.103c0.809-0.367,1.654-0.846,2.61-1.36c0.368-0.184,0.625-0.258,0.809-0.404
				c0.846-0.405,1.581-0.735,2.28-1.14c0.147-0.037,0.294-0.184,0.441-0.221c1.471-0.735,2.867-1.471,4.265-2.243
				c2.022-1.103,4.044-2.206,5.993-3.309c-2.059-5.147-4.044-10.184-6.066-15.258c-0.331,0.111-0.662,0.257-0.956,0.331
				c-1.691,0.735-3.309,1.47-5,2.169c-0.956,0.405-1.912,0.846-2.904,1.25c-2.353,1.066-4.633,2.022-7.059,2.978
				c-1.03,0.368-1.949,0.809-2.831,1.14c-0.698,0.221-1.25,0.441-1.728,0.625c-0.662,0.221-1.25,0.441-1.802,0.625
				c-1.838,0.625-3.162,1.066-3.823,1.287c-4.191,1.397-10.331,4.044-18.604,9.486C227.814,190.18,226.16,194.077,227.189,197.79z"
				/>
			<path style="fill:#FFA6AD;" d="M252.301,183.231v13.162c1.287,0.147,2.61,0.257,3.897,0.404c0.772-0.368,1.618-0.772,2.574-1.213
				c0.588-0.294,1.14-0.551,1.728-0.846c0.073-0.037,0.184-0.073,0.258-0.11c-2.427-5.735-4.816-11.471-7.207-17.17
				C253.146,179.407,252.705,181.319,252.301,183.231z"/>
			<path style="fill:#FFA6AD;" d="M160.036,265.054c0.221,0.11,0.478,0.221,0.662,0.331c4.007,1.912,7.978,3.824,11.949,5.736
				c1.066,0.515,2.059,1.029,3.089,1.544c2.096,0.919,4.118,1.912,6.14,2.905c2.243,1.066,4.485,2.132,6.691,3.235
				c3.015,1.434,6.03,2.868,9.008,4.338c0.221,0.11,0.478,0.221,0.698,0.331c2.427,1.14,4.927,2.316,7.354,3.456
				c7.022,3.383,14.044,6.765,21.104,10.147l2.647-5.625l1.103-2.39l7.978-16.912l0.809-1.691l-17.574-8.383l-9.927-4.669
				c-0.882-0.405-1.691-0.772-2.573-1.14c-0.221-0.11-0.441-0.257-0.699-0.368c-0.956-0.441-1.949-0.919-2.941-1.397
				c-0.625-0.257-1.287-0.551-1.912-0.882c-0.772-0.331-1.507-0.698-2.279-1.066c-0.735-0.331-1.397-0.662-2.133-0.992
				c-0.735-0.368-1.507-0.699-2.28-1.066c-0.698-0.331-1.397-0.661-2.096-0.993c-0.405-0.184-0.809-0.368-1.25-0.551
				c-0.331-0.184-0.552-0.294-0.809-0.405c-0.184-0.074-0.331-0.184-0.515-0.258c-0.441-0.184-0.919-0.404-1.36-0.625
				c-0.184-0.074-0.405-0.184-0.625-0.294c-0.735-0.331-1.544-0.698-2.28-1.066c-0.625-0.258-1.25-0.588-1.838-0.846
				c-0.11-0.074-0.184-0.11-0.294-0.147c-0.772-0.368-1.581-0.735-2.353-1.103c-0.441-0.184-0.882-0.404-1.36-0.625
				c-0.11-0.074-0.221-0.11-0.368-0.184c-0.809-0.368-1.655-0.772-2.537-1.14c-0.588-0.331-1.25-0.625-1.875-0.919
				c-0.772-0.331-1.471-0.662-2.133-0.993c-1.213-0.588-2.427-1.14-3.64-1.728c-0.331-0.147-0.625-0.257-0.956-0.405
				c-0.184,0.846-0.404,1.655-0.625,2.611c-0.184,0.625-0.405,1.323-0.625,1.985c-0.515,1.838-1.14,3.75-1.839,5.699
				c-0.11,0.257-0.147,0.478-0.257,0.662c-0.331,0.956-0.662,1.875-1.029,2.794c-0.11,0.184-0.184,0.405-0.257,0.588
				c-0.184,0.478-0.368,0.919-0.515,1.324c-1.324,3.089-2.647,5.956-4.007,8.493c-0.037,0.074-0.111,0.147-0.111,0.184
				C160.919,263.436,160.477,264.245,160.036,265.054z"/>
			<path style="fill:#FFA6AD;" d="M207.278,283.454l0.588,1.066l1.581,2.758l0.221,0.404l0.405,0.698l0.515,0.956l0.331,0.588
				l0.552,0.956l1.066,1.912l0.294,0.515c0.11,0.147,1.25,2.206,1.25,2.206l1.14,1.985l0.993,1.802l0.589,0.992
				c0.036,0.111,0.735,1.361,0.735,1.361l1.287,2.279l1.324,2.317l1.177,2.058l0.919,1.618c0.221,0.331,0.368,0.625,0.588,0.919
				c0.221,0.478,0.515,0.956,0.809,1.434c0.147,0.294,0.258,0.515,0.404,0.772c0.331,0.551,0.662,1.14,0.993,1.728
				c0.184,0.368,0.404,0.735,0.625,1.103c0.074,0.147,0.184,0.294,0.257,0.441c0.074,0.11,0.11,0.184,0.184,0.294
				c0.111,0.147,0.184,0.294,0.221,0.441c0.147,0.221,0.258,0.405,0.368,0.625c0.441,0.735,0.846,1.433,1.287,2.206
				c0.405,0.662,0.772,1.36,1.177,2.059c0.295,0.478,0.552,0.992,0.882,1.507c0.111,0.221,0.221,0.441,0.368,0.662
				c0.331,0.588,0.698,1.176,1.029,1.802c0.037,0.073,0.074,0.147,0.111,0.221c0.11,0.221,0.257,0.441,0.404,0.661
				c0.073,0.147,0.184,0.331,0.294,0.515c0.258,0.478,0.515,0.882,0.699,1.287c0.257,0.404,0.514,0.845,0.772,1.287
				c0.11,0.184,0.221,0.405,0.294,0.588c0.441,0.735,0.882,1.471,1.287,2.206c0.331,0.551,0.662,1.177,1.029,1.765
				c0.037,0.11,0.074,0.184,0.147,0.294c0.074,0.148,0.148,0.258,0.221,0.405c0.258,0.441,0.552,0.956,0.809,1.434
				c0.074,0.111,0.147,0.258,0.221,0.405c0.258,0.405,0.515,0.845,0.772,1.287c0.037,0.111,0.111,0.221,0.184,0.368
				c0.478,0.772,0.919,1.581,1.434,2.39c0.294,0.588,0.662,1.213,1.03,1.838c0.405,0.699,0.809,1.397,1.177,2.059
				c0.111,0.147,0.184,0.331,0.295,0.478c0.919,0.698,1.949,1.25,3.014,1.691c0.405,0.184,0.809,0.331,1.213,0.441
				c0.515-0.441,1.103-0.883,1.655-1.324c1.507-1.176,3.088-2.39,4.779-3.566c0.221-0.147,0.404-0.294,0.588-0.404
				c0.772-0.588,1.581-1.103,2.39-1.618c0.258-0.147,0.441-0.294,0.625-0.405c0.404-0.294,0.809-0.551,1.176-0.772
				c2.463-1.507,4.853-2.904,7.133-4.081c0.073-0.074,0.184-0.11,0.258-0.147c0.257-0.147,0.515-0.294,0.772-0.404
				c0.073-0.074,0.147-0.074,0.184-0.111c0.515-0.257,0.992-0.478,1.471-0.735c0.257-0.11,0.478-0.221,0.698-0.331
				c0.147-0.074,0.257-0.11,0.404-0.184c-0.11-0.221-0.257-0.441-0.368-0.662c-0.11-0.184-0.221-0.404-0.331-0.588
				c-0.404-0.735-0.809-1.47-1.25-2.206c-0.662-1.177-1.287-2.317-1.948-3.493c-0.037-0.074-0.111-0.184-0.147-0.257
				c-0.919-1.655-1.838-3.346-2.794-5.037c-0.552-1.029-1.103-2.022-1.654-3.015c-0.993-1.654-1.912-3.309-2.794-4.963
				c-0.184-0.331-0.331-0.625-0.515-0.956c-2.831-5-5.662-10.074-8.456-15.111c-0.147-0.294-0.294-0.515-0.441-0.772
				c-1.324-2.353-2.684-4.743-4.008-7.059c-2.537-4.485-5.037-9.008-7.537-13.53c-0.11-0.184-0.221-0.331-0.294-0.515
				c-0.588-1.029-1.176-2.096-1.728-3.125c-0.111-0.147-0.184-0.331-0.295-0.478c-0.147-0.294-0.331-0.588-0.478-0.883
				c-0.258-0.441-0.478-0.882-0.735-1.324c-0.11-0.184-0.221-0.404-0.331-0.588l-0.699,0.405l-1.949,1.066l-2.758,1.581
				l-2.316,1.324l-7.133,4.081l-4.008,2.279c-0.111,0.037-0.184,0.074-0.258,0.11l-2.022,1.177l-2.831,1.618l-0.845,0.478
				l-0.368,0.221L207.278,283.454z"/>
			<g>
				<path style="fill:#FFA6AD;" d="M147.864,328.603c1.618,0.515,3.235,1.029,4.853,1.544c0.441,0.111,0.809,0.221,1.177,0.368
					c6.728,2.096,13.383,4.228,20.074,6.324c1.25,0.404,2.464,0.772,3.713,1.177c0.037-0.993,0.073-1.985,0.11-2.978
					c0.221-5.552,0.404-10.883,0.662-16.287c0.257-6.066,0.514-12.17,0.772-18.236v-0.221c0-0.073,0-0.184,0.037-0.257
					c0.073-2.39,0.184-4.743,0.257-7.133c0.037-0.294,0.037-0.514,0.037-0.772c0.11-2.279,0.221-4.559,0.294-6.838v-0.441
					c0.147-3.346,0.294-6.691,0.404-10.037c0.258-6.214,0.515-12.316,0.772-18.42c-0.919-0.514-1.912-0.993-2.978-1.47
					c-1.213-0.515-2.5-0.993-3.897-1.397c-2.794-0.772-5.515-1.177-8.015-1.214c-6.36-0.184-11.618,1.471-14.522,2.537
					c-0.111,2.022-0.184,4.044-0.294,6.066c-0.625,12.941-1.287,25.736-1.986,38.641c-0.331,6.25-0.625,12.464-0.992,18.751
					c-0.074,1.728-0.147,3.493-0.257,5.258C148.048,325.22,147.937,326.912,147.864,328.603z"/>
				<path style="fill:#FFA6AD;" d="M152.243,244.948c-4.624,7.287-3.076,16.554,3.456,20.699c6.532,4.144,15.576,1.596,20.199-5.691
					c4.623-7.287,3.076-16.554-3.456-20.698C165.909,235.113,156.866,237.661,152.243,244.948z"/>
				<g>
					<path style="fill:#0606C6;" d="M157.488,263.623c-0.436,0-0.895-0.053-1.372-0.18c-2.098-0.571-3.7-2.38-4.087-4.602
						c-0.045-0.263,0.128-0.511,0.391-0.557c0.252-0.041,0.508,0.128,0.556,0.391c0.323,1.857,1.654,3.365,3.392,3.839
						c2.181,0.586,3.925-0.733,4.113-0.883c0.214-0.169,0.515-0.128,0.676,0.075c0.165,0.211,0.132,0.511-0.075,0.677
						C160.89,262.532,159.447,263.623,157.488,263.623z"/>
				</g>
			</g>
			<path style="fill:#FFA6AD;" d="M249.01,324.247c1.471,10.111,7.39,16.913,10.442,19.964c13.935-5.405,27.796-10.809,41.73-16.177
				c3.346-1.287,6.655-2.573,10-3.86c3.64-1.434,7.243-2.831,10.883-4.228c0.515-0.184,0.993-0.405,1.507-0.589
				c1.544-0.662,3.126-1.213,4.706-1.838c-0.552-4.559-1.067-9.155-1.581-13.714c-0.662-5.698-1.324-11.398-1.949-17.059
				c-0.331,0.037-0.625,0.037-0.956,0.074c-5.699,2.243-11.361,4.522-16.986,6.802c-5.662,2.243-11.324,4.486-16.949,6.765
				c-13.714,5.442-27.354,10.919-41.068,16.398C248.642,318.99,248.642,321.49,249.01,324.247z"/>
			<g>
				<path style="fill:#FFA6AD;" d="M236.657,334.064c0,0.368,0,0.735,0.037,1.067c0,0.221,0,0.404,0.037,0.625
					c0.405,3.677,2.39,6.949,5.331,9.228c0.184,0.147,0.367,0.294,0.551,0.404c0.919,0.698,1.949,1.25,3.015,1.691
					c0.404,0.184,0.809,0.331,1.213,0.441c1.581,0.588,3.309,0.882,5.074,0.956c8.64,0.221,15.773-5.882,15.993-13.603
					c0-0.294,0-0.625-0.037-0.919c0-0.405-0.037-0.772-0.074-1.14c-0.074-0.478-0.184-0.956-0.294-1.434
					c-0.11-0.478-0.257-0.919-0.478-1.397c-0.441-1.25-1.103-2.427-1.948-3.493c-0.294-0.368-0.588-0.735-0.919-1.066
					c-2.757-2.941-6.875-4.853-11.508-4.963C244.01,320.24,236.877,326.306,236.657,334.064z"/>
				<g>
					<path style="fill:#0606C6;" d="M263.641,341.611c-0.135,0-0.271-0.056-0.365-0.165c-0.173-0.203-0.15-0.508,0.049-0.68
						c1.429-1.233,2.038-3.147,1.553-4.876c-0.59-2.083-2.5-2.936-2.876-3.087c-0.248-0.098-0.368-0.38-0.271-0.624
						c0.102-0.244,0.391-0.361,0.624-0.271c0.451,0.18,2.737,1.199,3.448,3.718c0.587,2.087-0.135,4.391-1.846,5.869
						C263.863,341.574,263.754,341.611,263.641,341.611z"/>
				</g>
			</g>
			<path style="fill:#FFA6AD;" d="M221.844,172.209c-0.151,1.26-0.291,2.486-0.477,3.735c-0.061,0.712-0.158,1.412-0.265,2.148
				c-0.183,1.366-0.355,2.697-0.491,4.038c-0.251,1.844-0.469,3.584-0.698,5.358c-0.154,1.144-0.273,2.299-0.427,3.443
				c-0.042,0.141-0.028,0.222-0.06,0.327c0.081-0.014,0.151,0.007,0.232-0.007c1.451-0.099,2.891-0.163,4.342-0.262
				c0.86-0.047,1.765-0.119,2.624-0.167c2.23-0.133,4.505-0.29,6.77-0.412c-0.233-1.261-0.456-2.558-0.724-3.83
				c-0.264-1.54-0.529-3.079-0.793-4.618c-0.063-0.173-0.09-0.335-0.083-0.486c-0.261-1.423-0.498-2.801-0.759-4.224
				c-0.345-1.909-0.724-3.829-1.058-5.774C227.205,171.755,224.535,171.946,221.844,172.209z"/>
			<path style="fill:#FFA6AD;" d="M221.844,172.209c-0.151,1.26-0.291,2.486-0.477,3.735c-0.061,0.712-0.158,1.412-0.265,2.148
				c-0.183,1.366-0.355,2.697-0.491,4.038c1.975-0.056,4.352-1.181,6.331-3.156c2.34-2.404,3.421-5.342,2.918-7.491
				C227.205,171.755,224.535,171.946,221.844,172.209z"/>
			<g>
				<path style="fill:#FFA6AD;" d="M218.862,174.646c4.927,2.831,11.949-0.037,15.663-6.397c0.441-0.772,0.735-1.361,0.993-1.986
					c2.537-5.772,1.471-12.022-2.647-14.816l-0.515-0.294c-2.61-1.508-5.772-1.434-8.713-0.111c-1.361,0.625-2.684,1.507-3.86,2.61
					c-0.956,0.882-1.838,1.875-2.611,3.015l-0.662,1.029c-0.625,1.103-1.066,2.169-1.397,3.199
					C213.236,166.484,214.634,172.256,218.862,174.646z"/>
				<path style="fill:#FFA6AD;" d="M215.333,166.263c-0.204-0.548-0.409-1.096-0.613-1.643c-0.379-1.609-0.758-3.218-1.137-4.826
					c0.073-0.205,0.21-0.474,0.472-0.591c0.459-0.204,1.033,0.181,1.267,0.331c0.652,0.413,1.709,0.917,3.524,1.361
					C217.676,162.684,216.505,164.474,215.333,166.263z"/>
			</g>
			<path style="fill:#FFA6AD;" d="M232.975,164.608c-0.469,1.552-1.982,2.467-3.38,2.045c-1.398-0.423-2.15-2.023-1.681-3.575
				c0.469-1.552,1.982-2.467,3.38-2.045C232.692,161.455,233.445,163.056,232.975,164.608z"/>
			<path style="fill:#FFFFFF;" d="M221.323,167.066c-0.629,0.286-2.119,0.855-3.93,0.492c-0.739-0.148-1.337-0.413-1.779-0.658
				c-0.074,1.445,0.473,2.764,1.389,3.176C218.274,170.647,220.555,169.613,221.323,167.066z"/>
			<path style="fill:#FFA6AD;" d="M192.17,262.186c15.883,2.831,31.803,5.625,47.722,8.456l-0.662-9.706l-4.853-70.922
				c-0.404-0.184-3.456-1.397-7.059-1.838c-2.206-0.294-4.596-0.294-6.728,0.404c-0.514,0.147-0.992,0.368-1.47,0.625
				c-4.853,12.022-9.67,24.045-14.523,36.068c-2.757,8.199-5.515,16.398-8.272,24.597
				C194.927,253.988,193.567,258.069,192.17,262.186z"/>
			<g>
				<path style="fill:#FFA6AD;" d="M322.065,319.946c-0.074,1.25-0.074,2.426,0,3.603c0.147,6.25,1.25,11.839,3.125,16.398
					c0.11,0.294,0.221,0.588,0.368,0.845c0.478,1.066,0.993,2.096,1.544,3.015c0.147,0.257,0.294,0.515,0.515,0.772
					c1.912,3.125,4.339,5.405,7.096,6.691c0.147,0.073,0.294,0.111,0.441,0.184c0.184,0.074,0.368,0.147,0.552,0.221
					c0.184,0.11,0.367,0.147,0.551,0.221c1.389,0.393,3.201,0.671,5.509,0.407c0.594-0.039,1.145-0.149,1.697-0.259
					c0.294-0.074,0.588-0.147,0.919-0.221c0.294-0.074,0.625-0.147,0.956-0.258v-9.523c0-5.845,0-11.655-0.037-17.5
					c0.037-0.478,0.037-0.956,0-1.434v-9.596c0-10.589-0.037-21.141-0.037-31.729c-0.147-0.184-0.331-0.368-0.515-0.552
					c-0.184-0.221-0.404-0.367-0.625-0.551c-0.147-0.11-0.294-0.221-0.478-0.294c-0.368-0.221-0.736-0.331-1.14-0.368
					c-0.662-0.073-1.25,0.111-1.801,0.368c-1.029,0.478-1.875,1.36-2.243,1.765c-0.221,0.221-0.405,0.368-0.625,0.551
					c-0.074,0.074-0.184,0.147-0.294,0.221c-0.147,0.111-0.294,0.221-0.441,0.331c-0.846,0.588-1.986,1.213-3.456,1.691
					c-0.294,0.11-0.625,0.221-0.919,0.331c-0.625,0.184-1.324,0.368-2.096,0.551c-0.368,0.074-0.772,0.147-1.177,0.221
					c-0.515,0.147-1.066,0.221-1.654,0.295c-0.331,0.074-0.662,0.11-0.993,0.147c-0.478,0.074-0.956,0.111-1.471,0.184
					c-0.221,0.036-0.368,0.036-0.588,0.073c-0.331,0.037-0.625,0.037-0.956,0.074c-0.441,7.978-0.882,15.956-1.287,23.971
					c-0.074,1.765-0.184,3.493-0.294,5.258c0,0.294-0.037,0.588-0.037,0.883C322.101,317.96,322.065,318.953,322.065,319.946z"/>
				<path style="fill:#0606C6;" d="M345.326,351.555c0.009-2.612,0.018-5.186-0.01-7.799c0.018-0.588,0-1.177,0.018-1.728
					c0.002-5.849,0.003-11.661-0.033-17.474c0.015-0.478-0.006-0.957,0.009-1.434c-0.023-2.76-0.009-5.518-0.031-8.278
					c0.016-0.514,0.032-0.992,0.01-1.471c0.005-10.557,0.008-21.077-0.026-31.599c-0.601-0.755-1.53-1.63-2.74-1.742
					c-1.943-0.209-3.545,1.579-4.077,2.114c-0.229,0.25-0.532,0.535-0.908,0.781c-0.15,0.105-0.301,0.211-0.452,0.316
					c-0.979,0.705-2.325,1.398-4.183,2c-0.297,0.064-0.594,0.165-0.928,0.265c-1.781,0.495-3.964,0.867-6.621,1.151
					c2.87,2.298,6.187,5.567,5.505,8.488c-0.514,2.301-5.233,10.722-7.598,14.546c-0.155,0.253-0.389,0.65-0.735,1.117
					c-0.574,0.718-1.448,1.573-2.645,2.197c-3.439,1.73-5.978-0.558-7.821,0.708c-3.234,2.215-1.823,13.369,2.45,14.35
					c2.958,0.683,6.334-3.698,7.064-4.668c-0.061,3.088,0.177,6.001,0.716,8.741c0.026,0.332,0.09,0.628,0.153,0.961
					c0.543,2.592,1.277,4.97,2.238,7.134c0.101,0.298,0.24,0.559,0.377,0.858c0.482,1.045,1.04,2.019,1.635,2.958
					c0.176,0.263,0.351,0.526,0.527,0.79c2.18,3.159,4.866,5.452,7.919,6.615c0.363,0.159,0.727,0.281,1.128,0.404
					C338.2,352.396,341.202,352.822,345.326,351.555z"/>
				<path style="fill:#FFFFFF;" d="M345.326,351.555c0.004-23.284-0.03-46.533-0.063-69.783c-0.601-0.755-1.53-1.63-2.74-1.742
					c-1.943-0.209-3.545,1.579-4.077,2.114c-0.229,0.25-0.532,0.535-0.908,0.781c0.57,1.747,1.326,3.426,1.736,4.396
					c2.88,6.602,3.172,15.918,3.76,34.477c0.452,14.728,0.582,22.199-3.956,26.101c-0.984,0.852-2.599,1.904-3.939,3.553
					c0.363,0.159,0.727,0.281,1.128,0.404C338.2,352.396,341.202,352.822,345.326,351.555z"/>
				<g>
					<path style="fill:#FFFFFF;" d="M327.22,344.837c3.337-1.991,6.464-4.319,9.416-6.911c0.226-0.177,0.453-0.353,0.68-0.567
						c0.076-0.071,0.114-0.106,0.19-0.178c2.649-2.344,5.085-4.914,7.305-7.639c0.016-0.515,0.032-0.993,0.01-1.471
						c-2.224,2.835-4.699,5.479-7.388,7.931c-0.228,0.213-0.456,0.464-0.72,0.676c-0.076,0.071-0.114,0.107-0.188,0.141
						c-3.067,2.735-6.344,5.169-9.831,7.228C326.869,344.31,327.045,344.573,327.22,344.837z"/>
				</g>
				<g>
					<path style="fill:#FFFFFF;" d="M325.059,341.09c4.491-2.395,8.704-5.352,12.564-8.723c0.226-0.177,0.452-0.354,0.68-0.567
						c0.076-0.071,0.114-0.107,0.19-0.178c2.46-2.166,4.743-4.558,6.809-7.067c0.015-0.478-0.006-0.957,0.009-1.434
						c-2.106,2.618-4.391,5.047-6.891,7.322c-0.227,0.214-0.456,0.464-0.72,0.676c-0.076,0.071-0.114,0.107-0.188,0.141
						c-3.937,3.517-8.226,6.507-12.829,8.973C324.783,340.529,324.921,340.791,325.059,341.09z"/>
				</g>
				<g>
					<path style="fill:#FFFFFF;" d="M345.316,343.757c0.018-0.588,0-1.177,0.018-1.728c-4.35-6.649-6.79-13.201-7.361-19.546
						c-0.061-0.407-0.086-0.775-0.073-1.179c-0.081-0.922-0.088-1.842-0.059-2.761c0.069-2.168,0.349-4.035,0.597-6.051
						c0.575-4.212,1.155-8.571-0.058-14.385c-0.961-4.481-2.81-8.807-5.477-12.865c-0.297,0.064-0.594,0.165-0.928,0.265
						c2.705,4.022,4.553,8.348,5.479,12.791c1.219,5.63,0.64,9.952,0.067,14.091c-0.244,1.905-0.529,3.919-0.596,6.013
						c-0.04,1.25-0.041,2.464,0.066,3.718c0.024,0.405,0.05,0.737,0.112,1.107C337.811,329.908,340.573,336.764,345.316,343.757z"/>
				</g>
				<path style="fill:#FFFFFF;" d="M333.141,330.185c1.247,0.04,2.29-0.939,2.33-2.187c0.04-1.247-0.939-2.29-2.186-2.33
					c-1.247-0.04-2.291,0.939-2.33,2.186C330.914,329.102,331.893,330.146,333.141,330.185z"/>
				<g>
					<g>
						<path style="fill:#0606C6;" d="M338.442,282.628c-0.124,0-0.245-0.045-0.339-0.139c-0.188-0.188-0.192-0.493-0.004-0.681
							c0.5-0.515,1.339-1.372,2.41-1.872c0.229-0.117,0.526-0.011,0.639,0.233c0.113,0.241,0.008,0.526-0.233,0.639
							c-0.914,0.425-1.639,1.169-2.027,1.572C338.69,282.579,338.566,282.628,338.442,282.628z"/>
					</g>
					<g>
						<path style="fill:#0606C6;" d="M344.126,281.151c-0.102,0-0.199-0.03-0.286-0.094c-0.143-0.105-0.297-0.196-0.455-0.278
							c-0.237-0.12-0.331-0.41-0.211-0.646c0.124-0.241,0.425-0.331,0.647-0.211c0.21,0.105,0.41,0.226,0.59,0.361
							c0.214,0.162,0.259,0.462,0.101,0.673C344.419,281.083,344.273,281.151,344.126,281.151z"/>
					</g>
					<g>
						<path style="fill:#0606C6;" d="M343.45,352.518c-0.226,0-0.425-0.158-0.47-0.387c-0.053-0.259,0.113-0.515,0.376-0.564
							c0.489-0.101,0.989-0.222,1.485-0.368c0.004-23.107-0.03-46.181-0.064-69.255c-0.297-0.353-0.609-0.651-0.932-0.884
							c-0.214-0.154-0.263-0.455-0.109-0.673c0.154-0.218,0.451-0.263,0.673-0.109c0.432,0.312,0.846,0.715,1.226,1.2
							c0.067,0.082,0.105,0.188,0.105,0.297c0.034,23.258,0.068,46.501,0.064,69.781c0,0.21-0.135,0.395-0.338,0.458
							c-0.639,0.199-1.286,0.369-1.921,0.493C343.514,352.514,343.48,352.518,343.45,352.518z"/>
					</g>
					<g>
						<path style="fill:#0606C6;" d="M340.509,352.865c-0.259,0-0.474-0.207-0.481-0.47c-0.007-0.263,0.203-0.485,0.47-0.492
							c0.402-0.012,0.827-0.038,1.278-0.087c0.196-0.049,0.5,0.158,0.53,0.425c0.03,0.263-0.158,0.5-0.425,0.53
							c-0.474,0.057-0.929,0.083-1.361,0.094C340.517,352.865,340.513,352.865,340.509,352.865z"/>
					</g>
					<g>
						<path style="fill:#0606C6;" d="M338.001,352.721c-0.635-0.086-1.184-0.203-1.756-0.361c-0.124-0.034-0.271-0.109-0.338-0.181
							c-0.177-0.199-0.162-0.504,0.034-0.68c0.154-0.139,0.368-0.162,0.549-0.068c0.541,0.147,1.057,0.256,1.579,0.331
							c0.263,0.042,0.447,0.282,0.41,0.545C338.442,352.548,338.239,352.721,338.001,352.721z"/>
					</g>
				</g>
			</g>
			<g>
				<path style="fill:#FFA6AD;" d="M184.145,350.256c-0.142,1.25-1.02,2.173-1.753,2.765c-23.237-0.044-46.51-0.125-69.783-0.169
					c-1.305-4.112-0.877-7.092-0.334-8.969c2.611-8.174,13.652-13.885,28.432-14.208c2.132-0.083,4.338-0.019,6.618,0.154
					c0.294-0.001,0.588,0.034,0.882,0.033c1.765,0.102,3.494,0.205,5.222,0.308c8.017,0.443,15.997,0.885,23.978,1.328
					c0.038,0.331,0.04,0.661,0.078,0.956c0.038,0.22,0.038,0.404,0.076,0.625c0.423,4.079,1.134,7.017,1.989,9.109
					c0.409,1.064,0.891,1.945,1.372,2.641c0.37,0.55,0.74,1.026,1.109,1.392C182.585,346.733,184.357,348.343,184.145,350.256z"/>
				<path style="fill:#0606C6;" d="M112.611,352.855c2.611,0.018,5.186,0.034,7.799,0.015c0.588,0.02,1.177,0.004,1.728,0.023
					c5.849,0.021,11.661,0.04,17.474,0.022c0.478,0.017,0.957-0.003,1.434,0.013c2.759-0.014,5.518,0.009,8.277-0.005
					c0.515,0.018,0.992,0.035,1.471,0.015c10.557,0.038,21.077,0.075,31.599,0.075c0.756-0.599,1.635-1.525,1.751-2.735
					c0.215-1.942-1.568-3.55-2.101-4.084c-0.25-0.229-0.533-0.533-0.778-0.91c-0.105-0.151-0.21-0.302-0.315-0.452
					c-0.702-0.981-1.39-2.329-1.987-4.19c-0.064-0.297-0.163-0.594-0.262-0.929c-0.489-1.783-0.855-3.966-1.129-6.625
					c-2.307,2.863-5.587,6.169-8.506,5.479c-2.3-0.522-10.705-5.267-14.522-7.645c-0.252-0.156-0.649-0.391-1.115-0.738
					c-0.716-0.577-1.568-1.453-2.188-2.652c-1.719-3.445,0.577-5.976-0.683-7.823c-2.204-3.241-13.363-1.865-14.358,2.404
					c-0.692,2.956,3.678,6.346,4.645,7.079c-3.088-0.071-6.002,0.158-8.743,0.688c-0.332,0.025-0.628,0.088-0.962,0.15
					c-2.594,0.535-4.974,1.261-7.141,2.215c-0.298,0.1-0.56,0.238-0.859,0.375c-1.047,0.479-2.023,1.033-2.963,1.625
					c-0.264,0.175-0.528,0.35-0.791,0.524c-3.166,2.17-5.467,4.849-6.64,7.898c-0.16,0.363-0.283,0.726-0.407,1.126
					C111.793,345.726,111.357,348.727,112.611,352.855z"/>
				<path style="fill:#FFFFFF;" d="M112.611,352.855c23.284,0.078,46.533,0.118,69.782,0.159c0.756-0.599,1.635-1.525,1.751-2.735
					c0.215-1.942-1.568-3.55-2.101-4.084c-0.25-0.229-0.533-0.533-0.778-0.91c-1.749,0.564-3.43,1.315-4.401,1.723
					c-6.612,2.859-15.928,3.122-34.488,3.65c-14.729,0.405-22.201,0.511-26.089-4.039c-0.849-0.986-1.896-2.605-3.541-3.95
					c-0.16,0.363-0.283,0.726-0.407,1.126C111.793,345.726,111.357,348.727,112.611,352.855z"/>
				<g>
					<path style="fill:#FFFFFF;" d="M119.387,334.771c1.98,3.343,4.299,6.478,6.881,9.438c0.176,0.227,0.352,0.454,0.565,0.682
						c0.071,0.076,0.106,0.114,0.177,0.19c2.335,2.657,4.899,5.101,7.617,7.33c0.514,0.018,0.992,0.035,1.471,0.015
						c-2.829-2.232-5.464-4.716-7.908-7.413c-0.213-0.228-0.462-0.458-0.674-0.723c-0.071-0.076-0.106-0.114-0.14-0.189
						c-2.725-3.075-5.149-6.36-7.197-9.853C119.914,334.421,119.65,334.596,119.387,334.771z"/>
				</g>
				<g>
					<path style="fill:#FFFFFF;" d="M123.141,332.621c2.381,4.498,5.324,8.721,8.683,12.591c0.176,0.227,0.352,0.454,0.565,0.682
						c0.071,0.076,0.106,0.114,0.178,0.19c2.158,2.467,4.542,4.758,7.045,6.832c0.478,0.017,0.957-0.003,1.434,0.013
						c-2.612-2.115-5.033-4.407-7.3-6.914c-0.213-0.228-0.462-0.458-0.674-0.723c-0.071-0.076-0.107-0.114-0.141-0.189
						c-3.504-3.949-6.481-8.246-8.931-12.857C123.702,332.347,123.44,332.484,123.141,332.621z"/>
				</g>
				<g>
					<path style="fill:#FFFFFF;" d="M120.41,352.87c0.588,0.02,1.177,0.004,1.728,0.023c6.663-4.329,13.222-6.748,19.57-7.299
						c0.406-0.059,0.775-0.084,1.18-0.069c0.923-0.078,1.842-0.083,2.761-0.05c2.168,0.076,4.034,0.362,6.049,0.616
						c4.21,0.589,8.567,1.182,14.385-0.012c4.484-0.947,8.816-2.782,12.882-5.435c-0.064-0.297-0.163-0.594-0.262-0.929
						c-4.03,2.692-8.362,4.527-12.809,5.438c-5.634,1.201-9.954,0.609-14.091,0.023c-1.904-0.251-3.918-0.542-6.012-0.615
						c-1.249-0.044-2.463-0.049-3.717,0.054c-0.406,0.023-0.738,0.048-1.108,0.109C134.282,345.409,127.417,348.149,120.41,352.87z"
						/>
				</g>
				<path style="fill:#FFFFFF;" d="M134.019,340.738c-0.043,1.247,0.932,2.294,2.179,2.337c1.247,0.043,2.294-0.932,2.337-2.18
					c0.043-1.247-0.932-2.293-2.179-2.337C135.109,338.515,134.063,339.491,134.019,340.738z"/>
				<g>
					<g>
						<path style="fill:#0606C6;" d="M183.81,348.947c-0.18,0-0.353-0.102-0.436-0.278c-0.421-0.899-1.154-1.624-1.545-2.012
							c-0.316-0.316-0.312-0.62-0.124-0.808c0.188-0.188,0.492-0.184,0.68,0.004c0.557,0.552,1.369,1.353,1.861,2.41
							c0.113,0.241,0.008,0.527-0.233,0.639C183.949,348.932,183.878,348.947,183.81,348.947z"/>
					</g>
					<g>
						<path style="fill:#0606C6;" d="M183.502,352.364c-0.098,0-0.192-0.03-0.278-0.087c-0.218-0.154-0.267-0.455-0.117-0.673
							c0.105-0.147,0.203-0.301,0.286-0.462c0.124-0.241,0.429-0.335,0.647-0.211c0.237,0.12,0.331,0.41,0.211,0.647
							c-0.105,0.207-0.226,0.398-0.354,0.582C183.803,352.293,183.652,352.364,183.502,352.364z"/>
					</g>
					<g>
						<path style="fill:#0606C6;" d="M182.393,353.492l-5.82-0.011c-21.311-0.038-42.624-0.075-63.965-0.147
							c-0.214,0-0.398-0.139-0.462-0.342c-0.199-0.669-0.361-1.316-0.481-1.922c-0.053-0.259,0.113-0.515,0.376-0.564
							c0.248-0.06,0.511,0.117,0.564,0.376c0.098,0.474,0.218,0.974,0.365,1.489c21.22,0.072,42.414,0.109,63.604,0.147l5.651,0.011
							c0.361-0.301,0.658-0.613,0.887-0.929c0.154-0.218,0.451-0.263,0.673-0.109c0.214,0.158,0.263,0.459,0.109,0.673
							c-0.312,0.429-0.714,0.839-1.203,1.222C182.607,353.455,182.502,353.492,182.393,353.492z"/>
					</g>
					<g>
						<path style="fill:#0606C6;" d="M111.882,349.838c-0.244,0-0.451-0.184-0.477-0.432c-0.053-0.474-0.079-0.925-0.09-1.357
							c-0.008-0.263,0.203-0.485,0.47-0.493c0.305,0.004,0.485,0.203,0.493,0.47c0.011,0.402,0.037,0.831,0.082,1.282
							c0.03,0.263-0.161,0.5-0.428,0.526C111.916,349.838,111.897,349.838,111.882,349.838z"/>
					</g>
					<g>
						<path style="fill:#0606C6;" d="M111.95,346.007c-0.335-0.045-0.515-0.29-0.477-0.553c0.086-0.568,0.207-1.12,0.361-1.681
							c0.008-0.113,0.083-0.241,0.162-0.323c0.188-0.188,0.496-0.188,0.685,0c0.158,0.162,0.18,0.41,0.067,0.594
							c-0.143,0.572-0.244,1.057-0.319,1.553C112.39,345.837,112.183,346.007,111.95,346.007z"/>
					</g>
				</g>
			</g>
			<g>
				<path style="fill:#0606C6;" d="M180.279,275.274c-0.158,0-0.312-0.079-0.406-0.222l-6.61-10.309
					c-0.143-0.222-0.079-0.523,0.147-0.666c0.218-0.132,0.519-0.075,0.665,0.147l6.61,10.309c0.143,0.222,0.079,0.523-0.147,0.666
					C180.46,275.248,180.37,275.274,180.279,275.274z"/>
			</g>
			<g>
				<path style="fill:#0606C6;" d="M256.701,320.936c-0.327-0.042-0.512-0.282-0.478-0.545l0.993-7.23
					c0.038-0.267,0.32-0.459,0.542-0.414c0.263,0.038,0.447,0.278,0.413,0.542l-0.992,7.23
					C257.144,320.764,256.938,320.936,256.701,320.936z"/>
			</g>
			<path style="fill:#FFA6AD;" d="M225.075,300.791v11.728c0.294,1.25,0.588,2.537,0.845,3.787c0.295,0.441,0.552,0.919,0.772,1.361
				c0.441,0.735,0.846,1.434,1.287,2.206c0.405,0.662,0.772,1.361,1.177,2.059c0.294,0.478,0.552,0.993,0.882,1.507
				c6.214-8.787,12.427-17.537,18.677-26.287C240.811,298.364,232.943,299.577,225.075,300.791z"/>
			<path style="fill:#0606C6;" d="M207.388,282.572c0.036,0.074,0.073,0.184,0.11,0.257c0.074,0.147,0.11,0.258,0.184,0.405
				c0.147,0.368,0.331,0.735,0.514,1.103c0.405,0.992,0.846,1.985,1.324,2.978c0.257,0.625,0.367,0.882,0.514,1.14
				c0.111,0.294,0.184,0.478,0.294,0.735c0.441,0.956,0.846,1.875,1.213,2.794c0.11,0.184,0.184,0.331,0.257,0.515
				c0.184,0.441,0.368,0.845,0.551,1.25c0.295,0.588,0.552,1.213,0.809,1.838c0.331,0.698,0.662,1.434,0.992,2.169
				c0.368,0.809,0.735,1.618,1.103,2.464c0.294,0.662,0.588,1.323,0.883,1.985c0.368,0.846,0.735,1.691,1.14,2.537
				c0.257,0.625,0.551,1.25,0.845,1.912c0.331,0.735,0.662,1.507,0.993,2.279c0.404,0.882,0.809,1.765,1.177,2.647
				c0.184,0.368,0.331,0.698,0.515,1.103c0.147,0.368,0.331,0.735,0.478,1.103c0.221,0.478,0.405,0.956,0.625,1.434
				c0.441,0.956,0.845,1.875,1.25,2.831c0.221,0.441,0.405,0.845,0.589,1.287c0.404-0.367,0.846-0.735,1.25-1.103
				c0.441-0.405,0.883-0.809,1.324-1.177c0.956-0.882,1.949-1.728,2.905-2.574c0.404-0.368,0.809-0.735,1.213-1.103
				c0.515-0.441,1.029-0.919,1.544-1.36c0.11-0.111,0.184-0.184,0.294-0.294c1.765-1.544,3.493-3.089,5.221-4.633
				c0.258-0.22,0.478-0.441,0.735-0.625c3.456-3.089,6.949-6.177,10.405-9.302c0.551-0.441,0.993-0.882,1.471-1.287
				c-3.53-8.273-7.096-16.618-10.626-24.928c-0.074-0.147-0.11-0.257-0.184-0.404c-0.625,0.11-1.03,0.294-1.434,0.441
				c-1.066,0.404-2.132,0.772-3.162,1.177c-0.405,0.147-0.809,0.331-1.214,0.478c-7.279,2.757-14.522,5.515-21.766,8.272
				C210.293,281.469,208.822,282.02,207.388,282.572z"/>
			<path style="fill:#FFA6AD;" d="M188.566,278.805c3.015,1.434,6.03,2.868,9.008,4.338c0.331-9.302,0.625-18.64,0.956-27.979
				c-1.912-2.206-3.823-4.412-5.735-6.618C191.361,258.62,189.964,268.694,188.566,278.805z"/>
			<path style="fill:#0606C6;" d="M192.792,247.35v1.213c0.037,3.824,0.074,7.647,0.111,11.471c0,0.772,0,1.545,0.037,2.316
				c0.037,6.214,0.073,12.427,0.147,18.641v2.427c0.037,0.772,0.037,1.544,0.037,2.316c1.581,0.588,3.125,1.14,4.706,1.728
				c0.294,0.111,0.478,0.147,0.662,0.221c0.625,0.221,1.25,0.441,1.875,0.698c0.625,0.221,1.214,0.441,1.838,0.662
				c0.368,0.111,0.699,0.258,1.066,0.368c0.735,0.294,1.507,0.551,2.243,0.845c0.294,0.074,0.588,0.184,0.882,0.294
				c0.735,0.294,1.508,0.551,2.243,0.809c0.405,0.147,0.809,0.294,1.214,0.441c0.625,0.221,1.213,0.441,1.838,0.661
				c0.367,0.147,0.588,0.221,0.845,0.331c0.257,0.074,0.515,0.184,0.772,0.294c0.478,0.147,0.809,0.294,1.176,0.405
				c2.978,1.103,5.993,2.169,8.971,3.272c0.147,0.037,0.221,0.074,0.331,0.11c0.184-0.294,0.368-0.625,0.551-0.919
				c0.147-0.258,0.295-0.515,0.441-0.772l0.772-1.324c0.294-0.478,0.551-0.956,0.845-1.434c0.368-0.625,0.735-1.25,1.103-1.875
				c0.147-0.258,0.294-0.515,0.441-0.772c2.831-4.816,5.662-9.633,8.493-14.486c0.846-1.434,1.654-2.868,2.5-4.302
				c0.11-0.147,0.184-0.294,0.257-0.441c-14.192-7.169-28.42-14.228-42.649-21.325c-0.478-0.221-0.919-0.478-1.397-0.698
				C194.373,248.122,193.564,247.754,192.792,247.35z"/>
			<g>
				<path style="fill:#FFFFFF;" d="M212.888,293.983c-0.121,0-0.245-0.045-0.338-0.139c-0.188-0.188-0.192-0.493-0.004-0.681
					l22.288-22.596c0.188-0.184,0.489-0.196,0.68-0.004c0.188,0.188,0.192,0.492,0.004,0.681L213.23,293.84
					C213.136,293.934,213.012,293.983,212.888,293.983z"/>
			</g>
			<path style="fill:#FFA6AD;" d="M293.028,115.909c1.672,8.468,3.11,20.892,1.211,35.654c-1.506,11.71-4.65,21.312-7.559,28.322
				c-2.636,6.354-7.63,5.312-8.426,5.275c-3.974-0.187-7.71-4.178-9.571-10.035c2.64-20.277,5.281-40.554,7.921-60.831
				L293.028,115.909z"/>
			<g>
				<g>
					<path style="fill:#FFA6AD;" d="M277.606,116.962l1.42-0.735c0.635-0.329,0.883-1.11,0.554-1.744l-3.514-6.787
						c-0.329-0.635-1.11-0.883-1.745-0.554l-1.419,0.735c-0.635,0.328-0.883,1.11-0.554,1.744l3.514,6.787
						C276.191,117.043,276.971,117.291,277.606,116.962z"/>
					<path style="fill:#FFA6AD;" d="M278.643,122.079c5.081,0.133,10.162,0.265,15.243,0.398c0.932-2.401,2.443-7.383,0.757-12.55
						c-0.46-1.409-0.828-3.741-2.813-4.41c-1.675-0.564-3.822-1.028-6.324-0.981c-2.483,0.047-4.583,0.584-6.187,1.184
						c-1.557,0.582-2.575,2.074-2.653,3.734C277.325,113.662,277.984,117.87,278.643,122.079z"/>
				</g>
				<path style="fill:#0606C6;" d="M250.947,117.119h68.035c0.599,0,1.089-0.49,1.089-1.089v-3.796c0-0.599-0.49-1.089-1.089-1.089
					h-68.035c-0.599,0-1.089,0.49-1.089,1.089v3.796C249.858,116.629,250.348,117.119,250.947,117.119z"/>
				<g>
					<path style="fill:#FFC022;" d="M303.969,96.496v4.022h3.613c1.723,0,3.119,1.396,3.119,3.119v0.946
						c0,1.723,1.397,3.119,3.12,3.119c1.723,0,3.12,1.397,3.12,3.12v6.941c0,1.723-1.397,3.12-3.12,3.12
						c-1.723,0-3.12,1.397-3.12,3.12v0.945c0,1.723-1.396,3.12-3.119,3.12h-3.613v4.022h-3.997c-1.723,0-3.12-1.397-3.12-3.12
						V99.616c0-1.723,1.397-3.12,3.12-3.12H303.969z"/>
					<g>
						<path style="fill:#FFFFFF;" d="M310.702,121.364c-0.267,0-0.481-0.215-0.481-0.481v-13.178c0-0.267,0.215-0.481,0.481-0.481
							c0.267,0,0.481,0.214,0.481,0.481v13.178C311.183,121.15,310.969,121.364,310.702,121.364z"/>
					</g>
					<g>
						<path style="fill:#FFFFFF;" d="M303.968,128.899c-0.267,0-0.481-0.214-0.481-0.481V100.52c0-0.267,0.214-0.481,0.481-0.481
							c0.267,0,0.481,0.215,0.481,0.481v27.897C304.45,128.684,304.235,128.899,303.968,128.899z"/>
					</g>
				</g>
				<g>
					<path style="fill:#FFC022;" d="M264.286,96.496v4.022h-3.613c-1.723,0-3.119,1.396-3.119,3.119v0.946
						c0,1.723-1.397,3.119-3.12,3.119c-1.723,0-3.12,1.397-3.12,3.12v6.941c0,1.723,1.397,3.12,3.12,3.12
						c1.723,0,3.12,1.397,3.12,3.12v0.945c0,1.723,1.396,3.12,3.119,3.12h3.613v4.022h3.997c1.723,0,3.119-1.397,3.119-3.12V99.616
						c0-1.723-1.396-3.12-3.119-3.12H264.286z"/>
					<g>
						<path style="fill:#FFFFFF;" d="M257.554,121.364c-0.267,0-0.481-0.215-0.481-0.481v-13.178c0-0.267,0.215-0.481,0.481-0.481
							c0.267,0,0.481,0.214,0.481,0.481v13.178C258.035,121.15,257.821,121.364,257.554,121.364z"/>
					</g>
					<g>
						<path style="fill:#FFFFFF;" d="M264.288,128.899c-0.267,0-0.481-0.214-0.481-0.481V100.52c0-0.267,0.214-0.481,0.481-0.481
							c0.267,0,0.481,0.215,0.481,0.481v27.897C264.769,128.684,264.555,128.899,264.288,128.899z"/>
					</g>
				</g>
				<g>
					<path style="fill:#FFA6AD;" d="M289.022,111.406c0.066,0.092,0.75,1.026,2.064,1.101c0.961,0.055,1.889-0.37,2.41-1.101
						c0-1.568,0-3.135,0-4.703c-1.491-0.141-2.982-0.283-4.473-0.424V111.406z"/>
					<path style="fill:#FFA6AD;" d="M284.254,111.406c0.065,0.092,0.75,1.026,2.064,1.101c0.961,0.055,1.888-0.37,2.41-1.101
						c0-1.568,0-3.135,0-4.703c-1.491-0.141-2.982-0.283-4.473-0.424V111.406z"/>
					<path style="fill:#FFA6AD;" d="M279.78,111.406c0.065,0.092,0.75,1.026,2.064,1.101c0.961,0.055,1.888-0.37,2.41-1.101
						c0-1.568,0-3.135,0-4.703c-1.491-0.141-2.982-0.283-4.473-0.424V111.406z"/>
					<path style="fill:#FFA6AD;" d="M277.201,111.918c0.172,0.172,0.546,0.49,1.112,0.589c0.874,0.151,1.842-0.283,2.41-1.101
						c0-1.568,0-3.135,0-4.703c-0.934-0.027-1.868-0.054-2.801-0.082c-0.326,0.35-1.567,1.766-1.321,3.653
						C276.692,110.971,276.959,111.529,277.201,111.918z"/>
					<g>
						<path style="fill:#0606C6;" d="M288.839,110.743c-0.263,0-0.485-0.214-0.485-0.477l-0.019-3.2
							c0-0.267,0.214-0.485,0.477-0.485c0.267,0,0.485,0.214,0.485,0.477l0.018,3.2
							C289.316,110.525,289.102,110.743,288.839,110.743z"/>
					</g>
					<g>
						<path style="fill:#0606C6;" d="M284.252,111.175c-0.259,0-0.474-0.207-0.481-0.466l-0.109-3.782
							c-0.008-0.267,0.203-0.489,0.466-0.496c0.274,0,0.489,0.207,0.496,0.466l0.109,3.782c0.008,0.267-0.203,0.489-0.466,0.496
							H284.252z"/>
					</g>
					<g>
						<path style="fill:#0606C6;" d="M280.251,111.367c-0.278-0.008-0.488-0.229-0.481-0.493l0.105-3.974
							c0.007-0.263,0.222-0.47,0.481-0.47c0.278,0.007,0.489,0.229,0.481,0.492l-0.105,3.974
							C280.725,111.16,280.511,111.367,280.251,111.367z"/>
					</g>
					<g>
						<path style="fill:#0606C6;" d="M293.494,110.886c-0.267,0-0.481-0.214-0.481-0.481v-2.824c0-0.267,0.214-0.481,0.481-0.481
							c0.267,0,0.481,0.215,0.481,0.481v2.824C293.975,110.671,293.76,110.886,293.494,110.886z"/>
					</g>
					<g>
						<path style="fill:#0606C6;" d="M276.507,110.822c-0.203,0-0.391-0.128-0.459-0.335c-0.052-0.165-0.09-0.342-0.105-0.515
							c-0.041-0.481,0.075-0.966,0.338-1.414c0.128-0.229,0.421-0.308,0.658-0.169c0.23,0.131,0.305,0.428,0.169,0.658
							c-0.162,0.274-0.233,0.56-0.207,0.842c0.012,0.121,0.042,0.233,0.064,0.305c0.083,0.252-0.056,0.522-0.312,0.605
							C276.605,110.814,276.556,110.822,276.507,110.822z"/>
					</g>
				</g>
			</g>
			<path style="fill:#FFFFFF;" d="M208.572,206.919c-2.735-0.388-5.47-0.775-8.205-1.163c1.924-8.317,3.848-16.634,5.772-24.951
				c4.591,2.228,9.183,4.455,13.774,6.682c-0.964,1.831-1.209,3.004-0.737,3.519c0.945,1.03,4.766-0.578,11.463-4.823
				c7.573-3.261,15.147-6.522,22.72-9.783c1.924,8.317,3.848,16.634,5.772,24.951c-7.425,1.052-14.851,2.104-22.276,3.157
				c0.394,6.85,1.476,15.064,4.067,24.129c4.895,17.126,12.983,29.746,19.082,37.667c-4.348,1.948-16.956,6.911-32.716,3.542
				c-19.379-4.143-29.763-17.943-32.161-21.316C197.982,232.253,202.785,218.543,208.572,206.919z"/>
			<g>
				<path style="fill:#0606C6;" d="M244.606,271.067c-0.241,0-0.448-0.177-0.478-0.421c-0.034-0.263,0.154-0.504,0.417-0.538
					c0.906-0.113,1.786-0.244,2.636-0.395c0.248-0.038,0.507,0.128,0.556,0.391c0.045,0.263-0.128,0.511-0.391,0.556
					c-0.865,0.151-1.76,0.289-2.681,0.402C244.643,271.067,244.624,271.067,244.606,271.067z"/>
			</g>
			<g>
				<path style="fill:#0606C6;" d="M250.113,270.093c-0.218,0-0.417-0.15-0.47-0.372c-0.06-0.259,0.102-0.519,0.361-0.579
					c0.775-0.177,1.515-0.368,2.222-0.56c0.271-0.094,0.523,0.079,0.591,0.335c0.071,0.256-0.079,0.522-0.335,0.59
					c-0.722,0.199-1.47,0.391-2.26,0.575C250.185,270.09,250.147,270.093,250.113,270.093z"/>
			</g>
			<g>
				<path style="fill:#0606C6;" d="M253.422,269.221c-0.207,0-0.398-0.135-0.462-0.342c-0.076-0.256,0.071-0.526,0.323-0.602
					c0.978-0.289,1.876-0.586,2.692-0.88c0.252-0.09,0.526,0.045,0.616,0.293c0.087,0.252-0.041,0.526-0.293,0.617
					c-0.831,0.293-1.745,0.597-2.737,0.895C253.512,269.213,253.467,269.221,253.422,269.221z"/>
			</g>
			<g>
				<path style="fill:#0606C6;" d="M257.746,267.732c-0.192,0-0.372-0.116-0.448-0.305c-0.098-0.248,0.023-0.526,0.271-0.624
					c0.636-0.248,1.196-0.481,1.681-0.692c-2.395-3.143-4.636-6.422-6.662-9.745c-0.139-0.229-0.068-0.522,0.158-0.662
					c0.23-0.139,0.526-0.064,0.662,0.158c2.117,3.47,4.463,6.884,6.974,10.148c0.09,0.117,0.124,0.267,0.087,0.41
					c-0.034,0.143-0.135,0.26-0.267,0.323c-0.605,0.271-1.368,0.598-2.278,0.955C257.862,267.721,257.806,267.732,257.746,267.732z"
					/>
			</g>
			<g>
				<path style="fill:#0606C6;" d="M251.794,254.584c-0.165,0-0.327-0.087-0.417-0.241c-0.331-0.571-0.661-1.154-0.996-1.744
					c-0.128-0.233-0.046-0.526,0.184-0.658c0.233-0.132,0.526-0.042,0.658,0.184c0.327,0.591,0.658,1.166,0.989,1.737
					c0.132,0.229,0.053,0.523-0.177,0.658C251.959,254.561,251.877,254.584,251.794,254.584z"/>
			</g>
			<g>
				<path style="fill:#0606C6;" d="M249.659,250.745c-0.173,0-0.338-0.094-0.425-0.256c-3.681-6.925-6.632-14.231-8.775-21.72
					c-1.301-4.545-2.316-9.227-3.019-13.911c-0.037-0.263,0.143-0.507,0.406-0.549c0.263-0.027,0.507,0.147,0.549,0.406
					c0.695,4.643,1.699,9.283,2.989,13.791c2.124,7.422,5.053,14.667,8.7,21.532c0.124,0.233,0.038,0.527-0.199,0.651
					C249.813,250.727,249.734,250.745,249.659,250.745z"/>
			</g>
			<g>
				<path style="fill:#0606C6;" d="M237.624,213.193c-0.241,0-0.447-0.177-0.477-0.421c-0.105-0.816-0.203-1.62-0.286-2.41
					c-0.03-0.263,0.162-0.5,0.429-0.526c0.259-0.072,0.5,0.165,0.526,0.428c0.083,0.782,0.181,1.579,0.286,2.387
					c0.034,0.263-0.151,0.504-0.417,0.538C237.665,213.193,237.642,213.193,237.624,213.193z"/>
			</g>
			<g>
				<path style="fill:#0606C6;" d="M237.116,208.553c-0.248,0-0.459-0.188-0.477-0.44c-0.113-1.229-0.199-2.421-0.267-3.576
					c-0.015-0.252,0.165-0.47,0.413-0.508l11.622-1.647c0.241-0.045,0.507,0.147,0.545,0.41c0.037,0.263-0.147,0.507-0.41,0.545
					l-11.182,1.583c0.064,1.008,0.139,2.045,0.233,3.109c0.026,0.263-0.169,0.496-0.436,0.523
					C237.142,208.553,237.131,208.553,237.116,208.553z"/>
			</g>
			<g>
				<path style="fill:#0606C6;" d="M250.565,203.045c-0.237,0-0.444-0.177-0.477-0.417c-0.034-0.263,0.15-0.504,0.413-0.541
					l1.733-0.244c0.241-0.045,0.507,0.147,0.545,0.41c0.038,0.263-0.147,0.508-0.41,0.545l-1.741,0.244
					C250.606,203.045,250.587,203.045,250.565,203.045z"/>
			</g>
			<g>
				<path style="fill:#0606C6;" d="M254.392,202.504c-0.237,0-0.444-0.173-0.477-0.414c-0.037-0.263,0.147-0.507,0.41-0.545
					l4.218-0.594l-0.598-2.586c-0.06-0.259,0.102-0.519,0.361-0.579c0.286-0.06,0.519,0.105,0.579,0.361l0.715,3.098
					c0.03,0.132,0.004,0.271-0.075,0.383c-0.076,0.109-0.196,0.184-0.327,0.203l-4.738,0.669
					C254.437,202.504,254.415,202.504,254.392,202.504z"/>
			</g>
			<g>
				<path style="fill:#0606C6;" d="M233.725,185.186c-0.188,0-0.365-0.109-0.444-0.293c-0.101-0.244,0.011-0.526,0.256-0.631
					l19.633-8.305c0.244-0.098,0.526,0.011,0.631,0.256c0.102,0.244-0.011,0.526-0.256,0.631l-19.633,8.306
					C233.853,185.175,233.789,185.186,233.725,185.186z"/>
			</g>
			<g>
				<path style="fill:#0606C6;" d="M217.347,186.029c-0.064,0-0.128-0.012-0.188-0.038l-10.151-4.294
					c-0.244-0.105-0.357-0.387-0.256-0.632c0.105-0.244,0.398-0.353,0.632-0.256l10.151,4.293c0.244,0.105,0.357,0.387,0.256,0.632
					C217.712,185.919,217.535,186.029,217.347,186.029z"/>
			</g>
			<g>
				<path style="fill:#0606C6;" d="M202.443,206.531c-0.068-0.004-2.143-0.297-2.143-0.297c-0.131-0.019-0.252-0.094-0.331-0.207
					c-0.075-0.109-0.102-0.248-0.072-0.38l0.451-1.952c0.061-0.256,0.305-0.417,0.579-0.361c0.26,0.06,0.421,0.32,0.361,0.579
					l-0.335,1.44l1.557,0.218c0.263,0.038,0.447,0.282,0.41,0.545C202.887,206.357,202.68,206.531,202.443,206.531z"/>
			</g>
			<g>
				<path style="fill:#0606C6;" d="M199.037,232.007c-0.387-0.094-0.538-0.361-0.462-0.613c2.425-8.415,5.546-16.517,9.271-24.092
					l-2.809-0.395c-0.263-0.037-0.447-0.282-0.41-0.545c0.037-0.263,0.286-0.455,0.545-0.41l3.467,0.489
					c0.154,0.023,0.286,0.117,0.357,0.252c0.072,0.139,0.076,0.301,0.008,0.44c-3.835,7.696-7.031,15.949-9.505,24.525
					C199.439,231.871,199.247,232.007,199.037,232.007z"/>
			</g>
			<g>
				<path style="fill:#0606C6;" d="M197.27,238.695c-0.372-0.075-0.53-0.335-0.466-0.594c0.35-1.451,0.714-2.88,1.094-4.286
					c0.072-0.256,0.339-0.41,0.59-0.342c0.26,0.072,0.41,0.335,0.342,0.59c-0.38,1.399-0.745,2.82-1.094,4.264
					C197.684,238.549,197.488,238.695,197.27,238.695z"/>
			</g>
			<g>
				<path style="fill:#0606C6;" d="M195.98,244.512c-0.357-0.06-0.523-0.316-0.47-0.575c0.166-0.827,0.338-1.65,0.515-2.459
					c0.056-0.26,0.316-0.425,0.571-0.368c0.259,0.057,0.425,0.312,0.368,0.571c-0.177,0.809-0.35,1.624-0.515,2.444
					C196.405,244.354,196.206,244.512,195.98,244.512z"/>
			</g>
			<g>
				<path style="fill:#0606C6;" d="M195.127,249.012c-0.346-0.052-0.519-0.305-0.474-0.564c0.139-0.79,0.278-1.564,0.425-2.342
					c0.053-0.259,0.297-0.421,0.564-0.383c0.26,0.049,0.432,0.301,0.383,0.564c-0.147,0.771-0.286,1.545-0.425,2.327
					C195.559,248.847,195.356,249.012,195.127,249.012z"/>
			</g>
			<g>
				<path style="fill:#0606C6;" d="M270.619,174.26c-0.173,0-0.338-0.094-0.425-0.256l-1.413-2.651
					c-0.124-0.233-0.038-0.526,0.199-0.65c0.237-0.124,0.526-0.03,0.651,0.2l1.413,2.65c0.124,0.233,0.038,0.527-0.199,0.651
					C270.773,174.241,270.694,174.26,270.619,174.26z"/>
			</g>
			<g>
				<path style="fill:#FFFFFF;" d="M218.89,159.492c-0.294,0.882,0.993,2.096,1.912,2.647l0.184,0.073
					c0.993,0.552,2.721,1.066,3.383,0.295c0.441-0.551,0.331-1.544-0.147-2.427c-0.257-0.441-0.588-0.809-0.993-1.103
					c-0.294-0.221-0.625-0.405-0.993-0.478c-1.25-0.331-2.647,0.037-3.162,0.698C218.963,159.271,218.927,159.382,218.89,159.492z"
					/>
				<path style="fill:#0606C6;" d="M219.074,159.197c0.111,1.03,1.287,1.802,2.758,1.802c0.993,0,1.875-0.368,2.39-0.919
					c-0.257-0.441-0.588-0.809-0.993-1.103c-0.294-0.221-0.625-0.405-0.993-0.478C220.985,158.168,219.589,158.536,219.074,159.197z
					"/>
			</g>
			<path style="fill:#0606C6;" d="M219.781,153.652c4.926,4.89,9.816,9.706,14.743,14.596c0.441-0.772,0.735-1.361,0.993-1.986
				c2.537-5.772,1.471-12.022-2.647-14.816l-0.515-0.294c-2.61-1.508-5.772-1.434-8.713-0.111
				C222.281,151.667,220.958,152.549,219.781,153.652z"/>
			<path style="fill:#0606C6;" d="M209.278,143.118l18.057,18.057c0.403,0.403,1.055,0.403,1.458,0
				c0.479-0.479,0.479-1.132,0.076-1.534l-18.057-18.057c-0.403-0.403-1.055-0.403-1.458,0
				C208.875,142.062,208.875,142.715,209.278,143.118z"/>
			<path style="fill:#FFA6AD;" d="M228.805,164.919c-0.459,1.518,0.281,3.086,1.653,3.5c1.372,0.415,2.856-0.48,3.315-1.998
				c0.459-1.518-0.281-3.086-1.653-3.5C230.749,162.506,229.265,163.401,228.805,164.919z"/>
		</g>
		<g>
			<path style="fill:#FFFFFF;" d="M216.139,302.205c0.368,0.846,0.735,1.691,1.14,2.537c0.11-0.037,0.184-0.111,0.294-0.221
				c0.294-0.295,0.294-0.625,0.405-0.956c-0.147-0.515-0.258-1.03-0.846-1.324C216.801,302.058,216.469,302.094,216.139,302.205z"/>
			<path style="fill:#FFFFFF;" d="M218.124,306.654c0.331,0.735,0.662,1.507,0.993,2.279c0.037-0.073,0.11-0.11,0.184-0.147
				c0.037-0.441,0.147-0.809,0.037-1.176c-0.147-0.368-0.404-0.625-0.698-0.809C218.491,306.727,218.308,306.69,218.124,306.654z"/>
			<path style="fill:#FFFFFF;" d="M214.153,297.756c0.368,0.809,0.735,1.618,1.103,2.464c0.221-0.074,0.441-0.147,0.662-0.294
				c0.11-0.184,0.221-0.405,0.294-0.625c0.074-0.111,0.147-0.221,0.184-0.331c-0.074-0.331-0.147-0.699-0.331-1.03
				c-0.257-0.147-0.552-0.257-0.846-0.404C214.815,297.498,214.484,297.609,214.153,297.756z"/>
			<path style="fill:#FFFFFF;" d="M220.293,311.58c0.184,0.368,0.331,0.698,0.515,1.103c0-0.147,0-0.331-0.074-0.515
				C220.624,311.911,220.477,311.727,220.293,311.58z"/>
			<path style="fill:#FFFFFF;" d="M220.884,305.32c-0.086-0.957-0.422-1.449-1.124-1.59c-0.332-0.067-0.657,0.072-0.954,0.206
				c-0.385,0.174-0.473,0.591-0.656,0.921c0.085,0.941,0.423,1.423,1.122,1.577c0.123,0.027,0.268,0.019,0.387-0.021
				c0.254-0.086,0.518-0.132,0.746-0.315C220.673,305.881,220.692,305.544,220.884,305.32z"/>
			<path style="fill:#FFFFFF;" d="M216.735,300.523c0.237,1.026,0.753,1.202,1.382,1.266c0.353,0.036,0.691-0.163,0.964-0.444
				c0.262-0.27,0.287-0.613,0.38-0.965c-0.238-1.026-0.753-1.202-1.382-1.266c-0.353-0.036-0.691,0.163-0.964,0.444
				C216.853,299.828,216.827,300.171,216.735,300.523z"/>
			<path style="fill:#FFFFFF;" d="M222.276,309.935c0.111-0.512-0.038-0.945-0.4-1.292c-0.151-0.144-0.346-0.308-0.536-0.33
				c-0.669-0.076-1.314,0.079-1.638,0.956c-0.112,0.512,0.037,0.946,0.4,1.292c0.15,0.144,0.346,0.308,0.536,0.33
				C221.306,310.967,221.952,310.811,222.276,309.935z"/>
			<path style="fill:#FFFFFF;" d="M212.351,293.749c0.295,0.588,0.552,1.213,0.809,1.838c0.294,0.073,0.551,0.037,0.808,0
				c0.331-0.184,0.662-0.552,0.735-0.662c0.184-0.331,0.147-0.698,0.037-0.992c-0.074-0.147-0.147-0.294-0.258-0.441
				c-0.11-0.111-0.221-0.221-0.367-0.331c-0.221-0.073-0.478-0.073-0.699-0.073c-0.405,0.036-0.478,0.11-0.588,0.221
				C212.646,293.417,212.425,293.638,212.351,293.749z"/>
			<path style="fill:#FFFFFF;" d="M209.852,291.8c0.625,0.221,1.213,0.441,1.838,0.661c-0.037-0.147-0.111-0.294-0.147-0.478
				c-0.11-0.074-0.294-0.11-0.405-0.294c-0.074-0.11-0.368-0.11-0.551-0.147C210.366,291.653,210.072,291.69,209.852,291.8z"/>
			<path style="fill:#FFFFFF;" d="M221.286,313.786c0.221,0.478,0.405,0.956,0.625,1.434c0.294,0.147,0.551,0.221,0.919,0.074
				c0.331-0.11,0.551-0.294,0.699-0.625c0.184-0.294,0.221-0.589,0.11-0.919c-0.184-0.515-0.257-0.551-1.029-0.882
				C221.911,312.83,221.433,313.234,221.286,313.786z"/>
			<path style="fill:#FFFFFF;" d="M222.015,301.099c-1.012-0.674-1.784-0.395-2.179,0.714c0.072,0.814,0.385,1.265,1.057,1.397
				c0.405,0.079,0.815-0.052,1.093-0.359C222.45,302.339,222.437,301.811,222.015,301.099z"/>
			<path style="fill:#FFFFFF;" d="M215.64,294.956c-0.677,1.021-0.385,1.789,0.632,2.149c0.818,0.072,1.229-0.331,1.462-0.974
				c0.107-0.295-0.09-0.955-0.336-1.155C216.861,294.539,216.356,294.533,215.64,294.956z"/>
			<path style="fill:#FFFFFF;" d="M206.395,290.55c0.735,0.294,1.508,0.551,2.243,0.809c0.073-0.368-0.073-0.735-0.331-0.993
				c-0.515-0.478-1.066-0.478-1.765-0.037C206.506,290.403,206.432,290.476,206.395,290.55z"/>
			<path style="fill:#FFFFFF;" d="M222.35,307.862c1.19,0.033,1.809-1.19,1.083-2.129c-0.403-0.206-0.778-0.502-1.296-0.308
				c-0.328,0.124-0.543,0.318-0.702,0.631c-0.159,0.313-0.19,0.601-0.097,0.939C221.484,307.527,221.945,307.657,222.35,307.862z"/>
			<path style="fill:#FFFFFF;" d="M219.239,298.619c0.707,0.083,1.196-0.096,1.462-0.65c0.254-0.527,0.111-1.01-0.377-1.521
				c-0.239-0.206-0.671-0.263-1.071-0.147c-0.284,0.082-0.551,0.293-0.71,0.605c-0.159,0.313-0.171,0.652-0.07,0.93
				C218.615,298.228,218.917,298.541,219.239,298.619z"/>
			<path style="fill:#FFFFFF;" d="M224.797,310.22c-0.432-0.378-0.899-0.32-1.371-0.116c-0.497,0.215-0.705,0.66-0.6,1.155
				c0.033,0.155,0.085,0.309,0.149,0.454c0.052,0.118,0.137,0.223,0.199,0.32c0.433,0.378,0.898,0.32,1.371,0.116
				c0.497-0.215,0.705-0.66,0.6-1.155c-0.033-0.155-0.085-0.309-0.149-0.454C224.943,310.421,224.859,310.317,224.797,310.22z"/>
			<path style="fill:#FFFFFF;" d="M203.27,289.41c0.735,0.294,1.507,0.551,2.243,0.845c0.11-0.184,0.11-0.441,0.074-0.699
				c-0.147-0.515-0.221-0.772-0.956-1.066c-0.221,0.074-0.515,0.11-0.772,0.221C203.528,288.859,203.307,289.116,203.27,289.41z"/>
			<path style="fill:#FFFFFF;" d="M223.022,302.955c-0.266,0.523,0.028,1.391,0.552,1.629c0.52,0.236,1.335-0.04,1.589-0.539
				c0.266-0.523-0.027-1.391-0.552-1.629C224.09,302.181,223.275,302.457,223.022,302.955z"/>
			<path style="fill:#FFFFFF;" d="M210.974,289.28c-0.015,0.255-0.052,0.532-0.042,0.807c0.013,0.358,0.385,0.499,0.521,0.787
				c0.275,0.029,0.552,0.091,0.825,0.079c0.371-0.017,0.619-0.321,0.805-0.571c0.14-0.187,0.089-0.534,0.082-0.809
				c-0.01-0.357-0.384-0.498-0.521-0.786c-0.275-0.029-0.551-0.092-0.824-0.079C211.449,288.724,211.27,289.077,210.974,289.28z"/>
			<path style="fill:#FFFFFF;" d="M213.965,290.825c-0.012,0.244-0.045,0.521-0.033,0.795c0.016,0.358,0.387,0.496,0.527,0.782
				c0.275,0.027,0.552,0.085,0.825,0.072c0.373-0.018,0.614-0.327,0.801-0.577c0.139-0.186,0.084-0.535,0.074-0.809
				c-0.013-0.358-0.386-0.496-0.526-0.782c-0.275-0.026-0.551-0.072-0.826-0.072C214.624,290.232,214.074,290.639,213.965,290.825z"
				/>
			<path style="fill:#FFFFFF;" d="M222.067,300.056c0.356-0.02,0.708,0.174,1.019-0.031c0.228-0.15,0.418-0.36,0.625-0.544
				c-0.055-0.313,0.164-0.645-0.036-0.942c-0.154-0.228-0.315-0.541-0.537-0.611c-0.298-0.092-0.675-0.2-0.987,0.005
				c-0.228,0.15-0.418,0.36-0.624,0.544c0.055,0.313-0.163,0.644,0.035,0.942C221.715,299.649,221.905,299.853,222.067,300.056z"/>
			<path style="fill:#FFFFFF;" d="M219.189,293.012c0.094-1.003-1.175-1.648-1.93-0.981c-0.144,0.359-0.475,0.689-0.32,1.167
				c0.103,0.317,0.318,0.503,0.61,0.651c0.292,0.149,0.569,0.213,0.885,0.109C218.912,293.802,218.984,293.34,219.189,293.012z"/>
			<path style="fill:#FFFFFF;" d="M226.293,308.977c0.144-0.359,0.475-0.689,0.32-1.167c-0.102-0.316-0.317-0.503-0.609-0.651
				c-0.292-0.149-0.569-0.213-0.885-0.109c-0.478,0.156-0.55,0.618-0.755,0.946C224.27,308.998,225.538,309.643,226.293,308.977z"/>
			<path style="fill:#FFFFFF;" d="M208.146,287.44c-0.098,0.192-0.225,0.442-0.332,0.653c0.019,0.205,0.008,0.383,0.059,0.541
				c0.044,0.138,0.155,0.255,0.256,0.41c0.211,0.107,0.46,0.234,0.707,0.359c0.281-0.107,0.597-0.092,0.896-0.343
				c0.089-0.175,0.215-0.422,0.35-0.687c-0.018-0.297-0.122-0.592-0.313-0.909c-0.197-0.101-0.445-0.227-0.669-0.34
				c-0.188,0.015-0.365,0.001-0.524,0.05C208.436,287.216,208.319,287.328,208.146,287.44z"/>
			<path style="fill:#FFFFFF;" d="M200.292,288.086c0,0.074,0.037,0.184,0.073,0.294c0.625,0.221,1.214,0.441,1.838,0.662
				c0.111-0.221,0.221-0.478,0.368-0.698c-0.037-0.184-0.037-0.368-0.074-0.515c-0.037-0.147-0.147-0.257-0.257-0.441
				c-0.184-0.074-0.441-0.221-0.662-0.331c-0.184,0.037-0.331,0-0.478,0.037c-0.147,0.073-0.258,0.184-0.441,0.294
				C200.55,287.572,200.439,287.793,200.292,288.086z"/>
			<path style="fill:#FFFFFF;" d="M223.161,318.051c0.221,0.441,0.405,0.845,0.589,1.287c0.404-0.367,0.846-0.735,1.25-1.103
				c-0.036-0.147-0.147-0.258-0.257-0.368c-0.368-0.368-0.882-0.331-1.507,0.073C223.198,317.977,223.198,318.014,223.161,318.051z"
				/>
			<path style="fill:#FFFFFF;" d="M221.354,293.362c-1.194,0.026-1.651,0.931-0.97,1.909c0.335,0.216,0.675,0.362,1.086,0.203
				c0.277-0.107,0.503-0.24,0.647-0.522c0.144-0.282,0.118-0.543,0.042-0.83C222.045,293.695,221.728,293.505,221.354,293.362z"/>
			<path style="fill:#FFFFFF;" d="M224.835,316.537c0.303,0.197,0.64,0.321,1.057,0.184c0.413-0.135,0.626-0.424,0.754-0.764
				c0.025-0.651-0.213-1.118-0.82-1.33c-0.297-0.104-0.952,0.144-1.13,0.402C224.336,315.553,224.466,316.045,224.835,316.537z"/>
			<path style="fill:#FFFFFF;" d="M225.41,301.599c1.194-0.026,1.651-0.931,0.97-1.909c-0.335-0.216-0.675-0.362-1.086-0.202
				c-0.277,0.107-0.503,0.24-0.647,0.522c-0.144,0.282-0.118,0.543-0.042,0.83C224.718,301.266,225.035,301.456,225.41,301.599z"/>
			<path style="fill:#FFFFFF;" d="M205.893,285.627c-0.214,0.069-0.384,0.125-0.554,0.18c-0.084,0.251-0.414,0.325-0.426,0.647
				c-0.011,0.29-0.04,0.57,0.126,0.856c0.205,0.109,0.304,0.414,0.596,0.453c0.305,0.041,0.61,0.042,0.903-0.128
				c0.135-0.247,0.471-0.365,0.441-0.78c-0.028-0.395-0.06-0.529-0.243-0.823C206.524,285.691,206.181,285.757,205.893,285.627z"/>
			<path style="fill:#FFFFFF;" d="M226.475,311.795c-0.077,0.244-0.398,0.314-0.426,0.593c-0.014,0.146-0.048,0.296-0.029,0.439
				c0.02,0.155,0.071,0.314,0.146,0.452c0.16,0.296,0.67,0.559,1.004,0.512c0.29-0.041,0.508-0.221,0.741-0.4
				c0.266-0.205,0.113-0.514,0.277-0.724C228.067,311.811,227.241,311.389,226.475,311.795z"/>
			<path style="fill:#FFFFFF;" d="M225.993,305.059c0.105,0.839,0.922,1.285,1.709,0.88c0.078-0.245,0.397-0.316,0.428-0.593
				c0.016-0.146,0.049-0.296,0.03-0.439c-0.02-0.155-0.062-0.324-0.149-0.449c-0.103-0.148-0.247-0.291-0.407-0.371
				c-0.178-0.089-0.397-0.155-0.591-0.141c-0.288,0.021-0.509,0.214-0.742,0.392C226.001,304.543,226.159,304.852,225.993,305.059z"
				/>
			<path style="fill:#FFFFFF;" d="M224.626,294.999c-0.287-0.006-0.589-0.085-0.832,0.003c-0.241,0.087-0.502,0.305-0.608,0.533
				c-0.106,0.229-0.106,0.569-0.016,0.81c0.089,0.24,0.312,0.498,0.541,0.601c0.231,0.104,0.565,0.091,0.812,0.007
				c0.226-0.077,0.472-0.284,0.567-0.497c0.104-0.234,0.119-0.566,0.038-0.81C225.047,295.401,224.799,295.212,224.626,294.999z"/>
			<path style="fill:#FFFFFF;" d="M220.335,289.195c-0.204-0.104-0.454-0.231-0.698-0.355c-0.247,0.083-0.492,0.166-0.742,0.25
				c-0.122,0.24-0.248,0.488-0.373,0.734c0.076,0.233,0.15,0.461,0.23,0.706c0.235,0.12,0.482,0.245,0.71,0.361
				c0.249-0.082,0.493-0.162,0.794-0.261c0.091-0.178,0.217-0.426,0.355-0.697C220.529,289.714,220.438,289.472,220.335,289.195z"/>
			<path style="fill:#FFFFFF;" d="M227.932,308.931c-0.11,0.217-0.237,0.466-0.349,0.686c0.079,0.271,0.152,0.519,0.219,0.75
				c0.266,0.135,0.514,0.262,0.758,0.386c0.235-0.077,0.463-0.151,0.706-0.23c0.12-0.237,0.246-0.484,0.364-0.716
				c-0.082-0.248-0.162-0.493-0.258-0.786c-0.188-0.096-0.437-0.222-0.703-0.358C228.443,308.746,228.199,308.834,227.932,308.931z"
				/>
			<path style="fill:#FFFFFF;" d="M197.651,287.356c0.217,0.111,0.466,0.237,0.717,0.365c0.227-0.075,0.455-0.149,0.706-0.232
				c0.125-0.246,0.258-0.508,0.395-0.775c-0.072-0.221-0.146-0.449-0.225-0.691c-0.237-0.121-0.484-0.246-0.715-0.364
				c-0.249,0.082-0.493,0.162-0.786,0.258c-0.096,0.188-0.222,0.436-0.358,0.703C197.466,286.845,197.554,287.088,197.651,287.356z"
				/>
			<path style="fill:#FFFFFF;" d="M212.526,286.771c0.074,0.228,0.149,0.456,0.23,0.706c0.247,0.126,0.51,0.259,0.777,0.395
				c0.221-0.072,0.449-0.146,0.691-0.225c0.121-0.238,0.246-0.485,0.364-0.716c-0.082-0.249-0.162-0.493-0.258-0.785
				c-0.19-0.097-0.438-0.223-0.704-0.358c-0.226,0.081-0.47,0.169-0.735,0.264C212.78,286.272,212.653,286.521,212.526,286.771z"/>
			<path style="fill:#FFFFFF;" d="M215.905,287.546c-0.127,0.25-0.245,0.482-0.346,0.68c0.088,0.268,0.168,0.512,0.27,0.822
				c0.167,0.085,0.414,0.211,0.651,0.331c0.247-0.082,0.491-0.163,0.776-0.257c0.101-0.199,0.227-0.447,0.358-0.703
				c-0.082-0.237-0.166-0.481-0.255-0.737c-0.232-0.118-0.481-0.245-0.729-0.371C216.398,287.385,216.17,287.46,215.905,287.546z"/>
			<path style="fill:#FFFFFF;" d="M203.666,285.905c0.52-0.717,0.228-1.462-0.462-1.666c-0.65-0.062-1.014,0.196-1.202,0.709
				c-0.107,0.293,0.041,0.794,0.281,0.991C202.666,286.254,203.1,286.244,203.666,285.905z"/>
			<path style="fill:#FFFFFF;" d="M210.623,284.265c-0.987-0.028-1.465,0.914-0.861,1.695c0.297,0.189,0.602,0.352,0.973,0.232
				c0.266-0.086,0.463-0.241,0.596-0.501c0.132-0.261,0.144-0.512,0.054-0.777C211.292,284.644,211.126,284.507,210.623,284.265z"/>
			<path style="fill:#FFFFFF;" d="M228.459,303.016c0.987,0.028,1.465-0.913,0.861-1.695c-0.297-0.189-0.602-0.352-0.973-0.233
				c-0.266,0.086-0.463,0.241-0.596,0.501c-0.132,0.261-0.144,0.512-0.054,0.776C227.791,302.637,227.956,302.774,228.459,303.016z"
				/>
			<path style="fill:#FFFFFF;" d="M221.683,291.304c-0.028,0.99,0.914,1.467,1.694,0.864c0.19-0.298,0.352-0.603,0.233-0.974
				c-0.085-0.266-0.24-0.463-0.501-0.596c-0.261-0.132-0.511-0.142-0.777-0.055C221.963,290.665,221.813,290.977,221.683,291.304z"
				/>
			<path style="fill:#FFFFFF;" d="M227.304,296.516c-0.656,0.06-1.014,0.307-1.138,0.787c-0.077,0.301,0.098,0.793,0.357,0.966
				c0.454,0.304,0.9,0.298,1.389-0.135C228.351,297.56,228.145,296.787,227.304,296.516z"/>
			<path style="fill:#FFFFFF;" d="M228.911,318.105c0.448-0.209,0.703-0.583,0.538-1.201c-0.157-0.109-0.182-0.448-0.457-0.527
				c-0.228-0.066-0.475-0.064-0.633-0.082c-0.619,0.241-0.819,0.661-0.696,1.22C227.882,318.012,228.257,318.263,228.911,318.105z"
				/>
			<path style="fill:#FFFFFF;" d="M230.616,305.742c-0.379-0.181-1.125,0.081-1.292,0.453c-0.174,0.388,0.098,1.125,0.473,1.286
				c0.364,0.156,1.071-0.097,1.254-0.439C231.248,306.671,230.955,305.867,230.616,305.742z"/>
			<path style="fill:#FFFFFF;" d="M206.629,283.267c-0.202,0.354,0.025,1.111,0.395,1.311c0.333,0.181,1.068-0.027,1.278-0.362
				c0.215-0.342,0.01-1.107-0.355-1.324C207.596,282.683,206.84,282.898,206.629,283.267z"/>
			<path style="fill:#FFFFFF;" d="M229.149,314.22c0.142,0.828,0.776,1.137,1.391,0.814c0.541-0.425,0.54-0.881,0.303-1.326
				c-0.15-0.281-0.478-0.421-0.785-0.388c-0.225,0.024-0.533,0.035-0.629,0.351C229.05,313.709,229.357,314.095,229.149,314.22z"/>
			<path style="fill:#FFFFFF;" d="M199.013,283.672c0.062,0.184,0.125,0.372,0.178,0.53c0.222,0.235,0.462,0.388,0.808,0.398
				c0.129-0.042,0.299-0.097,0.467-0.152c0.1-0.109,0.2-0.216,0.333-0.362c0.011-0.083,0.031-0.228,0.05-0.374
				c0.059-0.256-0.319-0.877-0.548-0.904C199.621,282.725,199.286,282.799,199.013,283.672z"/>
			<path style="fill:#FFFFFF;" d="M224.923,293.549c0.239,0.121,0.487,0.247,0.741,0.376c0.185-0.063,0.373-0.128,0.569-0.195
				c0.121-0.239,0.247-0.487,0.376-0.741c-0.064-0.185-0.128-0.373-0.195-0.569c-0.239-0.121-0.488-0.247-0.741-0.376
				c-0.185,0.064-0.373,0.128-0.569,0.195c-0.121,0.239-0.248,0.487-0.376,0.741C224.792,293.164,224.856,293.353,224.923,293.549z"
				/>
			<path style="fill:#FFFFFF;" d="M195.312,286.031c0.194-0.063,0.383-0.125,0.574-0.187c0.125-0.246,0.251-0.494,0.375-0.736
				c-0.063-0.194-0.125-0.384-0.187-0.575c-0.246-0.125-0.494-0.251-0.737-0.375c-0.194,0.063-0.383,0.125-0.575,0.187
				c-0.125,0.246-0.251,0.494-0.375,0.737c0.063,0.194,0.125,0.383,0.187,0.575C194.82,285.781,195.069,285.908,195.312,286.031z"/>
			<path style="fill:#FFFFFF;" d="M204.254,283.035c0.713,0.135,0.915-0.287,1.049-0.602c0.142-0.724-0.285-0.922-0.608-1.062
				c-0.713-0.135-0.915,0.287-1.049,0.603C203.504,282.698,203.932,282.896,204.254,283.035z"/>
			<path style="fill:#FFFFFF;" d="M230.782,311.005c-0.141,0.721,0.285,0.921,0.601,1.057c0.721,0.141,0.921-0.285,1.057-0.602
				c0.141-0.721-0.285-0.92-0.601-1.057C231.118,310.263,230.918,310.689,230.782,311.005z"/>
			<path style="fill:#FFFFFF;" d="M230.535,298.29c-0.503-0.262-0.883-0.147-1.138,0.345c-0.262,0.503-0.147,0.882,0.345,1.138
				c0.503,0.262,0.882,0.147,1.138-0.345C231.141,298.924,231.027,298.545,230.535,298.29z"/>
			<path style="fill:#FFFFFF;" d="M221.26,285.891c-0.228,0.074-0.456,0.149-0.706,0.23c-0.089,0.176-0.187,0.367-0.286,0.563
				c0.072,0.221,0.146,0.449,0.225,0.691c0.166,0.085,0.342,0.174,0.505,0.257c0.246-0.082,0.49-0.163,0.784-0.261
				c0.059-0.116,0.149-0.293,0.249-0.489c-0.084-0.225-0.174-0.467-0.276-0.74C221.616,286.073,221.438,285.982,221.26,285.891z"/>
			<path style="fill:#FFFFFF;" d="M217.536,284.604c-0.091,0.178-0.173,0.339-0.237,0.465c0.088,0.268,0.168,0.512,0.27,0.822
				c0.095,0.048,0.272,0.138,0.435,0.221c0.248-0.082,0.493-0.162,0.777-0.255c0.066-0.129,0.156-0.306,0.252-0.495
				c-0.079-0.234-0.162-0.479-0.245-0.727c-0.173-0.088-0.35-0.178-0.527-0.268C218.03,284.443,217.802,284.517,217.536,284.604z"/>
			<path style="fill:#FFFFFF;" d="M231.084,303.011c-0.06,0.117-0.15,0.294-0.25,0.491c0.084,0.224,0.174,0.467,0.277,0.74
				c0.136,0.069,0.315,0.16,0.493,0.251c0.228-0.074,0.456-0.149,0.706-0.23c0.089-0.175,0.186-0.367,0.286-0.563
				c-0.072-0.221-0.146-0.449-0.225-0.691c-0.166-0.084-0.342-0.174-0.502-0.255C231.621,302.835,231.377,302.915,231.084,303.011z"
				/>
			<path style="fill:#FFFFFF;" d="M179.189,300.146c0.036,0.074,0.036-0.036,0.074-0.11
				C179.225,300.072,179.225,300.109,179.189,300.146z"/>
			<path style="fill:#FFFFFF;" d="M216.037,283.841c-0.074-0.228-0.149-0.456-0.23-0.706c-0.176-0.089-0.367-0.187-0.563-0.286
				c-0.221,0.072-0.449,0.146-0.692,0.225c-0.084,0.166-0.173,0.342-0.255,0.502c0.082,0.249,0.162,0.493,0.257,0.785
				c0.118,0.06,0.295,0.15,0.49,0.25c0.226-0.082,0.47-0.169,0.736-0.265C215.856,284.198,215.947,284.02,216.037,283.841z"/>
			<path style="fill:#FFFFFF;" d="M212.407,281.388c-0.378-0.172-0.964,0.044-1.126,0.415c-0.164,0.376,0.066,0.968,0.435,1.12
				c0.358,0.147,0.922-0.061,1.086-0.402C212.981,282.149,212.774,281.555,212.407,281.388z"/>
			<path style="fill:#FFFFFF;" d="M229.088,293.646c-0.376-0.177-0.966,0.032-1.131,0.402c-0.17,0.38,0.05,0.965,0.422,1.124
				c0.355,0.152,0.921-0.047,1.09-0.389C229.672,294.372,229.4,293.78,229.088,293.646z"/>
			<path style="fill:#FFFFFF;" d="M223.857,289.113c0.24-0.072,0.465,0.158,0.683-0.005c0.163-0.121,0.412-0.238,0.445-0.394
				c0.042-0.2,0.171-0.448,0.013-0.661c-0.12-0.163-0.264-0.309-0.397-0.462c-0.203,0.121-0.385-0.117-0.618-0.013
				c-0.209,0.093-0.263,0.331-0.476,0.388c0.062,0.207-0.093,0.388-0.046,0.612C223.516,288.844,223.818,288.872,223.857,289.113z"
				/>
			<path style="fill:#FFFFFF;" d="M232.808,308.89c0.236-0.067,0.466,0.146,0.68-0.013c0.163-0.121,0.415-0.246,0.439-0.398
				c0.032-0.204,0.165-0.451,0.006-0.662c-0.122-0.162-0.268-0.306-0.402-0.458c-0.202,0.113-0.389-0.107-0.619-0.005
				c-0.211,0.093-0.257,0.337-0.471,0.394c0.077,0.223-0.169,0.445-0.005,0.666C232.557,308.578,232.686,308.735,232.808,308.89z"/>
			<path style="fill:#FFFFFF;" d="M196.084,281.719c0.073,0.237-0.142,0.467,0.018,0.681c0.121,0.162,0.25,0.418,0.4,0.436
				c0.208,0.026,0.452,0.17,0.664,0.004c0.159-0.126,0.304-0.27,0.455-0.406c-0.102-0.219,0.167-0.454-0.031-0.67
				c-0.125-0.136-0.233-0.382-0.367-0.394c-0.214-0.021-0.444-0.185-0.664-0.025C196.395,281.464,196.24,281.596,196.084,281.719z"
				/>
			<path style="fill:#FFFFFF;" d="M230.801,319.002c0.246,0.368,0.567,0.536,1.01,0.506c0.331-0.207,0.536-0.524,0.507-0.998
				c-0.207-0.363-0.552-0.544-1.006-0.527C230.931,318.235,230.758,318.586,230.801,319.002z"/>
			<path style="fill:#FFFFFF;" d="M229.275,322.004c0.244,0.362,0.578,0.537,1.011,0.512c0.361-0.237,0.529-0.575,0.514-1.012
				c-0.234-0.341-0.543-0.563-1.029-0.506C229.445,321.2,229.252,321.523,229.275,322.004z"/>
			<path style="fill:#FFFFFF;" d="M208.294,280.897c0.326,0.368,0.486,0.452,0.967,0.503c0.388-0.222,0.582-0.559,0.541-1.046
				c-0.217-0.328-0.54-0.522-1.006-0.487C208.459,280.077,208.267,280.401,208.294,280.897z"/>
			<path style="fill:#FFFFFF;" d="M202.245,280.408c-0.343-0.374-0.505-0.455-0.994-0.504c-0.364,0.228-0.558,0.552-0.531,1.027
				c0.202,0.327,0.512,0.542,1.032,0.483C202.087,281.239,202.255,280.888,202.245,280.408z"/>
			<path style="fill:#FFFFFF;" d="M232.565,316.299c0.109,0.055,0.269,0.137,0.447,0.227c0.168-0.069,0.35-0.144,0.601-0.247
				c0.046-0.09,0.135-0.265,0.24-0.472c-0.068-0.149-0.148-0.328-0.268-0.594c-0.066-0.034-0.241-0.122-0.443-0.225
				c-0.154,0.064-0.336,0.138-0.587,0.242c-0.046,0.09-0.135,0.265-0.238,0.467C232.381,315.851,232.456,316.033,232.565,316.299z"
				/>
			<path style="fill:#FFFFFF;" d="M226.714,290.418c0.139,0.07,0.298,0.152,0.479,0.243c0.169-0.066,0.353-0.138,0.574-0.224
				c0.067-0.13,0.156-0.307,0.258-0.508c-0.063-0.162-0.135-0.346-0.221-0.568c-0.131-0.067-0.307-0.156-0.508-0.259
				c-0.162,0.063-0.346,0.135-0.568,0.222c-0.067,0.13-0.156,0.306-0.259,0.509C226.536,289.993,226.613,290.176,226.714,290.418z"
				/>
			<path style="fill:#FFFFFF;" d="M232.664,301.122c0.171,0.087,0.348,0.177,0.506,0.257c0.204-0.067,0.393-0.128,0.584-0.19
				c0.087-0.171,0.177-0.348,0.257-0.506c-0.067-0.204-0.128-0.393-0.19-0.584c-0.171-0.087-0.348-0.177-0.506-0.257
				c-0.204,0.067-0.393,0.128-0.584,0.19c-0.087,0.171-0.177,0.348-0.257,0.506C232.54,300.741,232.601,300.93,232.664,301.122z"/>
			<path style="fill:#FFFFFF;" d="M234.934,312.115c-0.32-0.159-0.782-0.043-0.968,0.317c-0.164,0.317-0.044,0.781,0.316,0.967
				c0.317,0.164,0.781,0.044,0.967-0.316C235.414,312.766,235.292,312.305,234.934,312.115z"/>
			<path style="fill:#FFFFFF;" d="M205.742,279.75c0.323,0.12,0.746,0.086,0.956-0.342c0.151-0.309,0.092-0.743-0.336-0.953
				c-0.309-0.151-0.743-0.092-0.953,0.336C205.259,279.1,205.326,279.517,205.742,279.75z"/>
			<path style="fill:#FFFFFF;" d="M231.076,295.599c-0.178,0.365-0.004,0.809,0.315,0.968c0.362,0.182,0.807,0.005,0.967-0.314
				c0.182-0.362,0.005-0.808-0.314-0.967C231.682,295.104,231.24,295.283,231.076,295.599z"/>
			<path style="fill:#FFFFFF;" d="M234.389,305.774c0.32,0.159,0.782,0.043,0.967-0.317c0.164-0.317,0.044-0.781-0.316-0.967
				c-0.317-0.164-0.781-0.044-0.967,0.316C233.91,305.124,234.031,305.584,234.389,305.774z"/>
			<path style="fill:#FFFFFF;" d="M177.854,295.334c-0.058,0.38,0.042,0.709,0.322,0.978c0.358,0.045,0.674-0.046,0.946-0.296
				c0.089-0.375-0.032-0.698-0.284-0.983C178.454,294.948,178.135,295.079,177.854,295.334z"/>
			<path style="fill:#FFFFFF;" d="M217.008,280.091c-0.38-0.058-0.709,0.042-0.978,0.322c-0.045,0.358,0.046,0.674,0.296,0.946
				c0.375,0.089,0.698-0.032,0.983-0.284C217.394,280.69,217.264,280.371,217.008,280.091z"/>
			<path style="fill:#FFFFFF;" d="M219.025,281.931c-0.047,0.376,0.058,0.687,0.3,0.955c0.383,0.081,0.706-0.035,0.987-0.295
				c0.068-0.383-0.045-0.707-0.316-0.98C219.641,281.571,219.319,281.644,219.025,281.931z"/>
			<path style="fill:#FFFFFF;" d="M213.577,278.48c-0.169,0.055-0.283,0.092-0.4,0.13c-0.088,0.173-0.177,0.349-0.278,0.548
				c0.044,0.108,0.096,0.236,0.162,0.398c0.135,0.069,0.309,0.158,0.526,0.268c0.087-0.043,0.21-0.104,0.402-0.198
				c0.045-0.089,0.133-0.262,0.256-0.503c-0.052-0.077-0.141-0.21-0.229-0.342C213.93,278.66,213.754,278.57,213.577,278.48z"/>
			<path style="fill:#FFFFFF;" d="M223.074,284.303c0.089-0.176,0.179-0.352,0.264-0.519c-0.044-0.141-0.086-0.273-0.127-0.402
				c-0.179-0.091-0.356-0.181-0.539-0.274c-0.125,0.045-0.255,0.092-0.402,0.146c-0.08,0.157-0.169,0.332-0.273,0.536
				c0.044,0.102,0.098,0.228,0.172,0.398c0.122,0.062,0.296,0.151,0.525,0.267c0.075-0.046,0.193-0.119,0.312-0.191
				C223.029,284.276,223.052,284.289,223.074,284.303z"/>
			<path style="fill:#FFFFFF;" d="M194.285,281.043c0.059-0.115,0.148-0.291,0.238-0.467c-0.044-0.133-0.086-0.265-0.13-0.4
				c-0.174-0.089-0.35-0.178-0.545-0.277c-0.112,0.044-0.241,0.095-0.398,0.157c-0.072,0.141-0.161,0.316-0.27,0.53
				c0.044,0.09,0.103,0.214,0.193,0.401c0.096,0.049,0.27,0.137,0.496,0.252C193.961,281.196,194.101,281.13,194.285,281.043z"/>
			<path style="fill:#FFFFFF;" d="M197.833,279.499c0.177,0.09,0.354,0.179,0.539,0.274c0.123-0.044,0.253-0.091,0.4-0.144
				c0.08-0.158,0.169-0.333,0.275-0.54c-0.044-0.099-0.099-0.225-0.177-0.399c-0.116-0.059-0.29-0.148-0.511-0.26
				c-0.101,0.042-0.243,0.1-0.4,0.165c-0.079,0.154-0.168,0.33-0.256,0.504C197.748,279.236,197.791,279.367,197.833,279.499z"/>
			<path style="fill:#FFFFFF;" d="M176.536,298.192c-0.059,0.115-0.148,0.291-0.238,0.467c0.044,0.133,0.086,0.264,0.13,0.4
				c0.174,0.089,0.35,0.178,0.545,0.277c0.112-0.044,0.241-0.095,0.398-0.158c0.072-0.141,0.161-0.315,0.27-0.53
				c-0.044-0.09-0.103-0.213-0.193-0.401c-0.096-0.049-0.27-0.137-0.496-0.252C176.86,298.039,176.72,298.105,176.536,298.192z"/>
			<path style="fill:#FFFFFF;" d="M229.573,291.4c0.055,0.17,0.092,0.283,0.13,0.4c0.173,0.088,0.349,0.178,0.547,0.278
				c0.109-0.044,0.236-0.096,0.395-0.161c0.077-0.152,0.174-0.341,0.266-0.522c-0.042-0.128-0.078-0.24-0.121-0.372
				c-0.161-0.082-0.334-0.17-0.562-0.286c-0.091,0.045-0.231,0.113-0.425,0.209C229.753,291.047,229.663,291.224,229.573,291.4z"/>
			<path style="fill:#FFFFFF;" d="M235.665,310.062c0.179,0.091,0.338,0.172,0.527,0.268c0.1-0.054,0.222-0.121,0.431-0.234
				c0.031-0.061,0.119-0.235,0.233-0.458c-0.042-0.098-0.104-0.24-0.176-0.405c-0.141-0.072-0.317-0.162-0.491-0.25
				c-0.135,0.044-0.267,0.087-0.4,0.13c-0.089,0.176-0.179,0.352-0.275,0.541C235.558,309.774,235.607,309.903,235.665,310.062z"/>
			<path style="fill:#FFFFFF;" d="M225.997,285.96c0.345-0.312,0.345-0.312,0.39-0.779c-0.171-0.302-0.41-0.483-0.845-0.395
				c-0.216,0.134-0.445,0.343-0.311,0.883C225.317,285.858,225.589,286.007,225.997,285.96z"/>
			<path style="fill:#FFFFFF;" d="M203.673,277.412c-0.2-0.315-0.416-0.51-0.777-0.43c-0.339,0.134-0.487,0.406-0.441,0.795
				c0.16,0.306,0.425,0.44,0.802,0.391C203.622,277.864,203.622,277.864,203.673,277.412z"/>
			<path style="fill:#FFFFFF;" d="M236.69,302.569c0.059-0.116,0.113-0.222,0.156-0.307c-0.061-0.208-0.117-0.398-0.17-0.576
				c-0.119-0.06-0.224-0.114-0.312-0.159c-0.204,0.067-0.392,0.128-0.583,0.19c-0.051,0.1-0.105,0.205-0.148,0.29
				c0.061,0.208,0.117,0.398,0.17,0.576c0.118,0.06,0.224,0.114,0.328,0.167C236.305,302.694,236.475,302.638,236.69,302.569z"/>
			<path style="fill:#FFFFFF;" d="M209.958,277.516c0.062,0.187,0.125,0.376,0.189,0.567c0.103,0.052,0.209,0.106,0.318,0.161
				c0.187-0.062,0.375-0.125,0.567-0.189c0.052-0.103,0.106-0.209,0.161-0.318c-0.062-0.187-0.125-0.375-0.189-0.567
				c-0.103-0.052-0.209-0.106-0.317-0.161c-0.187,0.062-0.376,0.125-0.567,0.189C210.068,277.301,210.013,277.408,209.958,277.516z"
				/>
			<path style="fill:#FFFFFF;" d="M233.531,322.854c-0.087-0.045-0.176-0.09-0.285-0.145c-0.169,0.066-0.353,0.137-0.574,0.223
				c-0.03,0.06-0.084,0.165-0.15,0.295c0.063,0.162,0.134,0.346,0.22,0.567c0.061,0.031,0.165,0.084,0.295,0.15
				c0.162-0.063,0.346-0.134,0.567-0.221c0.031-0.06,0.084-0.165,0.15-0.295C233.692,323.267,233.62,323.083,233.531,322.854z"/>
			<path style="fill:#FFFFFF;" d="M235.314,297.863c0.019-0.037,0.064-0.126,0.121-0.238c-0.073-0.162-0.154-0.341-0.273-0.607
				c0,0-0.099-0.05-0.234-0.119c-0.149,0.067-0.328,0.148-0.594,0.268c0.002-0.005-0.051,0.099-0.119,0.234
				c0.067,0.149,0.148,0.328,0.268,0.594c-0.005-0.002,0.099,0.05,0.23,0.117C234.865,298.047,235.046,297.973,235.314,297.863z"/>
			<path style="fill:#FFFFFF;" d="M234.048,320.215c0.062,0.192,0.124,0.381,0.186,0.571c0.104,0.053,0.211,0.107,0.313,0.159
				c0.193-0.061,0.382-0.121,0.57-0.181c0.055-0.109,0.11-0.216,0.162-0.318c-0.062-0.192-0.124-0.381-0.186-0.571
				c-0.104-0.053-0.211-0.107-0.313-0.159c-0.193,0.061-0.382,0.121-0.569,0.181C234.155,320.006,234.1,320.113,234.048,320.215z"/>
			<path style="fill:#FFFFFF;" d="M229.303,287.163c0.061-0.315-0.017-0.587-0.272-0.815c-0.294-0.057-0.567,0.021-0.795,0.276
				c-0.057,0.294,0.021,0.567,0.276,0.795C228.807,287.477,229.077,287.388,229.303,287.163z"/>
			<path style="fill:#FFFFFF;" d="M233.514,292.395c-0.313-0.047-0.582,0.039-0.808,0.262c-0.047,0.313,0.039,0.583,0.263,0.808
				c0.313,0.047,0.583-0.039,0.807-0.262C233.824,292.889,233.738,292.62,233.514,292.395z"/>
			<path style="fill:#FFFFFF;" d="M231.433,325.919c0.037,0.073,0.074,0.147,0.111,0.221c0.11,0.221,0.257,0.441,0.404,0.661
				c0.184-0.441,0.073-0.698-0.11-0.882C231.691,325.882,231.544,325.882,231.433,325.919z"/>
			<path style="fill:#FFFFFF;" d="M235.671,317.095c-0.051,0.271-0.041,0.549,0.247,0.761c0.264,0.042,0.57,0.095,0.773-0.267
				c0.062-0.25,0.115-0.556-0.247-0.758C236.194,316.77,235.888,316.716,235.671,317.095z"/>
			<path style="fill:#FFFFFF;" d="M238.012,307.142c0.052-0.246,0.368-0.428,0.173-0.772c-0.165-0.084-0.356-0.181-0.534-0.271
				c-0.372,0.059-0.345,0.411-0.509,0.602C237.331,307.083,237.592,307.216,238.012,307.142z"/>
			<path style="fill:#FFFFFF;" d="M232.14,288.057c-0.087-0.044-0.175-0.089-0.301-0.153c-0.11,0.057-0.247,0.129-0.477,0.249
				c0.011-0.022-0.042,0.083-0.105,0.207c0.048,0.111,0.102,0.238,0.175,0.407c0.052,0.026,0.155,0.079,0.298,0.152
				c0.09-0.043,0.214-0.101,0.449-0.213C232.326,288.569,232.26,288.316,232.14,288.057z"/>
			<path style="fill:#FFFFFF;" d="M190.507,279.41c0.072,0.036,0.159,0.081,0.295,0.15c0.103-0.055,0.24-0.129,0.455-0.243
				c0,0,0.052-0.102,0.109-0.214c-0.045-0.125-0.092-0.255-0.144-0.402c-0.086-0.044-0.191-0.097-0.324-0.165
				c-0.102,0.044-0.228,0.098-0.397,0.171c-0.026,0.052-0.079,0.155-0.154,0.302C190.388,279.113,190.445,279.255,190.507,279.41z"
				/>
			<path style="fill:#FFFFFF;" d="M194.971,277.313c0.005-0.01-0.048,0.096-0.106,0.209c0.045,0.124,0.093,0.253,0.148,0.402
				c0.082,0.042,0.187,0.095,0.321,0.163c0.1-0.043,0.226-0.098,0.397-0.173c0.025-0.049,0.077-0.152,0.153-0.3
				c-0.042-0.102-0.1-0.244-0.164-0.402c-0.066-0.034-0.154-0.079-0.291-0.148C195.327,277.119,195.19,277.194,194.971,277.313z"/>
			<path style="fill:#FFFFFF;" d="M200.295,275.631c-0.082-0.042-0.17-0.087-0.299-0.152c-0.109,0.057-0.246,0.13-0.437,0.23
				c-0.007,0.013-0.051,0.101-0.119,0.234c0.053,0.105,0.123,0.244,0.226,0.445c0.018,0.009,0.123,0.063,0.23,0.117
				c0.13-0.043,0.261-0.087,0.4-0.133c0.05-0.098,0.103-0.203,0.169-0.332C200.42,275.935,200.368,275.808,200.295,275.631z"/>
			<path style="fill:#FFFFFF;" d="M237.334,314.683c0.105,0.054,0.211,0.108,0.324,0.165c0.124-0.045,0.253-0.093,0.402-0.148
				c0.042-0.082,0.095-0.187,0.163-0.321c-0.044-0.1-0.098-0.226-0.173-0.397c-0.049-0.025-0.152-0.077-0.3-0.153
				c-0.102,0.042-0.244,0.1-0.402,0.164c-0.034,0.067-0.079,0.154-0.154,0.302c0.06,0.091,0.146,0.224,0.232,0.357
				C237.396,314.663,237.365,314.673,237.334,314.683z"/>
			<path style="fill:#FFFFFF;" d="M207.214,275.76c-0.041,0.082-0.086,0.17-0.147,0.289c0.044,0.121,0.097,0.265,0.149,0.408
				c0.089,0.045,0.177,0.09,0.311,0.158c0.105-0.053,0.243-0.123,0.445-0.226c0.009-0.018,0.063-0.123,0.117-0.23
				c-0.044-0.13-0.087-0.261-0.134-0.4c-0.098-0.05-0.202-0.103-0.331-0.169C207.517,275.635,207.391,275.687,207.214,275.76z"/>
			<path style="fill:#FFFFFF;" d="M176.643,290.807c-0.011,0.261-0.012,0.496,0.274,0.666c0.182,0.029,0.402-0.013,0.578-0.203
				c0.081-0.253-0.054-0.448-0.171-0.647C177.048,290.534,176.838,290.657,176.643,290.807z"/>
			<path style="fill:#FFFFFF;" d="M220.768,279.045c-0.044,0.248,0.02,0.462,0.204,0.637c0.249,0.058,0.454-0.034,0.643-0.185
				c0.079-0.25-0.038-0.451-0.165-0.65C221.182,278.771,220.957,278.847,220.768,279.045z"/>
			<path style="fill:#FFFFFF;" d="M217.77,277.522c-0.045,0.249,0.023,0.461,0.207,0.636c0.248,0.053,0.457-0.025,0.643-0.187
				c0.082-0.251-0.043-0.45-0.164-0.649C218.187,277.259,217.957,277.318,217.77,277.522z"/>
			<path style="fill:#FFFFFF;" d="M175.273,294.582c0.259,0.017,0.456-0.055,0.636-0.193c0.092-0.267-0.007-0.485-0.197-0.677
				c-0.24-0.018-0.48-0.038-0.63,0.229C175.008,294.163,175.12,294.363,175.273,294.582z"/>
			<path style="fill:#FFFFFF;" d="M174.417,297.351c0.001-0.249-0.062-0.448-0.195-0.626c-0.264-0.058-0.495-0.004-0.682,0.201
				c-0.045,0.25,0.025,0.461,0.208,0.636C173.995,297.613,174.207,297.542,174.417,297.351z"/>
			<path style="fill:#FFFFFF;" d="M224.408,280.352c-0.248-0.044-0.462,0.02-0.637,0.204c-0.058,0.249,0.034,0.455,0.184,0.643
				c0.251,0.08,0.452-0.038,0.65-0.163C224.683,280.766,224.607,280.541,224.408,280.352z"/>
			<path style="fill:#FFFFFF;" d="M178.791,287.732c-0.222-0.125-0.373-0.094-0.491,0.104c-0.131,0.22-0.104,0.38,0.084,0.497
				c0.241,0.15,0.407,0.114,0.531-0.117C179.035,287.992,178.999,287.85,178.791,287.732z"/>
			<path style="fill:#FFFFFF;" d="M212.29,274.322c-0.222-0.126-0.373-0.094-0.491,0.104c-0.131,0.22-0.104,0.38,0.084,0.497
				c0.241,0.15,0.407,0.114,0.531-0.117C212.535,274.582,212.499,274.44,212.29,274.322z"/>
			<path style="fill:#FFFFFF;" d="M238.929,303.469c-0.126,0.221-0.093,0.373,0.104,0.49c0.221,0.131,0.38,0.104,0.497-0.084
				c0.15-0.241,0.114-0.406-0.117-0.531C239.189,303.224,239.047,303.261,238.929,303.469z"/>
			<path style="fill:#FFFFFF;" d="M179.85,285.255v-0.404C179.703,285.072,179.703,285.219,179.85,285.255z"/>
			<path style="fill:#FFFFFF;" d="M236.025,294.345c-0.114,0.224-0.073,0.361,0.144,0.478c0.253,0.136,0.392,0.088,0.512-0.177
				c0.099-0.218,0.045-0.355-0.185-0.465C236.274,294.074,236.139,294.122,236.025,294.345z"/>
			<path style="fill:#FFFFFF;" d="M237.504,298.854c-0.12,0.224-0.084,0.366,0.124,0.484c0.221,0.126,0.373,0.094,0.49-0.104
				c0.148-0.248,0.108-0.4-0.137-0.525C237.758,298.595,237.621,298.637,237.504,298.854z"/>
			<path style="fill:#FFFFFF;" d="M214.776,275.991c-0.114,0.224-0.073,0.361,0.144,0.477c0.252,0.136,0.391,0.088,0.511-0.178
				c0.099-0.218,0.045-0.354-0.184-0.464C215.025,275.72,214.89,275.767,214.776,275.991z"/>
			<path style="fill:#FFFFFF;" d="M227.136,282.683c0.224,0.114,0.361,0.072,0.478-0.144c0.136-0.252,0.088-0.391-0.178-0.511
				c-0.218-0.099-0.355-0.045-0.465,0.184C226.865,282.434,226.913,282.569,227.136,282.683z"/>
			<path style="fill:#FFFFFF;" d="M204.271,274.392c-0.124,0.222-0.09,0.37,0.111,0.489c0.22,0.129,0.378,0.1,0.495-0.09
				c0.148-0.241,0.11-0.406-0.124-0.529C204.53,274.143,204.389,274.182,204.271,274.392z"/>
			<path style="fill:#FFFFFF;" d="M238.977,311.056c-0.12,0.224-0.084,0.366,0.124,0.484c0.221,0.125,0.373,0.094,0.491-0.104
				c0.147-0.248,0.108-0.4-0.138-0.524C239.231,310.797,239.094,310.839,238.977,311.056z"/>
			<path style="fill:#FFFFFF;" d="M235.789,324.649c0.067,0.201,0.121,0.358,0.193,0.574c0.145-0.073,0.295-0.148,0.485-0.243
				c-0.028-0.107-0.069-0.27-0.123-0.482C236.152,324.55,235.978,324.597,235.789,324.649z"/>
			<path style="fill:#FFFFFF;" d="M234.409,289.808c0.051,0.141,0.103,0.284,0.172,0.476c0.173-0.049,0.346-0.098,0.494-0.14
				c-0.071-0.197-0.127-0.353-0.198-0.553C234.774,289.639,234.621,289.709,234.409,289.808z"/>
			<path style="fill:#FFFFFF;" d="M196.597,274.326c0.052,0.167,0.097,0.312,0.153,0.493c0.183-0.045,0.344-0.084,0.563-0.138
				c-0.053-0.19-0.101-0.364-0.158-0.571C196.96,274.185,196.805,274.246,196.597,274.326z"/>
			<path style="fill:#FFFFFF;" d="M192.729,276.261c-0.073-0.216-0.126-0.374-0.185-0.547c-0.161,0.056-0.318,0.111-0.519,0.181
				c0.045,0.15,0.094,0.31,0.153,0.506C192.359,276.354,192.521,276.313,192.729,276.261z"/>
			<path style="fill:#FFFFFF;" d="M234.36,328.303c0.2-0.064,0.359-0.115,0.556-0.179c-0.069-0.162-0.134-0.316-0.216-0.509
				c-0.13,0.036-0.29,0.081-0.5,0.139C234.256,327.946,234.306,328.119,234.36,328.303z"/>
			<path style="fill:#FFFFFF;" d="M238.028,321.976c-0.069-0.134-0.14-0.271-0.236-0.456c-0.118,0.033-0.292,0.083-0.472,0.134
				c0.063,0.201,0.113,0.36,0.178,0.568C237.653,322.15,237.805,322.079,238.028,321.976z"/>
			<path style="fill:#FFFFFF;" d="M230.643,284.083c-0.064-0.2-0.115-0.358-0.178-0.556c-0.162,0.069-0.316,0.134-0.509,0.216
				c0.036,0.13,0.08,0.29,0.139,0.5C230.286,284.187,230.459,284.137,230.643,284.083z"/>
			<path style="fill:#FFFFFF;" d="M188.051,277.364c-0.137-0.07-0.256-0.131-0.392-0.2c-0.065,0.127-0.125,0.245-0.205,0.403
				c0.108,0.062,0.235,0.135,0.382,0.219C187.907,277.647,187.967,277.529,188.051,277.364z"/>
			<path style="fill:#FFFFFF;" d="M240.515,308.341c0.137,0.07,0.256,0.13,0.393,0.199c0.065-0.127,0.125-0.246,0.205-0.402
				c-0.108-0.062-0.236-0.135-0.382-0.22C240.659,308.058,240.599,308.176,240.515,308.341z"/>
			<path style="fill:#FFFFFF;" d="M209.404,273c-0.139-0.07-0.257-0.131-0.393-0.2c-0.065,0.128-0.125,0.246-0.205,0.403
				c0.109,0.062,0.237,0.136,0.383,0.219C209.26,273.283,209.321,273.164,209.404,273z"/>
			<path style="fill:#FFFFFF;" d="M239.486,318.754c-0.139-0.07-0.257-0.131-0.393-0.2c-0.065,0.127-0.125,0.246-0.205,0.403
				c0.109,0.062,0.237,0.135,0.384,0.219C239.342,319.036,239.403,318.917,239.486,318.754z"/>
			<path style="fill:#FFFFFF;" d="M201.778,272.893c-0.137-0.07-0.256-0.13-0.393-0.2c-0.064,0.127-0.124,0.245-0.204,0.403
				c0.108,0.062,0.236,0.135,0.382,0.219C201.634,273.177,201.694,273.059,201.778,272.893z"/>
			<path style="fill:#FFFFFF;" d="M240.575,316.145c0.157-0.057,0.246-0.09,0.37-0.135c-0.023-0.12-0.044-0.229-0.072-0.377
				c-0.135,0.025-0.257,0.047-0.425,0.077C240.491,315.86,240.522,315.966,240.575,316.145z"/>
			<path style="fill:#FFFFFF;" d="M233.591,285.555c-0.049-0.169-0.08-0.275-0.14-0.48c-0.171,0.088-0.27,0.139-0.404,0.207
				c0.031,0.119,0.059,0.225,0.096,0.369C233.271,285.624,233.379,285.601,233.591,285.555z"/>
			<path style="fill:#FFFFFF;" d="M240.681,300.839c0.156-0.057,0.246-0.09,0.37-0.135c-0.023-0.12-0.044-0.229-0.073-0.377
				c-0.134,0.025-0.257,0.047-0.425,0.077C240.597,300.554,240.628,300.66,240.681,300.839z"/>
			<path style="fill:#FFFFFF;" d="M239.478,295.749c-0.156,0.057-0.246,0.09-0.37,0.136c0.023,0.121,0.044,0.23,0.072,0.377
				c0.134-0.025,0.257-0.047,0.425-0.077C239.561,296.034,239.531,295.929,239.478,295.749z"/>
			<path style="fill:#FFFFFF;" d="M172.443,292.808c0.082-0.005,0.177-0.011,0.323-0.021c-0.069-0.18-0.117-0.305-0.179-0.469
				c-0.081,0.086-0.144,0.123-0.148,0.164C172.428,292.606,172.441,292.733,172.443,292.808z"/>
			<path style="fill:#FFFFFF;" d="M237.716,291.412c0.047,0.096,0.063,0.165,0.106,0.202
				C237.904,291.387,237.825,291.408,237.716,291.412z"/>
		</g>
	</g>
</g>
</svg>
