<svg version="1.1" xmlns="http://www.w3.org/2000/svg" xmlns:xlink="http://www.w3.org/1999/xlink" x="0px" y="0px"
	 viewBox="0 0 750 500" style="enable-background:new 0 0 750 500;" xml:space="preserve">
<g id="BACKGROUND_1_">
	<rect style="fill:#FFFFFF;" width="750" height="500"/>
</g>
<g id="OBJECTS">
	
		<text transform="matrix(1 0 0 1 78.7647 100.0848)" style="fill:#0073CD; font-family:'AntipastoPro-DemiBold'; font-size:28.5825px;">I stay at home</text>
	<g>
		<path style="fill:#DAF5FF;" d="M371.433,124.291c-26.754,12.248-53.145,32.782-57.924,61.816
			c-4.218,25.63,10.192,51.576,30.549,67.71c20.357,16.134,45.85,24.162,70.987,30.707c53.117,13.831,107.571,22.524,162.355,25.918
			c16.692,1.034,33.62,1.561,49.973-1.946c16.352-3.507,32.273-11.445,42.495-24.681c35.427-45.868-9.701-101.346-47.474-127.121
			c-52.509-35.831-117.389-58.15-181.219-51.34C417.122,107.92,393.44,114.216,371.433,124.291z"/>
		<path style="fill:#DAF5FF;" d="M104.216,180.828c-13.003,16.74-18.003,40.519-9.148,59.778
			c6.961,15.14,21.711,25.952,37.848,30.109c16.137,4.156,33.456,2.118,49.098-3.626c18.198-6.684,36.792-18.478,55.447-13.199
			c19.018,5.382,33.398,27.734,52.764,23.781c16.512-3.371,22.864-24.017,21.536-40.817
			C304.172,140.897,161.176,107.501,104.216,180.828z"/>
		<path style="fill:none;stroke:#DAF5FF;stroke-width:12.4919;stroke-linecap:round;stroke-miterlimit:10;" d="M265.176,147.183
			c6.977,4.868,13.954,9.735,20.931,14.603"/>
		<path style="fill:none;stroke:#DAF5FF;stroke-width:12.4919;stroke-linecap:round;stroke-miterlimit:10;" d="M212.154,267.371
			c0.444,0,0.889,0,1.333,0"/>
		<path style="fill:none;stroke:#DAF5FF;stroke-width:12.4919;stroke-linecap:round;stroke-miterlimit:10;" d="M668.509,301.085
			c7.422-6.682,13.276-15.093,16.965-24.372"/>
		<path style="fill:none;stroke:#DAF5FF;stroke-width:12.4919;stroke-linecap:round;stroke-miterlimit:10;" d="M360.512,116.548
			c17.221-7.832,35.344-13.678,53.894-17.386"/>
		<path style="fill:none;stroke:#DAF5FF;stroke-width:12.4919;stroke-linecap:round;stroke-miterlimit:10;" d="M431.249,95.828
			C431.842,95.828,430.657,95.828,431.249,95.828"/>
		<path style="fill:#E6B8FE;" d="M313.263,143.859c-9.488,9.19-15.056,22.253-7.071,34.557c4.055,6.248,11.148,10.035,18.434,11.582
			c10.615,2.255,22.279,0.018,30.8-6.701c8.521-6.719,13.473-17.996,11.834-28.723c-2.89-18.917-22.029-27.563-38.986-20.637
			C323.072,136.062,317.732,139.531,313.263,143.859z"/>
		<path style="fill:#C29CFD;" d="M369.426,134.508c-1.07,3.595,0.62,7.61,3.449,10.074c3.528,3.074,8.933,3.985,13.091,1.837
			c4.157-2.147,6.557-7.423,5.051-11.853C388.225,126.357,372.022,125.787,369.426,134.508z"/>
		<path style="fill:#86C1FD;" d="M451.45,98.767c-2.265,3.866-2.455,9.1,0.244,12.676c2.877,3.813,8.053,4.922,12.791,5.522
			c5.511,0.698,11.239,1.055,16.503-0.719c5.264-1.774,9.991-6.13,10.686-11.641C494.45,82.603,459.217,85.51,451.45,98.767z"/>
		<path style="fill:#86C1FD;" d="M81.104,211.816c-2.877,6.079-3.25,13.299-1.014,19.642c1.741,4.94,5.522,9.634,10.693,10.468
			c5.417,0.874,10.701-2.788,13.678-7.397c3.509-5.433,4.612-12.362,2.962-18.616c-1.366-5.177-6.207-13.592-11.805-15.189
			C89.269,198.912,83.464,206.83,81.104,211.816z"/>
		<path style="fill:#C29CFD;" d="M162.039,139.272c-3.807-2.567-9.369-1.106-12.134,2.305c-4.793,5.913-1.341,14.22,6.582,13.473
			c3.619-0.342,7.071-2.692,8.381-6.082C166.178,145.577,165.053,141.304,162.039,139.272z"/>
		<path style="fill:#E6B8FE;" d="M185.289,292.367c3.619,1.483,8.128,0.415,10.697-2.534c5.755-6.605-1.178-17.019-9.413-15.365
			C177.815,276.227,177.253,289.073,185.289,292.367z"/>
		<g>
			<g>
				<g>
					<path style="fill:#C9E5FF;" d="M410.091,129.112c-0.036-0.087-0.079-0.165-0.13-0.245c-0.05-0.079-0.108-0.151-0.173-0.216
						c-0.065-0.065-0.144-0.129-0.216-0.18c-0.079-0.051-0.165-0.093-0.252-0.129c-0.079-0.037-0.173-0.065-0.266-0.079
						c-0.18-0.036-0.367-0.036-0.555,0c-0.086,0.015-0.18,0.043-0.259,0.079c-0.086,0.036-0.173,0.079-0.252,0.129
						c-0.072,0.051-0.151,0.115-0.216,0.18c-0.065,0.065-0.122,0.137-0.173,0.216c-0.05,0.079-0.094,0.158-0.13,0.245
						c-0.036,0.087-0.065,0.173-0.086,0.266c-0.014,0.094-0.021,0.187-0.021,0.281c0,0.086,0.007,0.18,0.021,0.274
						c0.022,0.086,0.051,0.18,0.086,0.266c0.036,0.086,0.079,0.165,0.13,0.245c0.05,0.079,0.108,0.151,0.18,0.216
						c0.259,0.259,0.626,0.418,1.001,0.418c0.375,0,0.742-0.158,1.008-0.418c0.065-0.065,0.123-0.137,0.173-0.216
						c0.05-0.079,0.094-0.159,0.13-0.245c0.036-0.087,0.065-0.18,0.079-0.266c0.021-0.094,0.029-0.188,0.029-0.274
						c0-0.094-0.007-0.188-0.029-0.281C410.156,129.285,410.127,129.198,410.091,129.112z"/>
				</g>
			</g>
			<g>
				<g>
					<path style="fill:#C9E5FF;" d="M423.376,129.112c-0.036-0.087-0.079-0.165-0.129-0.245c-0.051-0.079-0.108-0.151-0.173-0.216
						c-0.065-0.065-0.144-0.129-0.216-0.18c-0.079-0.051-0.166-0.093-0.252-0.129c-0.079-0.037-0.173-0.065-0.259-0.079
						c-0.468-0.094-0.958,0.058-1.289,0.389c-0.065,0.065-0.122,0.137-0.173,0.216c-0.05,0.079-0.094,0.158-0.129,0.245
						c-0.036,0.087-0.065,0.173-0.08,0.266c-0.021,0.094-0.029,0.187-0.029,0.281c0,0.086,0.007,0.18,0.029,0.274
						c0.014,0.086,0.043,0.18,0.08,0.266c0.036,0.086,0.079,0.165,0.129,0.245c0.051,0.079,0.108,0.151,0.173,0.216
						c0.266,0.259,0.634,0.418,1.008,0.418c0.374,0,0.741-0.158,1.001-0.418c0.072-0.065,0.129-0.137,0.18-0.216
						c0.05-0.079,0.094-0.159,0.129-0.245c0.036-0.087,0.065-0.18,0.079-0.266c0.022-0.094,0.029-0.188,0.029-0.274
						c0-0.094-0.007-0.188-0.029-0.281C423.441,129.285,423.412,129.198,423.376,129.112z"/>
				</g>
			</g>
			<g>
				<g>
					<path style="fill:#C9E5FF;" d="M436.661,129.112c-0.036-0.087-0.079-0.165-0.13-0.245c-0.05-0.079-0.108-0.151-0.18-0.216
						c-0.324-0.331-0.821-0.482-1.282-0.389c-0.086,0.015-0.18,0.043-0.266,0.079c-0.087,0.036-0.166,0.079-0.245,0.129
						c-0.079,0.051-0.151,0.115-0.216,0.18c-0.065,0.065-0.122,0.137-0.173,0.216c-0.051,0.079-0.094,0.158-0.13,0.245
						c-0.036,0.087-0.065,0.173-0.079,0.266c-0.022,0.094-0.029,0.187-0.029,0.281c0,0.086,0.007,0.18,0.029,0.274
						c0.014,0.086,0.043,0.18,0.079,0.266c0.036,0.086,0.079,0.165,0.13,0.245c0.05,0.079,0.108,0.151,0.173,0.216
						c0.266,0.259,0.634,0.418,1.008,0.418c0.374,0,0.742-0.158,1.001-0.418c0.065-0.065,0.13-0.137,0.18-0.216
						c0.051-0.079,0.094-0.159,0.13-0.245c0.036-0.087,0.065-0.18,0.079-0.266c0.022-0.094,0.029-0.188,0.029-0.274
						c0-0.094-0.007-0.188-0.029-0.281C436.725,129.285,436.697,129.198,436.661,129.112z"/>
				</g>
			</g>
			<g>
				<g>
					<path style="fill:#C9E5FF;" d="M410.091,142.397c-0.036-0.087-0.079-0.165-0.13-0.245c-0.05-0.079-0.108-0.151-0.173-0.216
						c-0.533-0.533-1.483-0.533-2.009,0c-0.072,0.065-0.13,0.136-0.18,0.216c-0.05,0.08-0.094,0.158-0.13,0.245
						c-0.036,0.086-0.065,0.173-0.079,0.266c-0.022,0.087-0.029,0.18-0.029,0.274c0,0.375,0.151,0.742,0.418,1.008
						c0.065,0.065,0.137,0.122,0.216,0.173c0.072,0.05,0.159,0.093,0.245,0.129c0.086,0.036,0.173,0.065,0.259,0.087
						c0.094,0.014,0.187,0.029,0.28,0.029c0.094,0,0.188-0.015,0.281-0.029c0.087-0.022,0.18-0.051,0.267-0.087
						c0.079-0.036,0.166-0.079,0.245-0.129c0.072-0.051,0.144-0.108,0.216-0.173c0.065-0.065,0.123-0.137,0.173-0.216
						c0.05-0.079,0.094-0.159,0.13-0.245c0.036-0.086,0.065-0.18,0.086-0.266c0.014-0.094,0.022-0.188,0.022-0.281
						c0-0.094-0.007-0.18-0.022-0.274C410.156,142.57,410.127,142.483,410.091,142.397z"/>
				</g>
			</g>
			<g>
				<g>
					<path style="fill:#C9E5FF;" d="M423.376,142.397c-0.036-0.087-0.079-0.165-0.129-0.245c-0.051-0.079-0.108-0.151-0.173-0.216
						s-0.144-0.13-0.216-0.18c-0.079-0.051-0.166-0.094-0.252-0.13c-0.079-0.036-0.173-0.065-0.259-0.079
						c-0.468-0.093-0.958,0.058-1.289,0.389c-0.065,0.065-0.122,0.136-0.173,0.216c-0.05,0.08-0.094,0.158-0.129,0.245
						c-0.036,0.086-0.065,0.173-0.087,0.266c-0.014,0.094-0.022,0.18-0.022,0.274c0,0.093,0.007,0.187,0.022,0.281
						c0.021,0.086,0.05,0.18,0.087,0.266c0.036,0.086,0.079,0.166,0.129,0.245c0.051,0.079,0.108,0.151,0.173,0.216
						c0.065,0.065,0.144,0.122,0.216,0.173c0.079,0.05,0.166,0.093,0.245,0.129c0.087,0.036,0.18,0.065,0.267,0.087
						c0.094,0.014,0.188,0.029,0.281,0.029s0.187-0.015,0.281-0.029c0.086-0.022,0.18-0.051,0.259-0.087
						c0.087-0.036,0.173-0.079,0.245-0.129c0.079-0.051,0.151-0.108,0.216-0.173c0.266-0.267,0.417-0.634,0.417-1.008
						c0-0.094-0.007-0.187-0.029-0.274C423.441,142.57,423.412,142.483,423.376,142.397z"/>
				</g>
			</g>
			<g>
				<g>
					<path style="fill:#C9E5FF;" d="M436.661,142.397c-0.036-0.087-0.079-0.165-0.13-0.245c-0.05-0.079-0.108-0.151-0.173-0.216
						c-0.331-0.331-0.828-0.482-1.289-0.389c-0.086,0.014-0.18,0.043-0.266,0.079c-0.079,0.037-0.166,0.079-0.245,0.13
						c-0.079,0.05-0.151,0.115-0.216,0.18c-0.065,0.065-0.122,0.136-0.173,0.216c-0.051,0.08-0.094,0.158-0.13,0.245
						c-0.036,0.086-0.065,0.173-0.079,0.266c-0.022,0.087-0.029,0.18-0.029,0.274c0,0.375,0.151,0.742,0.418,1.008
						c0.259,0.266,0.627,0.418,1.001,0.418c0.094,0,0.187-0.015,0.274-0.029c0.094-0.022,0.18-0.051,0.266-0.087
						c0.086-0.036,0.173-0.079,0.252-0.129c0.072-0.051,0.144-0.108,0.216-0.173c0.065-0.065,0.122-0.137,0.173-0.216
						c0.051-0.079,0.094-0.159,0.13-0.245c0.036-0.086,0.065-0.18,0.079-0.266c0.022-0.094,0.029-0.188,0.029-0.281
						c0-0.094-0.007-0.18-0.029-0.274C436.725,142.57,436.697,142.483,436.661,142.397z"/>
				</g>
			</g>
			<g>
				<g>
					<path style="fill:#C9E5FF;" d="M410.091,155.682c-0.036-0.086-0.079-0.173-0.13-0.245c-0.05-0.079-0.108-0.151-0.173-0.216
						c-0.072-0.073-0.144-0.13-0.216-0.18c-0.079-0.051-0.165-0.094-0.245-0.13c-0.087-0.036-0.18-0.065-0.267-0.079
						c-0.187-0.037-0.374-0.037-0.561,0c-0.086,0.014-0.18,0.043-0.267,0.079c-0.079,0.036-0.166,0.079-0.245,0.13
						c-0.072,0.05-0.144,0.108-0.208,0.18c-0.072,0.065-0.13,0.136-0.18,0.216c-0.05,0.072-0.094,0.158-0.13,0.245
						c-0.036,0.087-0.065,0.173-0.079,0.267c-0.022,0.086-0.029,0.18-0.029,0.273c0,0.094,0.007,0.187,0.029,0.281
						c0.014,0.087,0.043,0.18,0.079,0.267c0.036,0.086,0.079,0.166,0.13,0.245c0.05,0.079,0.108,0.151,0.18,0.217
						c0.259,0.259,0.626,0.41,1.001,0.41c0.094,0,0.188-0.007,0.281-0.021c0.087-0.022,0.18-0.051,0.267-0.087
						c0.079-0.037,0.166-0.079,0.245-0.13c0.072-0.05,0.144-0.108,0.216-0.172c0.065-0.065,0.123-0.137,0.173-0.217
						c0.05-0.079,0.094-0.158,0.13-0.245c0.036-0.087,0.065-0.18,0.086-0.267c0.014-0.094,0.022-0.187,0.022-0.281
						c0-0.094-0.007-0.187-0.022-0.273C410.156,155.855,410.127,155.768,410.091,155.682z"/>
				</g>
			</g>
			<g>
				<g>
					<path style="fill:#C9E5FF;" d="M423.376,155.682c-0.036-0.086-0.079-0.173-0.129-0.245c-0.051-0.079-0.108-0.151-0.18-0.216
						c-0.065-0.073-0.137-0.13-0.209-0.18c-0.079-0.051-0.166-0.094-0.245-0.13c-0.086-0.036-0.18-0.065-0.266-0.079
						c-0.187-0.037-0.374-0.037-0.562,0c-0.086,0.014-0.18,0.043-0.259,0.079c-0.087,0.036-0.173,0.079-0.252,0.13
						c-0.072,0.05-0.144,0.108-0.216,0.18c-0.065,0.065-0.122,0.136-0.173,0.216c-0.05,0.072-0.094,0.158-0.129,0.245
						c-0.036,0.087-0.065,0.173-0.087,0.267c-0.014,0.086-0.022,0.18-0.022,0.273c0,0.094,0.007,0.187,0.022,0.281
						c0.021,0.087,0.05,0.18,0.087,0.267c0.036,0.086,0.079,0.166,0.129,0.245c0.051,0.079,0.108,0.151,0.173,0.217
						c0.072,0.065,0.144,0.122,0.216,0.172c0.079,0.051,0.166,0.093,0.252,0.13c0.079,0.036,0.173,0.065,0.259,0.087
						c0.094,0.014,0.188,0.021,0.281,0.021c0.374,0,0.741-0.151,1.001-0.41c0.072-0.065,0.129-0.137,0.18-0.217
						c0.05-0.079,0.094-0.158,0.129-0.245c0.036-0.087,0.065-0.18,0.079-0.267c0.022-0.094,0.029-0.187,0.029-0.281
						c0-0.094-0.007-0.187-0.029-0.273C423.441,155.855,423.412,155.768,423.376,155.682z"/>
				</g>
			</g>
			<g>
				<g>
					<path style="fill:#C9E5FF;" d="M436.661,155.682c-0.036-0.086-0.079-0.173-0.13-0.245c-0.05-0.079-0.108-0.151-0.173-0.216
						c-0.065-0.073-0.144-0.13-0.216-0.18c-0.079-0.051-0.166-0.094-0.252-0.13c-0.079-0.036-0.173-0.065-0.259-0.079
						c-0.187-0.037-0.375-0.037-0.562,0c-0.086,0.014-0.18,0.043-0.266,0.079c-0.079,0.036-0.166,0.079-0.245,0.13
						c-0.072,0.05-0.151,0.108-0.216,0.18c-0.065,0.065-0.122,0.136-0.173,0.216c-0.051,0.072-0.094,0.158-0.13,0.245
						c-0.036,0.087-0.065,0.173-0.087,0.267c-0.014,0.086-0.029,0.18-0.029,0.273c0,0.094,0.014,0.187,0.029,0.281
						c0.022,0.087,0.051,0.18,0.087,0.267c0.036,0.086,0.079,0.166,0.13,0.245c0.05,0.079,0.108,0.151,0.173,0.217
						c0.065,0.065,0.144,0.122,0.216,0.172c0.079,0.051,0.165,0.093,0.245,0.13c0.086,0.036,0.18,0.065,0.266,0.087
						c0.094,0.014,0.187,0.021,0.281,0.021c0.094,0,0.187-0.007,0.274-0.021c0.094-0.022,0.18-0.051,0.266-0.087
						c0.086-0.037,0.173-0.079,0.245-0.13c0.079-0.05,0.151-0.108,0.216-0.172c0.065-0.065,0.13-0.137,0.18-0.217
						c0.051-0.079,0.094-0.158,0.13-0.245c0.036-0.087,0.065-0.18,0.079-0.267c0.022-0.094,0.029-0.187,0.029-0.281
						c0-0.094-0.007-0.187-0.029-0.273C436.725,155.855,436.697,155.768,436.661,155.682z"/>
				</g>
			</g>
			<g>
				<g>
					<path style="fill:#C9E5FF;" d="M410.091,168.967c-0.036-0.087-0.079-0.173-0.13-0.245c-0.05-0.079-0.108-0.151-0.173-0.217
						c-0.533-0.532-1.483-0.532-2.016,0c-0.065,0.065-0.122,0.137-0.173,0.217c-0.05,0.072-0.094,0.158-0.13,0.245
						c-0.036,0.087-0.065,0.173-0.079,0.267c-0.022,0.087-0.029,0.18-0.029,0.273c0,0.094,0.007,0.187,0.029,0.281
						c0.014,0.087,0.043,0.18,0.079,0.266c0.036,0.087,0.079,0.166,0.13,0.245c0.05,0.079,0.108,0.151,0.173,0.216
						c0.267,0.267,0.634,0.418,1.008,0.418c0.375,0,0.742-0.151,1.008-0.418c0.065-0.065,0.123-0.136,0.173-0.216
						c0.05-0.079,0.094-0.158,0.13-0.245c0.036-0.086,0.065-0.18,0.079-0.266c0.021-0.094,0.029-0.187,0.029-0.281
						c0-0.093-0.007-0.187-0.029-0.273C410.156,169.14,410.127,169.053,410.091,168.967z"/>
				</g>
			</g>
			<g>
				<g>
					<path style="fill:#C9E5FF;" d="M423.376,168.967c-0.036-0.087-0.079-0.173-0.129-0.245c-0.051-0.079-0.108-0.151-0.173-0.217
						c-0.533-0.532-1.483-0.532-2.016,0c-0.065,0.065-0.122,0.137-0.173,0.217c-0.05,0.072-0.094,0.158-0.129,0.245
						c-0.036,0.087-0.065,0.173-0.08,0.267c-0.021,0.087-0.029,0.18-0.029,0.273c0,0.094,0.007,0.187,0.029,0.281
						c0.014,0.087,0.043,0.18,0.08,0.266c0.036,0.087,0.079,0.166,0.129,0.245c0.051,0.079,0.108,0.151,0.173,0.216
						c0.266,0.267,0.634,0.418,1.008,0.418c0.374,0,0.741-0.151,1.008-0.418c0.065-0.065,0.122-0.136,0.173-0.216
						c0.05-0.079,0.094-0.158,0.129-0.245c0.036-0.086,0.065-0.18,0.079-0.266c0.022-0.094,0.029-0.187,0.029-0.281
						c0-0.093-0.007-0.187-0.029-0.273C423.441,169.14,423.412,169.053,423.376,168.967z"/>
				</g>
			</g>
			<g>
				<g>
					<path style="fill:#C9E5FF;" d="M436.661,168.967c-0.036-0.087-0.079-0.173-0.13-0.245c-0.05-0.079-0.108-0.151-0.173-0.217
						c-0.331-0.331-0.828-0.482-1.289-0.389c-0.086,0.015-0.18,0.044-0.266,0.079c-0.079,0.036-0.166,0.079-0.245,0.129
						c-0.072,0.051-0.151,0.115-0.216,0.18c-0.065,0.065-0.122,0.137-0.173,0.217c-0.051,0.072-0.094,0.158-0.13,0.245
						c-0.036,0.087-0.065,0.173-0.079,0.267c-0.022,0.087-0.029,0.18-0.029,0.273c0,0.094,0.007,0.187,0.029,0.281
						c0.014,0.087,0.043,0.18,0.079,0.266c0.036,0.087,0.079,0.166,0.13,0.245c0.05,0.079,0.108,0.151,0.173,0.216
						c0.266,0.267,0.634,0.418,1.008,0.418c0.094,0,0.187-0.014,0.274-0.029c0.094-0.021,0.18-0.05,0.266-0.079
						c0.086-0.036,0.173-0.087,0.245-0.137c0.079-0.051,0.151-0.107,0.216-0.173c0.065-0.065,0.13-0.136,0.18-0.216
						c0.051-0.079,0.094-0.158,0.13-0.245c0.036-0.086,0.065-0.18,0.079-0.266c0.022-0.094,0.029-0.187,0.029-0.281
						c0-0.093-0.007-0.187-0.029-0.273C436.725,169.14,436.697,169.053,436.661,168.967z"/>
				</g>
			</g>
			<g>
				<g>
					<path style="fill:#C9E5FF;" d="M410.091,182.252c-0.036-0.086-0.079-0.173-0.13-0.245c-0.05-0.079-0.108-0.151-0.173-0.216
						c-0.525-0.533-1.49-0.533-2.016,0c-0.065,0.065-0.122,0.137-0.173,0.216c-0.05,0.072-0.094,0.159-0.13,0.245
						c-0.036,0.086-0.065,0.172-0.079,0.266c-0.022,0.087-0.029,0.18-0.029,0.274c0,0.374,0.151,0.741,0.41,1.008
						c0.072,0.065,0.144,0.122,0.223,0.173c0.072,0.051,0.159,0.094,0.245,0.129c0.079,0.036,0.173,0.065,0.259,0.079
						c0.094,0.022,0.187,0.029,0.28,0.029c0.094,0,0.188-0.007,0.281-0.029c0.087-0.015,0.18-0.044,0.267-0.079
						c0.079-0.036,0.166-0.079,0.245-0.129c0.072-0.051,0.144-0.108,0.216-0.173c0.26-0.267,0.411-0.633,0.411-1.008
						c0-0.094-0.007-0.188-0.022-0.274C410.156,182.424,410.127,182.338,410.091,182.252z"/>
				</g>
			</g>
			<g>
				<g>
					<path style="fill:#C9E5FF;" d="M423.376,182.252c-0.036-0.086-0.079-0.173-0.129-0.245c-0.051-0.079-0.108-0.151-0.173-0.216
						c-0.072-0.072-0.144-0.129-0.216-0.18c-0.079-0.05-0.166-0.093-0.252-0.129c-0.079-0.036-0.173-0.065-0.259-0.079
						c-0.468-0.094-0.958,0.058-1.289,0.389c-0.065,0.065-0.122,0.137-0.173,0.216c-0.05,0.072-0.094,0.159-0.129,0.245
						c-0.036,0.086-0.065,0.172-0.087,0.266c-0.014,0.087-0.022,0.18-0.022,0.274c0,0.374,0.151,0.741,0.411,1.008
						c0.266,0.259,0.634,0.411,1.008,0.411c0.094,0,0.187-0.007,0.281-0.029c0.086-0.015,0.18-0.044,0.259-0.079
						c0.087-0.036,0.173-0.079,0.252-0.129c0.072-0.051,0.144-0.108,0.216-0.173c0.259-0.267,0.41-0.633,0.41-1.008
						c0-0.094-0.007-0.188-0.021-0.274C423.441,182.424,423.412,182.338,423.376,182.252z"/>
				</g>
			</g>
			<g>
				<g>
					<path style="fill:#C9E5FF;" d="M436.661,182.252c-0.036-0.086-0.079-0.173-0.13-0.245c-0.05-0.079-0.108-0.151-0.173-0.216
						c-0.072-0.072-0.144-0.129-0.216-0.18c-0.079-0.05-0.166-0.093-0.252-0.129c-0.079-0.036-0.173-0.065-0.259-0.079
						c-0.461-0.094-0.958,0.058-1.289,0.389c-0.065,0.065-0.122,0.137-0.173,0.216c-0.051,0.072-0.094,0.159-0.13,0.245
						c-0.036,0.086-0.065,0.172-0.087,0.266c-0.014,0.087-0.021,0.18-0.021,0.274c0,0.374,0.151,0.741,0.41,1.008
						c0.072,0.065,0.144,0.122,0.216,0.173c0.079,0.051,0.165,0.094,0.245,0.129c0.086,0.036,0.18,0.065,0.266,0.079
						c0.094,0.022,0.187,0.029,0.281,0.029c0.094,0,0.187-0.007,0.274-0.029c0.094-0.015,0.18-0.044,0.266-0.079
						c0.086-0.036,0.173-0.079,0.245-0.129c0.079-0.051,0.151-0.108,0.216-0.173c0.267-0.267,0.418-0.633,0.418-1.008
						c0-0.094-0.007-0.188-0.029-0.274C436.725,182.424,436.697,182.338,436.661,182.252z"/>
				</g>
			</g>
		</g>
		<g>
			<g>
				<g>
					<path style="fill:#C9E5FF;" d="M603.152,304.159c-0.036-0.086-0.079-0.173-0.13-0.245c-0.05-0.079-0.115-0.151-0.18-0.216
						c-0.065-0.072-0.137-0.13-0.216-0.18c-0.072-0.051-0.158-0.094-0.245-0.13c-0.086-0.036-0.173-0.065-0.266-0.079
						c-0.18-0.037-0.367-0.037-0.555,0c-0.086,0.014-0.18,0.043-0.266,0.079c-0.086,0.036-0.166,0.079-0.245,0.13
						c-0.079,0.05-0.151,0.108-0.216,0.18c-0.065,0.065-0.122,0.136-0.173,0.216c-0.05,0.072-0.094,0.158-0.13,0.245
						c-0.036,0.087-0.065,0.173-0.086,0.267c-0.015,0.086-0.022,0.18-0.022,0.274c0,0.094,0.007,0.187,0.022,0.281
						c0.021,0.086,0.05,0.18,0.086,0.266c0.036,0.087,0.079,0.166,0.13,0.245c0.05,0.079,0.108,0.151,0.173,0.217
						c0.065,0.065,0.137,0.122,0.216,0.172c0.079,0.051,0.158,0.094,0.245,0.13c0.086,0.036,0.18,0.065,0.266,0.086
						c0.094,0.014,0.187,0.021,0.281,0.021c0.094,0,0.187-0.007,0.273-0.021c0.094-0.022,0.18-0.051,0.266-0.086
						c0.086-0.036,0.173-0.079,0.245-0.13c0.079-0.05,0.151-0.108,0.216-0.172c0.065-0.065,0.13-0.137,0.18-0.217
						c0.051-0.079,0.094-0.158,0.13-0.245c0.036-0.086,0.065-0.18,0.079-0.266c0.022-0.094,0.029-0.187,0.029-0.281
						c0-0.094-0.007-0.187-0.029-0.274C603.217,304.332,603.188,304.246,603.152,304.159z"/>
				</g>
			</g>
			<g>
				<g>
					<path style="fill:#C9E5FF;" d="M616.437,304.159c-0.036-0.086-0.08-0.173-0.13-0.245c-0.05-0.079-0.115-0.151-0.18-0.216
						c-0.065-0.072-0.137-0.13-0.216-0.18c-0.072-0.051-0.159-0.094-0.245-0.13c-0.086-0.036-0.173-0.065-0.266-0.079
						c-0.18-0.037-0.367-0.037-0.555,0c-0.094,0.014-0.18,0.043-0.266,0.079c-0.087,0.036-0.166,0.079-0.245,0.13
						c-0.079,0.05-0.151,0.108-0.216,0.18c-0.065,0.065-0.122,0.136-0.173,0.216c-0.058,0.072-0.101,0.158-0.137,0.245
						c-0.029,0.087-0.057,0.173-0.079,0.267c-0.014,0.086-0.029,0.18-0.029,0.274c0,0.094,0.014,0.187,0.029,0.281
						c0.022,0.086,0.051,0.18,0.079,0.266c0.036,0.087,0.079,0.166,0.137,0.245c0.05,0.079,0.108,0.151,0.173,0.217
						c0.065,0.065,0.137,0.122,0.216,0.172c0.079,0.051,0.159,0.094,0.245,0.13c0.086,0.036,0.173,0.065,0.266,0.086
						c0.094,0.014,0.187,0.021,0.281,0.021c0.375,0,0.742-0.151,1.001-0.41c0.065-0.065,0.13-0.137,0.18-0.217
						c0.05-0.079,0.094-0.158,0.13-0.245c0.036-0.086,0.065-0.18,0.079-0.266c0.021-0.094,0.029-0.187,0.029-0.281
						c0-0.094-0.007-0.187-0.029-0.274C616.502,304.332,616.473,304.246,616.437,304.159z"/>
				</g>
			</g>
			<g>
				<g>
					<path style="fill:#C9E5FF;" d="M603.152,317.444c-0.036-0.086-0.079-0.173-0.13-0.245c-0.05-0.079-0.115-0.151-0.18-0.217
						c-0.065-0.065-0.137-0.129-0.216-0.18c-0.072-0.05-0.158-0.094-0.245-0.129c-0.086-0.036-0.173-0.065-0.266-0.079
						c-0.461-0.101-0.95,0.057-1.282,0.389c-0.065,0.065-0.122,0.137-0.173,0.217c-0.05,0.072-0.101,0.158-0.137,0.245
						c-0.029,0.086-0.058,0.173-0.079,0.267c-0.015,0.086-0.029,0.18-0.029,0.273s0.014,0.187,0.029,0.281
						c0.021,0.086,0.05,0.18,0.079,0.266c0.036,0.086,0.086,0.166,0.137,0.245c0.05,0.079,0.108,0.151,0.173,0.216
						c0.267,0.267,0.634,0.418,1.008,0.418c0.094,0,0.187-0.014,0.273-0.029c0.094-0.021,0.18-0.05,0.266-0.079
						c0.086-0.037,0.173-0.087,0.245-0.137c0.079-0.051,0.151-0.108,0.216-0.173c0.065-0.065,0.13-0.136,0.18-0.216
						c0.051-0.079,0.094-0.158,0.13-0.245c0.036-0.086,0.065-0.18,0.079-0.266c0.022-0.094,0.029-0.187,0.029-0.281
						s-0.007-0.187-0.029-0.273C603.217,317.617,603.188,317.53,603.152,317.444z"/>
				</g>
			</g>
			<g>
				<g>
					<path style="fill:#C9E5FF;" d="M616.437,317.444c-0.036-0.086-0.08-0.173-0.13-0.245c-0.05-0.079-0.115-0.151-0.18-0.217
						c-0.526-0.532-1.476-0.532-2.009,0c-0.065,0.065-0.122,0.137-0.173,0.217c-0.058,0.072-0.101,0.158-0.137,0.245
						c-0.036,0.086-0.057,0.173-0.079,0.267c-0.014,0.086-0.029,0.18-0.029,0.273s0.014,0.187,0.029,0.281
						c0.022,0.086,0.043,0.18,0.079,0.266c0.036,0.086,0.079,0.166,0.137,0.245c0.05,0.079,0.108,0.151,0.173,0.216
						c0.267,0.267,0.634,0.418,1.008,0.418c0.367,0,0.735-0.151,1.001-0.418c0.065-0.065,0.13-0.136,0.18-0.216
						c0.05-0.079,0.094-0.158,0.13-0.245c0.036-0.086,0.065-0.18,0.079-0.266c0.021-0.094,0.029-0.187,0.029-0.281
						s-0.007-0.187-0.029-0.273C616.502,317.617,616.473,317.53,616.437,317.444z"/>
				</g>
			</g>
			<g>
				<g>
					<path style="fill:#C9E5FF;" d="M603.152,330.729c-0.036-0.086-0.079-0.173-0.13-0.245c-0.05-0.079-0.115-0.151-0.18-0.216
						c-0.526-0.533-1.483-0.533-2.009,0c-0.065,0.065-0.122,0.137-0.173,0.216c-0.05,0.073-0.101,0.159-0.13,0.245
						c-0.036,0.086-0.065,0.172-0.086,0.266c-0.015,0.087-0.029,0.18-0.029,0.274c0,0.374,0.151,0.741,0.417,1.008
						c0.065,0.065,0.137,0.122,0.216,0.173c0.079,0.051,0.158,0.094,0.245,0.129c0.086,0.036,0.18,0.065,0.266,0.079
						c0.094,0.022,0.187,0.029,0.281,0.029c0.094,0,0.187-0.007,0.273-0.029c0.094-0.015,0.18-0.044,0.266-0.079
						c0.086-0.036,0.173-0.079,0.245-0.129c0.079-0.051,0.151-0.108,0.216-0.173c0.266-0.266,0.418-0.634,0.418-1.008
						c0-0.094-0.007-0.188-0.029-0.274C603.217,330.901,603.188,330.815,603.152,330.729z"/>
				</g>
			</g>
			<g>
				<g>
					<path style="fill:#C9E5FF;" d="M616.437,330.729c-0.036-0.086-0.08-0.173-0.13-0.245c-0.05-0.079-0.115-0.151-0.18-0.216
						c-0.065-0.072-0.137-0.129-0.216-0.18c-0.072-0.05-0.159-0.094-0.245-0.129c-0.086-0.036-0.173-0.065-0.266-0.079
						c-0.461-0.094-0.951,0.058-1.282,0.389c-0.065,0.065-0.122,0.137-0.173,0.216c-0.058,0.073-0.101,0.159-0.137,0.245
						c-0.029,0.086-0.057,0.172-0.079,0.266c-0.014,0.087-0.029,0.18-0.029,0.274c0,0.374,0.151,0.741,0.418,1.008
						c0.267,0.259,0.634,0.411,1.008,0.411c0.094,0,0.188-0.007,0.274-0.029c0.094-0.015,0.18-0.044,0.266-0.079
						c0.086-0.036,0.166-0.079,0.245-0.129c0.079-0.051,0.151-0.108,0.216-0.173c0.266-0.266,0.418-0.634,0.418-1.008
						c0-0.094-0.007-0.188-0.029-0.274C616.502,330.901,616.473,330.815,616.437,330.729z"/>
				</g>
			</g>
		</g>
		<g>
			<g>
				<g>
					<path style="fill:#C9E5FF;" d="M144.411,242.931c-0.036-0.087-0.079-0.165-0.129-0.245c-0.05-0.079-0.108-0.151-0.18-0.216
						c-0.065-0.065-0.137-0.129-0.216-0.18c-0.072-0.051-0.158-0.093-0.245-0.129c-0.087-0.037-0.173-0.065-0.266-0.079
						c-0.18-0.036-0.367-0.036-0.554,0c-0.086,0.015-0.18,0.043-0.266,0.079c-0.087,0.036-0.166,0.079-0.245,0.129
						c-0.079,0.051-0.151,0.115-0.216,0.18c-0.065,0.065-0.122,0.137-0.173,0.216c-0.05,0.079-0.101,0.158-0.129,0.245
						c-0.036,0.086-0.065,0.173-0.087,0.266c-0.014,0.094-0.029,0.187-0.029,0.281c0,0.086,0.014,0.18,0.029,0.273
						c0.021,0.087,0.05,0.18,0.087,0.267c0.036,0.086,0.079,0.165,0.129,0.245c0.051,0.079,0.108,0.151,0.173,0.216
						c0.266,0.259,0.633,0.418,1.008,0.418c0.374,0,0.742-0.158,1.001-0.418c0.065-0.065,0.129-0.137,0.18-0.216
						c0.05-0.079,0.094-0.159,0.129-0.245c0.036-0.087,0.065-0.18,0.079-0.267c0.021-0.093,0.029-0.188,0.029-0.273
						c0-0.094-0.007-0.188-0.029-0.281C144.476,243.104,144.447,243.018,144.411,242.931z"/>
				</g>
			</g>
			<g>
				<g>
					<path style="fill:#C9E5FF;" d="M157.696,242.931c-0.036-0.087-0.079-0.165-0.13-0.245c-0.05-0.079-0.115-0.151-0.18-0.216
						c-0.324-0.331-0.821-0.482-1.282-0.389c-0.086,0.015-0.18,0.043-0.266,0.079c-0.086,0.036-0.165,0.079-0.245,0.129
						c-0.079,0.051-0.151,0.115-0.216,0.18c-0.065,0.065-0.122,0.137-0.173,0.216c-0.05,0.079-0.094,0.158-0.13,0.245
						c-0.036,0.086-0.065,0.173-0.086,0.266c-0.014,0.094-0.029,0.187-0.029,0.281c0,0.086,0.014,0.18,0.029,0.273
						c0.021,0.087,0.05,0.18,0.086,0.267c0.036,0.086,0.08,0.165,0.13,0.245c0.05,0.079,0.108,0.151,0.173,0.216
						c0.266,0.259,0.634,0.418,1.008,0.418c0.374,0,0.741-0.158,1.001-0.418c0.065-0.065,0.13-0.137,0.18-0.216
						c0.051-0.079,0.094-0.159,0.13-0.245c0.036-0.087,0.065-0.18,0.079-0.267c0.022-0.093,0.029-0.188,0.029-0.273
						c0-0.094-0.007-0.188-0.029-0.281C157.76,243.104,157.732,243.018,157.696,242.931z"/>
				</g>
			</g>
			<g>
				<g>
					<path style="fill:#C9E5FF;" d="M168.352,244.019c0.036,0.086,0.079,0.165,0.137,0.245c0.05,0.079,0.108,0.151,0.173,0.216
						c0.267,0.259,0.634,0.418,1.008,0.418c0.086,0,0.18-0.015,0.274-0.029c0.094-0.022,0.18-0.051,0.266-0.087
						c0.086-0.029,0.166-0.079,0.245-0.129c0.079-0.051,0.151-0.108,0.216-0.173c0.065-0.065,0.13-0.137,0.18-0.216
						c0.05-0.079,0.094-0.159,0.13-0.245c0.036-0.087,0.065-0.18,0.079-0.267c0.021-0.093,0.029-0.188,0.029-0.273
						c0-0.094-0.007-0.188-0.029-0.281c-0.014-0.094-0.043-0.18-0.079-0.266c-0.036-0.087-0.079-0.165-0.13-0.245
						c-0.05-0.079-0.115-0.151-0.18-0.216s-0.137-0.129-0.216-0.18c-0.072-0.051-0.159-0.093-0.245-0.129
						c-0.086-0.037-0.173-0.065-0.266-0.079c-0.461-0.093-0.951,0.058-1.282,0.389c-0.065,0.065-0.122,0.137-0.173,0.216
						c-0.058,0.079-0.101,0.158-0.137,0.245c-0.036,0.086-0.057,0.173-0.079,0.266c-0.014,0.094-0.029,0.187-0.029,0.281
						c0,0.086,0.014,0.18,0.029,0.273C168.295,243.839,168.316,243.932,168.352,244.019z"/>
				</g>
			</g>
			<g>
				<g>
					<path style="fill:#C9E5FF;" d="M144.411,256.216c-0.036-0.086-0.079-0.165-0.129-0.245c-0.05-0.079-0.115-0.151-0.18-0.216
						c-0.065-0.065-0.137-0.13-0.216-0.18c-0.072-0.051-0.158-0.094-0.245-0.13c-0.087-0.036-0.173-0.065-0.266-0.079
						c-0.461-0.094-0.95,0.058-1.282,0.389c-0.065,0.065-0.122,0.136-0.173,0.216c-0.05,0.079-0.094,0.158-0.129,0.245
						c-0.036,0.087-0.065,0.173-0.087,0.267c-0.014,0.094-0.021,0.18-0.021,0.273s0.007,0.187,0.021,0.281
						c0.021,0.086,0.05,0.18,0.087,0.266c0.036,0.086,0.079,0.166,0.129,0.245c0.051,0.079,0.108,0.151,0.173,0.216
						c0.065,0.065,0.144,0.122,0.216,0.173c0.079,0.05,0.159,0.094,0.245,0.129c0.086,0.036,0.18,0.065,0.266,0.087
						c0.094,0.014,0.187,0.029,0.281,0.029c0.093,0,0.187-0.015,0.273-0.029c0.094-0.022,0.18-0.051,0.266-0.087
						c0.087-0.036,0.173-0.079,0.245-0.129c0.079-0.051,0.151-0.108,0.216-0.173c0.065-0.065,0.129-0.137,0.18-0.216
						c0.05-0.079,0.094-0.159,0.129-0.245c0.036-0.086,0.065-0.18,0.079-0.266c0.021-0.094,0.029-0.188,0.029-0.281
						s-0.007-0.18-0.029-0.273C144.476,256.389,144.447,256.303,144.411,256.216z"/>
				</g>
			</g>
			<g>
				<g>
					<path style="fill:#C9E5FF;" d="M157.696,256.216c-0.036-0.086-0.079-0.165-0.13-0.245c-0.05-0.079-0.108-0.151-0.18-0.216
						c-0.065-0.065-0.137-0.13-0.216-0.18c-0.072-0.051-0.158-0.094-0.245-0.13c-0.086-0.036-0.173-0.065-0.266-0.079
						c-0.461-0.094-0.95,0.058-1.282,0.389c-0.065,0.065-0.122,0.136-0.173,0.216c-0.05,0.079-0.101,0.158-0.13,0.245
						c-0.036,0.087-0.065,0.173-0.086,0.267c-0.014,0.094-0.029,0.18-0.029,0.273s0.014,0.187,0.029,0.281
						c0.021,0.086,0.05,0.18,0.086,0.266c0.029,0.086,0.08,0.166,0.13,0.245c0.05,0.079,0.108,0.151,0.173,0.216
						c0.065,0.065,0.137,0.122,0.216,0.173c0.079,0.05,0.158,0.094,0.245,0.129c0.087,0.036,0.18,0.065,0.266,0.087
						c0.094,0.014,0.187,0.029,0.281,0.029c0.094,0,0.187-0.015,0.273-0.029c0.094-0.022,0.18-0.051,0.266-0.087
						c0.086-0.036,0.173-0.079,0.245-0.129c0.079-0.051,0.151-0.108,0.216-0.173c0.267-0.267,0.418-0.633,0.418-1.008
						c0-0.094-0.007-0.187-0.029-0.273C157.76,256.389,157.732,256.303,157.696,256.216z"/>
				</g>
			</g>
			<g>
				<g>
					<path style="fill:#C9E5FF;" d="M170.981,256.216c-0.036-0.086-0.079-0.165-0.13-0.245c-0.05-0.079-0.115-0.151-0.18-0.216
						c-0.324-0.331-0.821-0.482-1.281-0.389c-0.087,0.014-0.18,0.043-0.267,0.079c-0.086,0.037-0.166,0.079-0.245,0.13
						c-0.079,0.05-0.151,0.115-0.216,0.18s-0.122,0.136-0.173,0.216c-0.058,0.079-0.101,0.158-0.137,0.245
						c-0.036,0.087-0.057,0.173-0.079,0.267c-0.014,0.094-0.029,0.18-0.029,0.273c0,0.375,0.151,0.742,0.418,1.008
						c0.267,0.267,0.634,0.418,1.008,0.418c0.086,0,0.18-0.015,0.274-0.029c0.094-0.022,0.18-0.051,0.266-0.087
						c0.086-0.036,0.173-0.079,0.245-0.129c0.079-0.051,0.151-0.108,0.216-0.173c0.065-0.065,0.13-0.137,0.18-0.216
						c0.05-0.079,0.094-0.159,0.13-0.245c0.036-0.086,0.065-0.18,0.079-0.266c0.021-0.094,0.029-0.188,0.029-0.281
						s-0.007-0.18-0.029-0.273C171.045,256.389,171.016,256.303,170.981,256.216z"/>
				</g>
			</g>
			<g>
				<g>
					<path style="fill:#C9E5FF;" d="M144.411,269.501c-0.036-0.087-0.079-0.173-0.129-0.245c-0.05-0.079-0.108-0.151-0.173-0.216
						c-0.072-0.073-0.144-0.13-0.223-0.18c-0.072-0.051-0.158-0.094-0.245-0.13c-0.087-0.036-0.173-0.065-0.266-0.079
						c-0.18-0.037-0.367-0.037-0.554,0c-0.086,0.014-0.18,0.043-0.266,0.079c-0.087,0.036-0.166,0.079-0.245,0.13
						c-0.079,0.05-0.151,0.108-0.216,0.18c-0.065,0.065-0.122,0.136-0.173,0.216c-0.05,0.072-0.101,0.158-0.129,0.245
						c-0.036,0.086-0.065,0.173-0.087,0.266c-0.014,0.087-0.029,0.18-0.029,0.273c0,0.094,0.014,0.187,0.029,0.281
						c0.021,0.086,0.05,0.18,0.087,0.267c0.029,0.086,0.079,0.166,0.129,0.245c0.051,0.079,0.108,0.151,0.173,0.216
						c0.065,0.065,0.137,0.122,0.216,0.172c0.079,0.051,0.159,0.094,0.245,0.13c0.086,0.036,0.18,0.065,0.266,0.087
						c0.094,0.014,0.187,0.021,0.281,0.021c0.374,0,0.742-0.151,1.001-0.41c0.065-0.065,0.129-0.137,0.18-0.216
						c0.05-0.079,0.094-0.158,0.129-0.245c0.036-0.087,0.065-0.18,0.079-0.267c0.021-0.094,0.029-0.187,0.029-0.281
						c0-0.094-0.007-0.187-0.029-0.273C144.476,269.674,144.447,269.588,144.411,269.501z"/>
				</g>
			</g>
			<g>
				<g>
					<path style="fill:#C9E5FF;" d="M157.696,269.501c-0.036-0.087-0.079-0.173-0.13-0.245c-0.05-0.079-0.115-0.151-0.18-0.216
						c-0.065-0.073-0.137-0.13-0.216-0.18c-0.072-0.051-0.158-0.094-0.245-0.13c-0.086-0.036-0.173-0.065-0.266-0.079
						c-0.18-0.037-0.367-0.037-0.555,0c-0.086,0.014-0.18,0.043-0.266,0.079c-0.086,0.036-0.165,0.079-0.245,0.13
						c-0.079,0.05-0.151,0.108-0.216,0.18c-0.065,0.065-0.122,0.136-0.173,0.216c-0.05,0.072-0.094,0.158-0.13,0.245
						c-0.036,0.086-0.065,0.173-0.086,0.266c-0.014,0.087-0.022,0.18-0.022,0.273c0,0.094,0.007,0.187,0.022,0.281
						c0.021,0.086,0.05,0.18,0.086,0.267c0.036,0.086,0.08,0.166,0.13,0.245c0.05,0.079,0.108,0.151,0.173,0.216
						c0.065,0.065,0.137,0.122,0.216,0.172c0.079,0.051,0.158,0.094,0.245,0.13c0.087,0.036,0.18,0.065,0.266,0.087
						c0.094,0.014,0.187,0.021,0.281,0.021c0.094,0,0.187-0.007,0.273-0.021c0.094-0.022,0.18-0.051,0.266-0.087
						c0.086-0.037,0.173-0.079,0.245-0.13c0.079-0.05,0.151-0.108,0.216-0.172c0.065-0.065,0.13-0.137,0.18-0.216
						c0.051-0.079,0.094-0.158,0.13-0.245c0.036-0.087,0.065-0.18,0.079-0.267c0.022-0.094,0.029-0.187,0.029-0.281
						c0-0.094-0.007-0.187-0.029-0.273C157.76,269.674,157.732,269.588,157.696,269.501z"/>
				</g>
			</g>
			<g>
				<g>
					<path style="fill:#C9E5FF;" d="M170.981,269.501c-0.036-0.087-0.079-0.173-0.13-0.245c-0.05-0.079-0.115-0.151-0.18-0.216
						c-0.065-0.073-0.137-0.13-0.216-0.18c-0.072-0.051-0.159-0.094-0.245-0.13c-0.086-0.036-0.173-0.065-0.266-0.079
						c-0.18-0.037-0.367-0.037-0.554,0c-0.094,0.014-0.18,0.043-0.267,0.079c-0.086,0.036-0.166,0.079-0.245,0.13
						c-0.079,0.05-0.151,0.108-0.216,0.18c-0.065,0.065-0.122,0.136-0.173,0.216c-0.058,0.072-0.101,0.158-0.137,0.245
						c-0.028,0.086-0.057,0.173-0.079,0.266c-0.014,0.087-0.029,0.18-0.029,0.273c0,0.094,0.014,0.187,0.029,0.281
						c0.022,0.086,0.051,0.18,0.079,0.267c0.036,0.086,0.079,0.166,0.137,0.245c0.05,0.079,0.108,0.151,0.173,0.216
						c0.065,0.065,0.137,0.122,0.216,0.172c0.079,0.051,0.159,0.094,0.245,0.13c0.087,0.036,0.173,0.065,0.267,0.087
						c0.093,0.014,0.187,0.021,0.281,0.021c0.374,0,0.742-0.151,1.001-0.41c0.065-0.065,0.13-0.137,0.18-0.216
						c0.05-0.079,0.094-0.158,0.13-0.245c0.036-0.087,0.065-0.18,0.079-0.267c0.021-0.094,0.029-0.187,0.029-0.281
						c0-0.094-0.007-0.187-0.029-0.273C171.045,269.674,171.016,269.588,170.981,269.501z"/>
				</g>
			</g>
			<g>
				<g>
					<path style="fill:#C9E5FF;" d="M144.411,282.786c-0.036-0.086-0.079-0.173-0.129-0.245c-0.05-0.079-0.108-0.151-0.173-0.216
						c-0.533-0.532-1.49-0.532-2.016,0c-0.065,0.065-0.122,0.137-0.173,0.216c-0.05,0.072-0.094,0.158-0.129,0.245
						c-0.036,0.087-0.065,0.173-0.087,0.267c-0.014,0.087-0.021,0.18-0.021,0.273c0,0.094,0.007,0.187,0.021,0.281
						c0.021,0.086,0.05,0.18,0.087,0.266c0.036,0.086,0.079,0.166,0.129,0.245c0.051,0.079,0.108,0.151,0.173,0.216
						c0.266,0.267,0.633,0.418,1.008,0.418c0.374,0,0.742-0.151,1.001-0.418c0.065-0.065,0.129-0.136,0.18-0.216
						c0.05-0.079,0.094-0.158,0.129-0.245c0.036-0.087,0.065-0.18,0.079-0.266c0.021-0.094,0.029-0.187,0.029-0.281
						c0-0.093-0.007-0.187-0.029-0.273C144.476,282.959,144.447,282.873,144.411,282.786z"/>
				</g>
			</g>
			<g>
				<g>
					<path style="fill:#C9E5FF;" d="M157.696,282.786c-0.036-0.086-0.079-0.173-0.13-0.245c-0.05-0.079-0.115-0.151-0.18-0.216
						c-0.065-0.065-0.137-0.129-0.216-0.18c-0.072-0.05-0.158-0.093-0.245-0.129c-0.086-0.036-0.173-0.065-0.266-0.079
						c-0.461-0.101-0.95,0.058-1.282,0.389c-0.065,0.065-0.122,0.137-0.173,0.216c-0.05,0.072-0.101,0.158-0.137,0.245
						c-0.029,0.087-0.058,0.173-0.079,0.267c-0.014,0.087-0.029,0.18-0.029,0.273c0,0.094,0.014,0.187,0.029,0.281
						c0.021,0.086,0.05,0.18,0.079,0.266c0.036,0.086,0.087,0.166,0.137,0.245c0.05,0.079,0.108,0.151,0.173,0.216
						c0.266,0.267,0.634,0.418,1.008,0.418c0.094,0,0.187-0.014,0.273-0.029c0.094-0.021,0.18-0.05,0.266-0.079
						c0.086-0.036,0.173-0.086,0.245-0.137c0.079-0.051,0.151-0.107,0.216-0.173c0.065-0.065,0.13-0.136,0.18-0.216
						c0.051-0.079,0.094-0.158,0.13-0.245c0.036-0.087,0.065-0.18,0.079-0.266c0.022-0.094,0.029-0.187,0.029-0.281
						c0-0.093-0.007-0.187-0.029-0.273C157.76,282.959,157.732,282.873,157.696,282.786z"/>
				</g>
			</g>
			<g>
				<g>
					<path style="fill:#C9E5FF;" d="M170.981,282.786c-0.036-0.086-0.079-0.173-0.13-0.245c-0.05-0.079-0.115-0.151-0.18-0.216
						c-0.526-0.532-1.476-0.532-2.009,0c-0.065,0.065-0.122,0.137-0.173,0.216c-0.058,0.072-0.101,0.158-0.137,0.245
						c-0.036,0.087-0.057,0.173-0.079,0.267c-0.014,0.087-0.029,0.18-0.029,0.273c0,0.094,0.014,0.187,0.029,0.281
						c0.022,0.086,0.043,0.18,0.079,0.266c0.036,0.086,0.079,0.166,0.137,0.245c0.05,0.079,0.108,0.151,0.173,0.216
						c0.267,0.267,0.634,0.418,1.008,0.418c0.367,0,0.735-0.151,1.001-0.418c0.065-0.065,0.13-0.136,0.18-0.216
						c0.05-0.079,0.094-0.158,0.13-0.245c0.036-0.087,0.065-0.18,0.079-0.266c0.021-0.094,0.029-0.187,0.029-0.281
						c0-0.093-0.007-0.187-0.029-0.273C171.045,282.959,171.016,282.873,170.981,282.786z"/>
				</g>
			</g>
			<g>
				<g>
					<path style="fill:#C9E5FF;" d="M144.411,296.072c-0.036-0.087-0.079-0.173-0.129-0.246c-0.05-0.079-0.115-0.151-0.18-0.216
						c-0.324-0.331-0.821-0.482-1.282-0.389c-0.086,0.015-0.18,0.043-0.266,0.079c-0.087,0.036-0.166,0.079-0.245,0.129
						c-0.079,0.051-0.151,0.108-0.216,0.18c-0.065,0.065-0.122,0.137-0.173,0.216c-0.05,0.073-0.094,0.159-0.129,0.246
						c-0.036,0.086-0.065,0.172-0.087,0.266c-0.014,0.086-0.021,0.18-0.021,0.274c0,0.374,0.151,0.741,0.41,1.008
						c0.266,0.259,0.633,0.411,1.008,0.411c0.374,0,0.742-0.151,1.001-0.411c0.266-0.267,0.418-0.634,0.418-1.008
						c0-0.094-0.007-0.188-0.029-0.274C144.476,296.244,144.447,296.157,144.411,296.072z"/>
				</g>
			</g>
			<g>
				<g>
					<path style="fill:#C9E5FF;" d="M157.696,296.072c-0.036-0.087-0.079-0.173-0.13-0.246c-0.05-0.079-0.115-0.151-0.18-0.216
						c-0.526-0.533-1.483-0.533-2.009,0c-0.065,0.065-0.122,0.137-0.173,0.216c-0.05,0.073-0.101,0.159-0.13,0.246
						c-0.036,0.086-0.065,0.172-0.086,0.266c-0.014,0.086-0.029,0.18-0.029,0.274c0,0.374,0.151,0.741,0.417,1.008
						c0.065,0.065,0.137,0.122,0.216,0.173c0.079,0.051,0.158,0.093,0.245,0.129c0.087,0.036,0.18,0.065,0.266,0.079
						c0.094,0.022,0.187,0.029,0.281,0.029c0.094,0,0.187-0.007,0.273-0.029c0.094-0.015,0.18-0.044,0.266-0.079
						c0.086-0.036,0.173-0.079,0.245-0.129c0.079-0.051,0.151-0.108,0.216-0.173c0.267-0.267,0.418-0.634,0.418-1.008
						c0-0.094-0.007-0.188-0.029-0.274C157.76,296.244,157.732,296.157,157.696,296.072z"/>
				</g>
			</g>
			<g>
				<g>
					<path style="fill:#C9E5FF;" d="M170.981,296.072c-0.036-0.087-0.079-0.173-0.13-0.246c-0.05-0.079-0.115-0.151-0.18-0.216
						c-0.065-0.072-0.137-0.129-0.216-0.18c-0.072-0.05-0.159-0.094-0.245-0.129c-0.086-0.036-0.173-0.065-0.266-0.079
						c-0.461-0.094-0.951,0.058-1.282,0.389c-0.065,0.065-0.122,0.137-0.173,0.216c-0.058,0.073-0.101,0.159-0.137,0.246
						c-0.028,0.086-0.057,0.172-0.079,0.266c-0.014,0.086-0.029,0.18-0.029,0.274c0,0.374,0.151,0.741,0.418,1.008
						c0.267,0.259,0.634,0.411,1.008,0.411c0.094,0,0.188-0.007,0.274-0.029c0.094-0.015,0.18-0.044,0.266-0.079
						c0.086-0.036,0.166-0.079,0.245-0.129c0.079-0.051,0.151-0.108,0.216-0.173c0.266-0.267,0.418-0.634,0.418-1.008
						c0-0.094-0.007-0.188-0.029-0.274C171.045,296.244,171.016,296.157,170.981,296.072z"/>
				</g>
			</g>
		</g>
	</g>
	<g>
		<path style="opacity:0.2;fill:#C29CFD;" d="M128.721,414.919c-11.471-2.114,127.203-60.854,137.085-63.715
			c9.882-2.861,408.438-8.919,414.198-3.457c5.76,5.461-116.526,59.32-124.887,59.492
			C546.756,407.411,143.004,417.551,128.721,414.919z"/>
		<path style="fill:#C29CFD;" d="M129.432,412.331c-11.471-2.114,127.203-60.854,137.085-63.715
			c9.882-2.861,408.438-8.919,414.198-3.457c5.76,5.461-116.526,59.32-124.887,59.493
			C547.466,404.823,143.715,414.964,129.432,412.331z"/>
		<g>
			<path style="fill:#D6ACFD;" d="M275.014,347.923c-43.571,21.608-88.488,43.284-130.909,64.835
				c6.307,0.027,14.413-0.008,23.984-0.093l126.263-65.496C286.299,347.428,279.753,347.681,275.014,347.923z"/>
			<path style="fill:#D6ACFD;" d="M541.961,404.986l125.602-61.153c-4.494-0.189-10.047-0.344-16.487-0.469
				c-43.462,20.713-89.493,41.488-134.105,62.228C527.058,405.349,535.526,405.143,541.961,404.986z"/>
		</g>
	</g>
	<g>
		<path style="opacity:0.2;fill:#C29CFD;" d="M136.393,374.01c-8.629-0.333-16.954,0.247-25.186,3.07
			c-1.604,0.551-3.369,1.351-3.911,2.959c-0.3,0.89-0.13,1.855,0.31,2.697c-5.426-0.884-11.511-0.608-16.56-0.355
			c-7.49,0.375-14.986,1.831-21.809,5.023c-0.116,0.054-0.231,0.11-0.344,0.167c-4.028,2.027-6.501,5.845-1.833,8.949
			c6.127,4.075,13.743,5.43,21.097,5.148c7.353-0.282,14.552-2.089,21.688-3.886c3.138-0.79,6.717-1.953,7.884-4.971
			c0.771-1.993,0.276-3.956-0.854-5.56c10.305,2.435,21.358,1.689,31.215-2.196c1.274-0.502,2.623-1.141,3.251-2.358
			C154.719,376.139,140.257,374.159,136.393,374.01z"/>
		<g>
			<path style="fill:#0D3049;" d="M125.151,345.385c-5.006,5.703-4.199,13.693-2.61,21.113c1.925,8.989,6.111,17.238,14.828,19.187
				c3.845,0.859,11.427-0.911,15.241-2.002c14.196-4.058,20.116-20.223,13.676-33.101
				C159.095,336.202,135.974,333.056,125.151,345.385z"/>
			<path style="fill:#002538;" d="M122.294,346.532c-5.006,5.703-6.89,13.881-5.301,21.301c2.774,12.953,17.607,20.748,30.07,17.185
				c14.196-4.058,20.116-20.223,13.676-33.101C153.547,337.536,133.118,334.202,122.294,346.532z"/>
			<path style="fill:#DBECFF;" d="M121.407,362.791l16.768-4.561c2.401-0.653,4.895,0.678,5.689,3.037l0,0
				c0.811,2.409-0.441,5.026-2.826,5.908l-16.089,5.946L121.407,362.791z"/>
			<path style="fill:#0D3049;" d="M89.866,358.854c-5.006,5.703-4.199,13.693-2.61,21.113c1.925,8.989,6.111,17.238,14.828,19.187
				c3.845,0.859,11.427-0.911,15.241-2.002c14.196-4.058,20.116-20.223,13.676-33.101
				C123.81,349.671,100.689,346.525,89.866,358.854z"/>
			<path style="fill:#002538;" d="M87.009,360.001c-5.006,5.703-6.89,13.881-5.301,21.301c2.774,12.953,17.607,20.748,30.07,17.185
				c14.196-4.058,20.116-20.223,13.676-33.101C118.262,351.005,97.833,347.671,87.009,360.001z"/>
			<path style="fill:#DBECFF;" d="M94.756,375.572c-0.02,1.553,4.14,3.341,5.374,4.284c1.118,0.855-1.008,2.853,0.385,2.679
				c0.902-0.113,5.366-2.095,6.089-2.651c1.839-1.414,2.517-4.17,1.489-6.25c-1.333-2.698-4.56-3.237-6.986-2.157
				C99.433,372.222,94.783,373.466,94.756,375.572z"/>
			<path style="fill:#C1DFFF;" d="M93.874,377.613c-0.02,1.552,0.783,3.07,2.016,4.013c1.843,1.409,4.635,1.442,6.474,0.028
				c1.839-1.414,2.517-4.17,1.489-6.25C101.601,370.846,93.941,372.452,93.874,377.613z"/>
		</g>
	</g>
	<g>
		<ellipse style="opacity:0.2;fill:#C29CFD;" cx="208.677" cy="373.613" rx="36.513" ry="5.189"/>
		<g>
			<path style="fill:#002538;" d="M250.287,339.405v-18.556c0-8.389-6.825-15.214-15.214-15.214h-17.306
				c-8.389,0-15.214,6.825-15.214,15.214v18.556c-3.2,4.656-5.076,10.292-5.076,16.369c0,15.985,12.958,21.689,28.943,21.689
				s28.942-5.704,28.942-21.689C255.362,349.698,253.486,344.061,250.287,339.405z M217.767,312.889h17.306
				c4.396,0,7.96,3.564,7.96,7.96v5.296c0,3.78-3.714,6.444-7.291,5.225c-2.925-0.997-6.06-1.538-9.322-1.538
				c-3.263,0-6.397,0.542-9.322,1.538c-3.577,1.219-7.291-1.445-7.291-5.225v-5.296C209.807,316.453,213.37,312.889,217.767,312.889
				z"/>
			<path style="fill:#0D3049;" d="M218.384,342.688c-1.382,4.889,0.895,10.266,4.6,13.743c3.705,3.477,8.616,5.361,13.507,6.736
				c3.769,1.06,8.289,1.707,11.193-0.92c2.141-1.938,2.677-5.097,2.554-7.982c-0.276-6.499-3.486-12.729-8.355-16.992
				c-4.765-4.173-10.212-4.763-16.158-2.42C222.284,336.208,219.401,339.09,218.384,342.688z"/>
		</g>
	</g>
	<g>
		<g style="opacity:0.2;">
			<ellipse style="fill:#C29CFD;" cx="479.235" cy="377.292" rx="81.207" ry="11.54"/>
		</g>
		<g style="opacity:0.2;">
			<ellipse style="fill:#C29CFD;" cx="299.194" cy="380.449" rx="56.718" ry="8.06"/>
		</g>
		<g>
			<path style="fill:#FFB2A5;" d="M671.95,239.577c-1.638-31.445-42.106-86.585-42.106-86.585s-1.055-10.304-3.676-16.682
				c-2.621-6.377-11.147-19.464-12.519-19.101c-1.372,0.364,2.993,11.074,2.993,11.074s-10.075-10.468-10.794-9.014
				c-0.719,1.454,6.18,12.395,6.18,12.395s-10.535-9.599-11.504-8.271c-0.97,1.328,9.694,13.03,9.694,13.03
				s-10.974-4.533-11.633-4.3c-0.659,0.232,10.56,10.411,10.56,10.411s-10.616-3.737-10.589-1.686
				c0.028,2.05,14.11,19.854,14.11,19.854l21.649,52.735c-13.068-6.923-51.34-20.975-51.34-20.975l-100.242-38.146l71.1-16.591
				l1.598-20.128c0,0-106.326,2.75-112.647,31.089c-6.321,28.339,68.726,71.17,68.726,71.17l-25.719,86.7l62.452,55.688
				c33.628-33.248,69.627-100.157,69.627-100.157l3.928-6.627C635.933,256.748,673.264,264.802,671.95,239.577z"/>
		</g>
		<g>
			<path style="fill:#FF9F99;" d="M579.514,313.72c-4.961,10.17-10.417,21.017-15.344,30.687c28.154-34.842,53.7-82.319,53.7-82.319
				l3.928-6.627c-6.889-0.339-15.863-3.621-15.863-3.621S593.063,285.945,579.514,313.72z"/>
		</g>
		<g>
			<path style="fill:#FFFFFF;" d="M596.064,197.385c-9.287,15.197-30.429,29.217-40.493,24.835
				c-9.238-4.021,3.126-30.534,6.652-37.655l-13.505-5.139c-4.516,8.779-17.093,32.838-23.752,41.651
				c-6.549,8.668-11.87,10.881-17.309,11.769l-2.94,9.912l97.934,45.663c1.451-2.391,2.819-4.677,4.096-6.833
				c-8.73-7.595-11.511-17.794-11.512-31.064c-0.001-12.477,12.64-39.101,16.528-46.994
				C606.295,201.333,600.784,199.191,596.064,197.385z"/>
		</g>
		<g style="opacity:0.2;">
			<path style="fill:#00BD85;" d="M598.595,270.432c-1.669,4.102-3.561,8.671-5.606,13.486l9.661,4.505
				c0.041-0.068,0.082-0.135,0.123-0.203c0.64-1.055,1.263-2.09,1.87-3.101c0.077-0.129,0.154-0.257,0.231-0.385
				c0.634-1.059,1.252-2.096,1.848-3.102c0.008-0.014,0.017-0.028,0.025-0.042C603.029,278.356,600.399,274.645,598.595,270.432z"/>
		</g>
		<g>
			<path style="fill:#FF9F99;" d="M598.557,140.849c0.028,2.05,14.11,19.854,14.11,19.854l4.517,11.003
				c2.523-13.472,4.651-27.018,6.398-40.612c-3.578-6.467-8.876-14.163-9.932-13.884c-1.372,0.364,2.993,11.074,2.993,11.074
				s-10.075-10.468-10.794-9.014c-0.719,1.454,6.18,12.395,6.18,12.395s-10.535-9.599-11.504-8.271
				c-0.97,1.328,9.694,13.03,9.694,13.03s-10.974-4.533-11.633-4.3c-0.659,0.232,10.56,10.411,10.56,10.411
				S598.529,138.799,598.557,140.849z"/>
		</g>
		<g>
			<path style="fill:#FF9F99;" d="M526.462,144.113l27.371-6.387l1.598-20.128c0,0-2.796,0.073-7.49,0.314
				C539.734,125.712,532.501,134.536,526.462,144.113z"/>
		</g>
		<g>
			<g>
				<path style="fill:#FFB2A5;" d="M554.128,140.969c0,0-10.995-10.848-15.63,0.565c-5.097,12.55,13.581,12.282,13.581,12.282
					L554.128,140.969z"/>
			</g>
		</g>
		<g>
			<path style="fill:#002538;" d="M553.281,123.811c0,0-5.313,18.829-2.049,24.391l9.74-26.28L553.281,123.811z"/>
		</g>
		<g>
			<g>
				<path style="fill:#FFB2A5;" d="M592.853,197.834l7.988-34.854c0,0,12.846,7.524,16.201-3.534
					c2.989-9.852-7.789-12.819-13.994-9.155c0,0,16.514-33.18-13.286-42.08c-29.8-8.9-38.667,32.582-40.604,42.664
					c-3.541,18.427,7.344,29.1,16.252,31.482l-2.896,10.725c0,0-2.434,11.072,7.082,13.198
					C584.868,209.692,592.853,197.834,592.853,197.834z"/>
			</g>
		</g>
		<g>
			<path style="fill:#FF9F99;" d="M552.051,148.681c0.265,2.632,2.613,4.551,5.245,4.287c2.632-0.265,4.551-2.613,4.287-5.245
				c-0.265-2.632-2.613-4.551-5.245-4.287C553.706,143.701,551.786,146.049,552.051,148.681z"/>
		</g>
		<g>
			<path style="fill:#FF9F99;" d="M608.946,154.165c-1.471,0.076-2.957,0.583-4.016,1.608c-1.059,1.025-1.621,2.608-1.23,4.028
				c0.479,1.738,2.301,2.892,4.103,2.944s3.532-0.828,4.864-2.043c1.444-1.318,2.522-3.454,1.162-5.251
				C612.868,154.183,610.377,154.091,608.946,154.165z"/>
		</g>
		<g>
			<g>
				<path style="fill:#002538;" d="M567.091,140.354c-0.106,1.835-1.679,3.236-3.514,3.13c-1.835-0.106-3.236-1.679-3.13-3.514
					c0.106-1.835,1.679-3.236,3.514-3.13C565.795,136.946,567.197,138.519,567.091,140.354z"/>
			</g>
		</g>
		<g>
			<g>
				<path style="fill:#002538;" d="M582.016,143.637c-0.106,1.835-1.679,3.236-3.514,3.13c-1.835-0.106-3.236-1.679-3.13-3.514
					c0.106-1.835,1.679-3.236,3.514-3.13C580.72,140.229,582.122,141.802,582.016,143.637z"/>
			</g>
		</g>
		<g>
			<path style="fill:#4C2049;" d="M604.147,158.44c-0.048,0-0.097-0.007-0.145-0.021c-0.275-0.08-0.433-0.368-0.353-0.643
				c0.551-1.894,2.053-3.47,3.918-4.114c1.864-0.645,4.019-0.33,5.622,0.822c0.232,0.167,0.285,0.491,0.118,0.723
				c-0.169,0.234-0.492,0.284-0.724,0.119c-1.332-0.958-3.124-1.222-4.679-0.685c-1.553,0.536-2.802,1.848-3.262,3.424
				C604.579,158.293,604.372,158.44,604.147,158.44z"/>
		</g>
		<g>
			<path style="fill:#4C2049;" d="M608.474,158.214c-0.191,0-0.376-0.107-0.466-0.292l-1.433-2.945
				c-0.125-0.257-0.018-0.567,0.239-0.692c0.258-0.124,0.567-0.019,0.692,0.239l1.433,2.945c0.125,0.257,0.018,0.567-0.239,0.692
				C608.628,158.197,608.55,158.214,608.474,158.214z"/>
		</g>
		<g>
			<path style="fill:#002538;" d="M590.101,134.094c-0.129,0-0.257-0.047-0.357-0.143c-2.567-2.448-6.422-3.374-9.819-2.357
				c-0.277,0.082-0.563-0.074-0.645-0.348c-0.082-0.274,0.073-0.563,0.348-0.645c3.745-1.121,7.999-0.1,10.831,2.601
				c0.207,0.198,0.215,0.525,0.018,0.732C590.375,134.04,590.238,134.094,590.101,134.094z"/>
		</g>
		<g>
			<path style="fill:#002538;" d="M570.437,130.852c-0.164,0-0.325-0.078-0.426-0.224c-1.94-2.805-6.195-3.71-9.108-1.939
				c-0.245,0.146-0.563,0.07-0.712-0.173c-0.149-0.245-0.071-0.563,0.173-0.712c3.357-2.042,8.264-0.998,10.498,2.236
				c0.163,0.235,0.104,0.558-0.131,0.721C570.642,130.822,570.54,130.852,570.437,130.852z"/>
		</g>
		<g>
			<path style="fill:#FF9F99;" d="M582.365,156.147c0.265,2.632,2.613,4.551,5.245,4.287c2.632-0.265,4.551-2.613,4.287-5.245
				c-0.265-2.632-2.613-4.551-5.245-4.287S582.1,153.514,582.365,156.147z"/>
		</g>
		<g>
			<path style="fill:#002538;" d="M565.564,150.494c-0.227,0-0.435-0.15-0.499-0.379c-0.289-1.031-0.185-1.895,0.311-2.566
				c0.666-0.906,1.851-1.155,2.402-1.224l3.387-5.739c0.146-0.248,0.463-0.328,0.71-0.183c0.246,0.146,0.328,0.463,0.183,0.709
				l-3.523,5.969c-0.09,0.153-0.253,0.248-0.43,0.255c-0.014,0-1.33,0.055-1.897,0.83c-0.294,0.401-0.342,0.963-0.145,1.669
				c0.077,0.275-0.084,0.561-0.359,0.639C565.657,150.488,565.61,150.494,565.564,150.494z"/>
		</g>
		<g>
			<path style="fill:#002538;" d="M568.253,159.602c-1.464,0-2.895-0.422-4.094-0.87c-0.269-0.1-0.405-0.398-0.305-0.667
				c0.1-0.269,0.398-0.405,0.666-0.304c3.932,1.465,6.501,0.914,8.335-1.789c0.16-0.237,0.485-0.298,0.72-0.138
				c0.236,0.161,0.299,0.483,0.138,0.72C572.134,158.882,570.166,159.602,568.253,159.602z"/>
		</g>
		<g>
			<path style="fill:#C76470;" d="M565.41,182.357l-1.649,6.107c15.815,4.33,22.828-8.649,22.828-8.649
				C583.895,182.353,575.687,185.64,565.41,182.357z"/>
		</g>
		<g>
			<path style="fill:#00BD85;" d="M598.487,198.316c-14.201,21.397-32.159,31.556-45.23,25.26
				c-12.18-5.867,4.269-33.866,7.727-39.48l-9.116-3.469c-3.332,6.241-12.904,24.027-22.05,39.685
				c-8.228,14.087-18.397,16.314-23.333,16.482l-24.864,69.764l65.887,59.004c21.426-21.185,44.548-59.347,57.974-81.848
				c-29.392-22.421-1.065-72.037,4.375-80.945C605.936,201.203,602.047,199.686,598.487,198.316z"/>
		</g>
		<g>
			<path style="fill:#004CA1;" d="M306.13,355.39c0,0-40.623,15.48-37.04,22.07c3.583,6.591,58.53,0.31,61.252-0.293
				c2.722-0.603,2.416-12.324,2.416-12.324L306.13,355.39z"/>
		</g>
		<g>
			<polygon style="fill:#002538;" points="309.719,340.775 306.13,355.39 323.682,361.758 329.434,345.665 			"/>
		</g>
		<g>
			<path style="fill:#002538;" d="M392.743,218.811c0,0-11.637-9.04-24.982-9.746c-21.306-1.127-68.932,113.153-65.76,124.596
				c2.129,7.681,25.111,13.216,25.111,13.216L392.743,218.811z"/>
		</g>
		<g>
			<path style="fill:#002538;" d="M387.41,287.357c0,0,39.454,87.681,71.766,93.698l-54.338-109.317L387.41,287.357z"/>
		</g>
		<g>
			<path style="fill:#0D3049;" d="M547.508,365.561c0,0-9.228,15.494-14.378,15.494c-5.151,0-60.773,0-73.954,0
				c-13.181,0-56.782-98.165-56.782-98.165s-22.288,52.962-27.975,64.824c-5.686,11.862-8.377,14.834-13.256,12.06l-34.05-12.897
				c0,0-4.182-5.114,0.662-23.11c5.329-19.797,32.552-111.536,69.25-116.231C430.365,203.271,547.508,365.561,547.508,365.561z"/>
		</g>
		<g>
			<polygon style="fill:#0D3049;" points="327.113,346.877 323.682,361.758 356.868,373.041 361.163,359.774 			"/>
		</g>
		<g>
			<path style="fill:#0073CD;" d="M356.868,373.041c0,4.127,1.79,8.138-4.79,8.138s-61.186,4.866-62.41-0.324
				c-1.224-5.19,34.014-19.096,34.014-19.096L356.868,373.041z"/>
		</g>
		<g>
			<path style="fill:#002538;" d="M614.865,142.261l-2.676,7.021c0,0-7.37-1.446-14.385,6.982l-3.778-2.448l4.722-9.632
				c0,0-5.667-5.702-1.214-13.51L614.865,142.261z"/>
		</g>
		<g>
			<path style="fill:#FFFFFF;" d="M553.281,123.811c0,0,34.16-2.341,61.585,18.45l3.782-8.606c0,0-16.382-13.102-32.749-18.499
				s-30.323-1.593-30.323-1.593L553.281,123.811z"/>
		</g>
		<g>
			<path style="fill:#002538;" d="M572.076,113.375c-4.281,5.238-7.304,7.321-14.003,8.263c-6.699,0.942-14.088-1.807-17.593-7.593
				c-2.952-4.873-2.792-11.28-0.237-16.372c2.556-5.092,7.266-8.906,12.527-11.092c6.161-2.561,13.665-2.88,19.18,0.875
				c3.948,2.688,6.537,7.179,10.804,9.324c6.61,3.323,14.626-0.075,21.931,1.102c4.364,0.703,8.428,3.127,11.12,6.634
				c2.692,3.506,3.984,8.057,3.536,12.454c0.017-0.164,2.994,0.944,3.343,1.116c1.332,0.654,2.438,1.666,3.052,3.037
				c2.556,5.705-7.09,12.532-7.09,12.532C592.691,116.084,572.076,113.375,572.076,113.375z"/>
		</g>
		<g style="opacity:0.2;">
			<path style="fill:#00BD85;" d="M597.043,274.221c-4.822,11.712-11.098,26.316-17.529,39.499
				c-4.961,10.17-10.417,21.017-15.344,30.687c15.805-19.559,30.787-43.098,40.89-59.987c0.078-0.13,0.158-0.265,0.236-0.394
				c0.062-0.105,0.124-0.208,0.186-0.312C601.828,280.926,599.068,277.718,597.043,274.221z"/>
		</g>
		<g>
			<path style="fill:#FF9F99;" d="M511.51,219.857c2.445-9.621,4.836-15.679,4.836-15.679l-65.291-32.162
				C469.596,195.933,511.51,219.857,511.51,219.857z"/>
		</g>
		<g style="opacity:0.2;">
			<path style="fill:#00BD85;" d="M550.385,331.112c-22.488-22.232-33.603-55.416-29.043-86.708
				c0.994,14.515,6.662,26.863,16.322,37.743c-2.314-10.718-1.945-22.005,1.064-32.55
				C538.451,276.639,543.931,304.85,550.385,331.112z"/>
		</g>
	</g>
	<path style="opacity:0.2;fill:#C29CFD;" d="M301.345,315.19"/>
	<g>
		<g>
			<path style="opacity:0.2;fill:#C29CFD;" d="M301.345,315.19c9.579,12.665-213.636,19.697-202.241,2.692
				C106.694,306.557,291.766,302.525,301.345,315.19"/>
			<polygon style="fill:#0D3049;" points="124.683,217.663 109.31,316.902 112.62,316.902 138.804,218.514 			"/>
			<polygon style="fill:#0D3049;" points="282.919,217.663 298.291,316.902 294.981,316.902 268.798,218.514 			"/>
			<path style="fill:#002538;" d="M135.875,229.519l2.929-11.005l-14.121-0.851l-1.338,8.64
				C127.481,227.548,131.697,228.575,135.875,229.519z"/>
			<path style="fill:#002538;" d="M284.676,229.006l-1.757-11.343l-14.121,0.851l3.949,14.838
				C276.762,231.995,280.739,230.527,284.676,229.006z"/>
			<path style="fill:#EDFAFF;" d="M114.053,208.189l1.258,9.362c0,0,86.46,28.287,177.37-1.911l1.009-8.186
				c0,0-54.228,12.024-95.317,11.061S114.053,208.189,114.053,208.189z"/>
			<path style="fill:#FFFFFF;" d="M114.053,208.189c0,0,93.219-30.175,179.637-0.735c0,0-41.593,15.513-92.288,14.739
				C150.708,221.419,114.053,208.189,114.053,208.189z"/>
			<g>
				<g>
					<polygon style="fill:#1A8ED2;" points="175.332,213.438 174.531,177.424 264.991,167.734 261.844,202.941 					"/>
				</g>
				<g style="opacity:0.2;">
					<g>
						<path style="fill:#0073CD;" d="M162.149,201.826c-1.151-0.022-23.345,4.21-23.345,4.21l21.463,6.566l15.065,0.835
							L162.149,201.826z"/>
					</g>
				</g>
				<g>
					<polygon style="fill:#0073CD;" points="174.531,177.424 156.382,172.328 157.566,206.156 175.332,213.438 					"/>
				</g>
				<g>
					<polygon style="fill:#57A8FF;" points="156.382,172.328 240.697,164.451 264.991,167.734 174.531,177.424 					"/>
				</g>
				<g>
					<path style="fill:#FFD600;" d="M193.845,170.937c0,0,1.428-16.829,2.511-17.371c1.083-0.541,24.532-2.327,25.734-1.299
						c1.202,1.028,3.097,15.064,3.097,15.064l-4.873,0.679l-1.533-12.16l-18.906,0.972l-1.102,13.715L193.845,170.937z"/>
				</g>
				<g>
					<path style="fill:#FFD600;" d="M187.475,181.054c-1.548,1.078-2.892,2.527-3.935,4.181c-2.753,4.367-3.624,10.06-1.585,14.803
						c3.228,7.506,13,9.833,19.426,4.899c4.604-3.535,6.206-9.423,4.649-14.927C203.85,182.296,195.014,175.807,187.475,181.054z"/>
				</g>
				<g>
					<path style="fill:#FFD600;" d="M239.546,175.341c-1.548,1.078-2.892,2.527-3.935,4.181c-2.753,4.367-3.624,10.06-1.585,14.803
						c3.228,7.506,13,9.833,19.426,4.899c4.604-3.535,6.206-9.423,4.649-14.927C255.92,176.584,247.084,170.094,239.546,175.341z"/>
				</g>
				<g style="opacity:0.2;">
					<g>
						<polygon style="fill:#0073CD;" points="211.141,186.828 224.104,185.924 224.104,191.467 211.412,192.43 						"/>
					</g>
				</g>
				<g>
					<g>
						<polygon style="fill:#A1D0EC;" points="204.595,174.203 204.866,179.155 210.934,178.588 210.807,173.538 						"/>
					</g>
					<g>
						<polygon style="fill:#80C0E6;" points="229.199,176.884 228.845,171.606 223.641,172.163 223.914,177.377 						"/>
					</g>
					<g>
						<polygon style="fill:#80C0E6;" points="210.807,173.538 210.934,178.588 217.422,177.983 217.241,172.849 						"/>
					</g>
					<g>
						<polygon style="fill:#A1D0EC;" points="223.641,172.163 217.241,172.849 217.422,177.983 223.914,177.377 						"/>
					</g>
				</g>
			</g>
		</g>
		<g>
			
				<path style="fill:none;stroke:#FFFFFF;stroke-width:1.0364;stroke-linecap:round;stroke-linejoin:round;stroke-miterlimit:10;" d="
				M184.11,190.643c5.182,3.139,10.363,6.277,15.544,9.416"/>
			
				<path style="fill:none;stroke:#FFFFFF;stroke-width:1.0364;stroke-linecap:round;stroke-linejoin:round;stroke-miterlimit:10;" d="
				M188.259,185.134c4.878,3.204,9.756,6.409,14.633,9.613"/>
			
				<path style="fill:none;stroke:#FFFFFF;stroke-width:1.0364;stroke-linecap:round;stroke-linejoin:round;stroke-miterlimit:10;" d="
				M185.709,200.479c3.621-5.711,7.243-11.422,10.864-17.133"/>
			
				<path style="fill:none;stroke:#FFFFFF;stroke-width:1.0364;stroke-linecap:round;stroke-linejoin:round;stroke-miterlimit:10;" d="
				M192.909,202.296c2.904-5.115,5.809-10.229,8.713-15.344"/>
		</g>
		<g>
			
				<path style="fill:none;stroke:#FFFFFF;stroke-width:1.0364;stroke-linecap:round;stroke-linejoin:round;stroke-miterlimit:10;" d="
				M237.61,184.405c4.094,3.636,8.189,7.272,12.283,10.908"/>
			
				<path style="fill:none;stroke:#FFFFFF;stroke-width:1.0364;stroke-linecap:round;stroke-linejoin:round;stroke-miterlimit:10;" d="
				M243.281,179.069c4.539,4.026,7.502,6.656,12.041,10.682"/>
			
				<path style="fill:none;stroke:#FFFFFF;stroke-width:1.0364;stroke-linecap:round;stroke-linejoin:round;stroke-miterlimit:10;" d="
				M239.103,190.908c3.133-3.49,6.267-6.98,9.4-10.47"/>
			
				<path style="fill:none;stroke:#FFFFFF;stroke-width:1.0364;stroke-linecap:round;stroke-linejoin:round;stroke-miterlimit:10;" d="
				M243.281,195.551c3.276-3.572,7.969-8.691,11.245-12.263"/>
		</g>
	</g>
	<g>
		<g>
			<g style="opacity:0.2;">
				<path style="fill:#C29CFD;" d="M652.818,352.413c0,2-11.411,3.622-25.488,3.622c-14.077,0-25.488-1.622-25.488-3.622
					c0-2,11.411-3.622,25.488-3.622C641.406,348.791,652.818,350.412,652.818,352.413z"/>
			</g>
			<g>
				<path style="fill:#1A8ED2;" d="M655.089,302.688v-12.284c0-1.254-1.017-2.271-2.271-2.271h-23.381
					c-1.254,0-2.271,1.017-2.271,2.271v12.284c0,1.254,1.017,2.271,2.271,2.271l0,0c1.254,0,2.271,1.017,2.271,2.271v3.963
					c0,1.254-1.017,2.271-2.271,2.271l0,0c-1.254,0-2.271,1.017-2.271,2.271v36.318c0,1.254,1.017,2.271,2.271,2.271h23.381
					c1.254,0,2.271-1.017,2.271-2.271v-36.318c0-1.254-1.017-2.271-2.271-2.271l0,0c-1.254,0-2.271-1.017-2.271-2.271v-3.963
					c0-1.254,1.017-2.271,2.271-2.271l0,0C654.073,304.958,655.089,303.942,655.089,302.688z"/>
			</g>
			<g>
				<path style="fill:#0D3049;" d="M649.582,283.476h-4.607v-1.254h-2.075v-2.291h-3.545v2.291h-2.075v1.254h-4.607
					c-1.267,0-2.294,1.027-2.294,2.294v2.363h21.498v-2.363C651.877,284.503,650.849,283.476,649.582,283.476z"/>
			</g>
		</g>
		<g style="opacity:0.2;">
			<g>
				<path style="fill:#0073CD;" d="M627.166,291.158v11.53c0,1.254,1.017,2.271,2.271,2.271c1.254,0,2.271,1.017,2.271,2.271v3.963
					c0,1.254-1.017,2.271-2.271,2.271c-1.254,0-2.271,1.017-2.271,2.271v36.318c0,1.254,1.017,2.271,2.271,2.271h23.381
					c1.254,0,2.271-1.017,2.271-2.271v-7.803C644.79,327.096,635.463,309.363,627.166,291.158z"/>
			</g>
		</g>
	</g>
</g>
</svg>
